<svg id="Layer_1" data-name="Layer 1" xmlns="http://www.w3.org/2000/svg" viewBox="0 0 246.3 41.9"><title>cosmetics_mobile</title><g style="isolation:isolate"><path d="M22.8,37.8a12,12,0,0,1-4.6,3.4,15.1,15.1,0,0,1-6.1,1.2,11.3,11.3,0,0,1-4.9-1,10.8,10.8,0,0,1-3.8-2.8A12.2,12.2,0,0,1,.9,34.3,14.4,14.4,0,0,1,0,29a15.4,15.4,0,0,1,1-5.8,13.3,13.3,0,0,1,2.8-4.4A11.8,11.8,0,0,1,8.2,16a17,17,0,0,1,5.7-1,18.3,18.3,0,0,1,3.5.3,10.2,10.2,0,0,1,2.8.9A5.4,5.4,0,0,1,22,17.6a2.8,2.8,0,0,1,.6,1.8,1.8,1.8,0,0,1-.6,1.5,2.4,2.4,0,0,1-1.8.5,2.4,2.4,0,0,1-1.5-.4,6.6,6.6,0,0,1-1.6-1.7,6.4,6.4,0,0,0-1.9-1.6,5.4,5.4,0,0,0-2.4-.5A5.9,5.9,0,0,0,7.4,20q-1.8,2.7-1.8,8.1c0,3.8.7,6.7,2,8.7a6.7,6.7,0,0,0,5.9,3,10.1,10.1,0,0,0,3.9-.8,12.2,12.2,0,0,0,3.8-2.7Z" transform="translate(0.5 -1.2)" stroke="#000" stroke-miterlimit="10"/><path d="M40.6,15A14,14,0,0,1,46,16a14.8,14.8,0,0,1,4.5,2.8,11.9,11.9,0,0,1,3,4.3,14.1,14.1,0,0,1,1.1,5.4,14.7,14.7,0,0,1-1.1,5.6,15.5,15.5,0,0,1-3,4.4A15.1,15.1,0,0,1,46,41.4a14,14,0,0,1-5.4,1,13.5,13.5,0,0,1-5.3-1,12.1,12.1,0,0,1-4.4-2.9,12.3,12.3,0,0,1-3-4.4,14.7,14.7,0,0,1-1.1-5.6A14.2,14.2,0,0,1,27.9,23a11.9,11.9,0,0,1,3-4.3,14.4,14.4,0,0,1,4.4-2.8A15.1,15.1,0,0,1,40.6,15Zm0,2.4a7.7,7.7,0,0,0-3.4.8,7.1,7.1,0,0,0-2.6,2.3A9.9,9.9,0,0,0,33,24.1a16.5,16.5,0,0,0-.6,4.6,17.3,17.3,0,0,0,.6,4.7A11.9,11.9,0,0,0,34.6,37a8.2,8.2,0,0,0,2.6,2.3,6.3,6.3,0,0,0,3.4.8,8.2,8.2,0,0,0,3.5-.8A7.1,7.1,0,0,0,46.7,37a12,12,0,0,0,1.7-3.6,17.3,17.3,0,0,0,.6-4.7,15.3,15.3,0,0,0-.6-4.5,11.4,11.4,0,0,0-1.7-3.5,7.1,7.1,0,0,0-2.6-2.3A6.4,6.4,0,0,0,40.6,17.4Z" transform="translate(0.5 -1.2)" stroke="#000" stroke-miterlimit="10"/><path d="M61.3,42H60.2V33.4h1.2c1.3,4.7,3.7,7,7.1,7a4.7,4.7,0,0,0,3.2-1,3.5,3.5,0,0,0,1.2-3,5.1,5.1,0,0,0-.2-1.3,3.3,3.3,0,0,0-.8-1.1,10.6,10.6,0,0,0-1.8-1.3l-3-1.9-3-2L62,27a5.9,5.9,0,0,1-1.7-4.5,7.8,7.8,0,0,1,.6-3.1A6,6,0,0,1,62.5,17a7.8,7.8,0,0,1,2.4-1.6,7.2,7.2,0,0,1,2.9-.6,9.5,9.5,0,0,1,2.8.4,11.7,11.7,0,0,1,2.5,1.1l1-1h1v7.2H73.8a11.9,11.9,0,0,0-2.4-4.4,4.2,4.2,0,0,0-3.2-1.3,4,4,0,0,0-2.7.9,3,3,0,0,0-1,2.5,3.3,3.3,0,0,0,.3,1.5,4.7,4.7,0,0,0,.9,1.2l1.5,1.2,2.2,1.4,3.7,2.4A18.4,18.4,0,0,1,75.6,30,8.5,8.5,0,0,1,77,32.1a6.6,6.6,0,0,1,.5,2.5,7.2,7.2,0,0,1-2.3,5.6,8.4,8.4,0,0,1-6,2A11,11,0,0,1,62.5,40Z" transform="translate(0.5 -1.2)" stroke="#000" stroke-miterlimit="10"/><path d="M90.8,34a30.2,30.2,0,0,0,.1,3.3,3.9,3.9,0,0,0,.5,1.8,2,2,0,0,0,1.2.8l2.2.3V42H81.6V40.2l2.3-.3a2,2,0,0,0,1.3-.8,3.8,3.8,0,0,0,.6-1.7,26.3,26.3,0,0,0,.1-3V28c0-1.9,0-3.5-.1-4.8a11.4,11.4,0,0,0-.3-2.6,6.2,6.2,0,0,0-.3-1,1.4,1.4,0,0,0-.7-.6,3.5,3.5,0,0,0-1.2-.3H81.4V16.8l8.1-1.9.6,5h.2A16,16,0,0,1,95,16.1a12.3,12.3,0,0,1,5.5-1.2,9.7,9.7,0,0,1,5.3,1.3,6.9,6.9,0,0,1,3,3.7h.2a12.4,12.4,0,0,1,4.5-3.7,12.1,12.1,0,0,1,5.6-1.3,11.8,11.8,0,0,1,4.3.8,5.9,5.9,0,0,1,2.9,2.1,8.3,8.3,0,0,1,1.3,3,23.3,23.3,0,0,1,.4,5.1v8a27.3,27.3,0,0,0,.1,3.2,6.5,6.5,0,0,0,.5,1.8,2.7,2.7,0,0,0,1.2.9l2.3.3V42H118.8V40.2a6.5,6.5,0,0,0,2.2-.3,2,2,0,0,0,1.3-.8,3.8,3.8,0,0,0,.6-1.7,24.5,24.5,0,0,0,.1-3V28.1a32.3,32.3,0,0,0-.3-4.8,8.6,8.6,0,0,0-1-3.2,5.2,5.2,0,0,0-1.8-1.8,5.9,5.9,0,0,0-2.7-.5,7.5,7.5,0,0,0-4.1,1.2,8,8,0,0,0-3,3.3,4.2,4.2,0,0,0-.4,1l-.3,1.1a5.7,5.7,0,0,0-.1,1.4V34a27.3,27.3,0,0,0,.1,3.2,3.9,3.9,0,0,0,.5,1.8,2.5,2.5,0,0,0,1.3.9l2.3.3V42H100.2V40.2l2.2-.3a2,2,0,0,0,1.3-.8,3.8,3.8,0,0,0,.6-1.7,26.3,26.3,0,0,0,.1-3V28.1a33.8,33.8,0,0,0-.3-4.9,8.6,8.6,0,0,0-1-3.2,4.5,4.5,0,0,0-1.8-1.8,5.4,5.4,0,0,0-2.7-.5,7.9,7.9,0,0,0-4.2,1.2,8,8,0,0,0-3,3.3,4.2,4.2,0,0,0-.4,1l-.3,1.1a5.7,5.7,0,0,0-.1,1.4V34Z" transform="translate(0.5 -1.2)" stroke="#000" stroke-miterlimit="10"/><path d="M159.5,37.3A13.2,13.2,0,0,1,149,42.5a12.5,12.5,0,0,1-5.3-1,12,12,0,0,1-4.1-2.8,13.2,13.2,0,0,1-2.7-4.2A16.3,16.3,0,0,1,136,29a14.7,14.7,0,0,1,1-5.6,14.8,14.8,0,0,1,2.8-4.5,12.1,12.1,0,0,1,4.4-2.9,14.2,14.2,0,0,1,5.5-1,10.5,10.5,0,0,1,7.5,2.6c1.8,1.7,2.7,4.3,2.7,7.5,0,.5-.1.8-.3.8a7,7,0,0,1-1.3.2H141.8c-.1.3-.1.6-.2,1v1.3a17.3,17.3,0,0,0,.6,4.7,10.2,10.2,0,0,0,1.8,3.6,7.7,7.7,0,0,0,2.8,2.3,8.7,8.7,0,0,0,7.5-.1,13.5,13.5,0,0,0,3.7-3Zm-8.3-13.5h1.6l.9-.2a.8.8,0,0,0,.4-.4,1.5,1.5,0,0,0,.1-.7,4.8,4.8,0,0,0-1.5-3.7,5.7,5.7,0,0,0-4-1.4c-3.6,0-5.8,2.1-6.7,6.4Z" transform="translate(0.5 -1.2)" stroke="#000" stroke-miterlimit="10"/><path d="M164,18.7V16.8a19,19,0,0,0,4.2-3.1,10.1,10.1,0,0,0,2.3-3.7H172v6.3h6.7v2.4H172V33.9a23.6,23.6,0,0,0,.2,3,4.7,4.7,0,0,0,.6,1.9,2.4,2.4,0,0,0,1,1,4,4,0,0,0,1.7.3,4.6,4.6,0,0,0,2.1-.5,5,5,0,0,0,1.7-1.8l1.2,1a5.5,5.5,0,0,1-2.4,2.8,9.4,9.4,0,0,1-4.3,1c-2.2,0-3.9-.5-5-1.6a5.6,5.6,0,0,1-1.7-4.5V18.7Z" transform="translate(0.5 -1.2)" stroke="#000" stroke-miterlimit="10"/><path d="M192.3,34a24.1,24.1,0,0,0,.2,3.1,3.6,3.6,0,0,0,.7,1.9,2.3,2.3,0,0,0,1.4.9,7.8,7.8,0,0,0,2.4.3V42H182.7V40.2a9,9,0,0,0,2.5-.3,3.8,3.8,0,0,0,1.5-.9,3,3,0,0,0,.7-1.8,21.9,21.9,0,0,0,.2-2.9V28c0-1.9,0-3.5-.1-4.8a7.9,7.9,0,0,0-.3-2.6A2,2,0,0,0,186,19a8.8,8.8,0,0,0-3.4-.4V16.8l9.8-1.9V34ZM186.6,4.8a2.9,2.9,0,0,1,.9-2.2,3.1,3.1,0,0,1,4.4,0,2.9,2.9,0,0,1,.9,2.2,2.9,2.9,0,0,1-.9,2.2,3.1,3.1,0,0,1-4.4,0A2.8,2.8,0,0,1,186.6,4.8Z" transform="translate(0.5 -1.2)" stroke="#000" stroke-miterlimit="10"/><path d="M223.3,37.8a11.7,11.7,0,0,1-4.7,3.4,15.4,15.4,0,0,1-6.1,1.2,11.3,11.3,0,0,1-4.9-1,10.8,10.8,0,0,1-3.8-2.8,12.2,12.2,0,0,1-2.5-4.3,16.3,16.3,0,0,1-.9-5.5,15.4,15.4,0,0,1,1-5.8,13.3,13.3,0,0,1,2.8-4.4,11.8,11.8,0,0,1,4.4-2.8,17,17,0,0,1,5.7-1,18.3,18.3,0,0,1,3.5.3,11.5,11.5,0,0,1,2.8.9,5.4,5.4,0,0,1,1.8,1.4,2.8,2.8,0,0,1,.6,1.8,1.8,1.8,0,0,1-.6,1.5,3.3,3.3,0,0,1-3.3.1,6.6,6.6,0,0,1-1.6-1.7,6.4,6.4,0,0,0-1.9-1.6,5.4,5.4,0,0,0-2.4-.5,5.9,5.9,0,0,0-5.4,2.8q-1.8,2.7-1.8,8.1c0,3.8.7,6.7,2,8.7a6.6,6.6,0,0,0,5.9,3,11,11,0,0,0,4-.8,12.2,12.2,0,0,0,3.8-2.7Z" transform="translate(0.5 -1.2)" stroke="#000" stroke-miterlimit="10"/><path d="M229.1,42H228V33.4h1.2c1.3,4.7,3.7,7,7.1,7a4.7,4.7,0,0,0,3.2-1,3.5,3.5,0,0,0,1.2-3,5.1,5.1,0,0,0-.2-1.3,5.9,5.9,0,0,0-.8-1.1,10.6,10.6,0,0,0-1.8-1.3l-3-1.9-3-2L229.8,27a5.9,5.9,0,0,1-1.7-4.5,7.8,7.8,0,0,1,.6-3.1,6,6,0,0,1,1.6-2.4,8.7,8.7,0,0,1,2.3-1.6,7.3,7.3,0,0,1,3-.6,9.5,9.5,0,0,1,2.8.4,11.7,11.7,0,0,1,2.5,1.1l1-1h1v7.2h-1.3a11.9,11.9,0,0,0-2.4-4.4,4.2,4.2,0,0,0-3.2-1.3,4,4,0,0,0-2.7.9,3,3,0,0,0-1,2.5,3.3,3.3,0,0,0,.3,1.5,4.7,4.7,0,0,0,.9,1.2l1.5,1.2,2.2,1.4,3.7,2.4a18.4,18.4,0,0,1,2.5,2.1,8.5,8.5,0,0,1,1.4,2.1,6.6,6.6,0,0,1,.5,2.5,7.2,7.2,0,0,1-2.3,5.6,8.4,8.4,0,0,1-6,2,11,11,0,0,1-6.7-2.2Z" transform="translate(0.5 -1.2)" stroke="#000" stroke-miterlimit="10"/></g></svg>