<svg id="Layer_1" data-name="Layer 1" xmlns="http://www.w3.org/2000/svg" viewBox="0 0 180.35 68.9"><title>dior</title><g style="isolation:isolate"><path d="M27.6,66.6a54,54,0,0,1-17.5,2.7c-4.4,0-7.1-.8-8.3-2.3a2.35,2.35,0,0,1-.5-1.3A1.75,1.75,0,0,1,2,64.3a18.9,18.9,0,0,1,1.9-1.4,13.72,13.72,0,0,1,5.8-1.4c1.9,0,3.4,0,4.2.1s1.8.2,2.9.4c1.8.4,3.6.9,5.5,1.4s2.8.8,2.9.8a.37.37,0,0,1,.3.1,45.91,45.91,0,0,0,9.8-7.4q4.8-4.65,8.7-9L52.4,38l8.2-9.9L65,23.3c1.5-1.6,3.3-3.4,5.2-5.2a51.69,51.69,0,0,1,7-5.5C73,5.9,65.4,2.6,54.5,2.6A37.3,37.3,0,0,0,36.2,7.7,44.6,44.6,0,0,0,22.5,19.4C19,24,17.2,28.2,17.2,32a7.48,7.48,0,0,0,2.4,5.7,8.7,8.7,0,0,0,5.9,2.1,19.33,19.33,0,0,0,6.7-1.2,33.29,33.29,0,0,0,6.6-3.2,48.8,48.8,0,0,0,6.7-4.8,47.84,47.84,0,0,0,6-5.9c3.9-4.6,6-9,6.2-13.1.1-.7.3-1.1.5-1.1.4,0,.6.3.6,1,0,4.7-1.6,9.3-4.7,13.9A34.41,34.41,0,0,1,34.6,40a25.71,25.71,0,0,1-7.2,1.2,16.85,16.85,0,0,1-5.4-.7,12.78,12.78,0,0,1-3.8-2.1,9,9,0,0,1-3.8-7.1,21.36,21.36,0,0,1,1.4-7.6,26.89,26.89,0,0,1,4-6.9A35.89,35.89,0,0,1,26,10.7a42.79,42.79,0,0,1,8-4.9A47.54,47.54,0,0,1,54.1,1.4c11.3,0,19.7,3.4,25,10.1,7.4-4.7,14.1-7.2,20-7.4.5,0,.7.1.7.4a.59.59,0,0,1-.2.5,8.67,8.67,0,0,0-1.3.3c-5.8.7-11.6,3.5-17.5,8.6a24.73,24.73,0,0,1,3.6,13,42.4,42.4,0,0,1-1.6,12.4,44.44,44.44,0,0,1-4.4,9.9,38.06,38.06,0,0,1-6.8,8.2,36.74,36.74,0,0,1-8.5,6.3,41.62,41.62,0,0,1-20.5,5.4A52.11,52.11,0,0,1,27.6,66.6Zm-4.2-1.2a52.25,52.25,0,0,0-11.9-1.9,26.6,26.6,0,0,0-6.7.6q-2.1.6-2.1,1.5c0,1.4,2.8,2.1,8.3,2.1A29.53,29.53,0,0,0,23.4,65.4Zm6.5.3a39.49,39.49,0,0,0,12,1.9,38.73,38.73,0,0,0,10.5-1.3,44.16,44.16,0,0,0,9-3.8,37.48,37.48,0,0,0,7.9-6,39.78,39.78,0,0,0,6.3-7.9,38.3,38.3,0,0,0,5.7-20.4,30.13,30.13,0,0,0-2.4-12.6,77,77,0,0,0-10.3,12L59.7,40.1C50.2,53.1,40.3,61.7,29.9,65.7Z" transform="translate(-0.8 -0.9)" stroke="#000" stroke-miterlimit="10"/><path d="M82.5,66.2c0,1,1,1.5,2.9,1.5a11.33,11.33,0,0,0,5.4-1.3A44.49,44.49,0,0,0,96,63.1c1.7-1.3,3.4-2.8,5.1-4.3l4.4-4.4c1.3-1.4,2.4-2.5,3.2-3.5a20.86,20.86,0,0,1,1.5-1.7l1,.9q-.45.45-1.8,2.1c-.9,1.1-2,2.3-3.3,3.7s-2.8,2.9-4.5,4.5a51.51,51.51,0,0,1-5.2,4.3c-4.2,3-7.9,4.5-11,4.5a9.47,9.47,0,0,1-4.8-1.1,3.06,3.06,0,0,1-1.8-2.5,9.52,9.52,0,0,1,.3-2.5,22,22,0,0,1,1.1-2.7,27.16,27.16,0,0,1,2.2-3.7c.9-1.4,2.1-3.1,3.6-5s3.3-4.2,5.4-6.8L98.9,36h4.4a13.42,13.42,0,0,0,2.1-.1c-10.8,12.9-16.9,20.2-18.2,22a46.52,46.52,0,0,0-3,4.2A7.71,7.71,0,0,0,82.5,66.2Zm31-41.3a5.37,5.37,0,0,1-1.6,1,6.47,6.47,0,0,1-2,.4,2.46,2.46,0,0,1-1.9-.9,2.93,2.93,0,0,1-.8-1.9,3.81,3.81,0,0,1,.4-1.9,5.27,5.27,0,0,1,1.1-1.5,4.18,4.18,0,0,1,3.1-1.5,2.94,2.94,0,0,1,3.3,2.9,3.81,3.81,0,0,1-.4,1.9A15.76,15.76,0,0,1,113.5,24.9Z" transform="translate(-0.8 -0.9)" stroke="#000" stroke-miterlimit="10"/><path d="M131.7,61.1a2.7,2.7,0,0,1-2.6-1.5c-3.9,4.4-8.1,7.3-12.5,8.7a13.92,13.92,0,0,1-4.4.7,12.5,12.5,0,0,1-3.6-.5,6.77,6.77,0,0,1-2.5-1.4c-2.6-2.3-2.9-6.2-.8-11.8a31.78,31.78,0,0,1,3.1-6.1,36,36,0,0,1,4.3-5.2,30.48,30.48,0,0,1,5.2-4.3q6.3-4.2,12.3-4.2a7.68,7.68,0,0,1,4.5,1.3,4.73,4.73,0,0,1,2,3.9,18,18,0,0,1-.3,4.7,24.44,24.44,0,0,1-1.3,4.4,32.15,32.15,0,0,1-5,8.5,1.77,1.77,0,0,0,1.9,1.4,5.92,5.92,0,0,0,2.9-.7,22,22,0,0,0,2.8-1.8c.9-.7,1.8-1.5,2.7-2.3l2.5-2.5,1.9-2.1c.5-.6.9-1,1.1-1.3l1.1,1a13.9,13.9,0,0,0-1.6,1.7c-.7.7-1.4,1.5-2.2,2.3l-2.6,2.5C137.3,59.6,134.3,61.1,131.7,61.1Zm-20.2,6.1a4.56,4.56,0,0,0,2.2.4c2.1,0,4.8-1.2,8.2-3.6a36.87,36.87,0,0,0,6.8-6.3v-.2a6.86,6.86,0,0,1,3.1-6.2,4.77,4.77,0,0,1,1.6-.8c1.6-3.3,2.3-6,2.2-8.2-.2-3.4-1.4-5-3.7-5-3.8,0-9.2,4.3-16.2,13-4.5,5.6-6.6,10-6.3,13.1A3.61,3.61,0,0,0,111.5,67.2Z" transform="translate(-0.8 -0.9)" stroke="#000" stroke-miterlimit="10"/><path d="M154,65.2c0,1.5.6,2.3,1.9,2.3a9,9,0,0,0,4.2-1.2,36.57,36.57,0,0,0,4.7-3,56.48,56.48,0,0,0,4.8-4L174,55c1.3-1.3,2.4-2.5,3.4-3.6l2-2.2,1,.8c-.6.6-1.4,1.4-2.5,2.6l-3.5,3.9c-7.9,8.4-14.8,12.6-20.5,12.6a7.11,7.11,0,0,1-4.5-1.4,4.52,4.52,0,0,1-1.7-3.7c0-4.8,7.1-12,21.2-21.5-6.9-1.1-11.7-2.3-14.3-3.5a53.88,53.88,0,0,1-9.9,13.5,11.32,11.32,0,0,1-1.9,1.8,1.69,1.69,0,0,1-.5.2c-.1,0-.1,0-.1-.3v-.5c0-.1.1-.2.2-.4,1.5-1.7,2.9-3.4,4.2-5a54.62,54.62,0,0,0,6.7-10.1,3.75,3.75,0,0,1-2-2.4,4.88,4.88,0,0,1,0-2.4,7.22,7.22,0,0,1,.9-2,3.41,3.41,0,0,1,2.9-1.9c2.1,0,3.1.7,3.1,2.2a3.81,3.81,0,0,1-.4,1.9l-.9,1.5a3.92,3.92,0,0,0-.9,2.6c0,.6,1.2,1.1,3.7,1.7s4.3.9,5.3,1.1a36.15,36.15,0,0,0,5.4.7c.9,0,1.4.3,1.4.7s-.5.9-1.6,1.7a43.52,43.52,0,0,0-3.5,3.1c-1.3,1.2-2.5,2.5-3.7,3.8s-2.3,2.7-3.4,4a32.36,32.36,0,0,0-2.8,4C154.9,61.5,154,63.7,154,65.2Z" transform="translate(-0.8 -0.9)" stroke="#000" stroke-miterlimit="10"/></g></svg>