<svg id="Layer_1" data-name="Layer 1" xmlns="http://www.w3.org/2000/svg" viewBox="0 0 693.7 180.4"><title>flower2</title><path d="M692.9,147.9H652.2c-24.9,0-49.9-.1-74.8.1-3.3,0-5.2-1.1-6.8-3.9a42.7,42.7,0,0,1-5-13.7c-2.5-12.6-8.2-23-19.4-30.6l5.1-2.2c12.2-5.3,23.8-11.6,34-20.2,2.4-2,2.8-3.6,1.2-6.3-4.4-7.4-11-11.4-19.1-13.4a45.9,45.9,0,0,0-24.4.9c-.6-1.7,0-2.8.3-4,5.5-20.9-.9-38.1-16-52.7-1.9-1.8-3.3-2.8-5.9-.8-12.9,10.1-24.3,21.5-32.6,35.8-1.4,2.5-2.7,5.1-4.3,8.1-7.7-16.8-20.8-24.1-38.2-25-2.7-.1-4.1.5-4.1,3.5A155.8,155.8,0,0,0,443.6,49a109.2,109.2,0,0,0,8.3,27.2c-5.1-.3-9.6-1.3-14.2-.9-15.7,1.4-28,9.6-39.5,19.6-2.9,2.5-2.9,4.1-.1,6.6,10.1,9.1,22.2,12.9,35.3,14.2,17.9,1.7,35.2-1.6,52.1-7a8.4,8.4,0,0,1,8.1,1.2c-5,1-9.5,1.7-13.9,2.8-16.4,4-28,15.8-28.8,29.9-.3,4.3-1.7,5.5-5.9,5.4-20-.2-420.1-.1-440.1-.1-1.6,0-3.3-.4-4.9.8,1,1.5,2.1,1,3.1,1H448.5c3.1,0,3.5-1.2,3.6-3.9.6-10.1,4.7-18.5,13-24.7s14.6-7.3,22.8-8.4c4.8-.6,9.9-1.7,13.5-4.3,14.8-10.7,27.7-23.8,35.8-40.3,3.6-7.5,9-9.3,15.9-10.2a30.1,30.1,0,0,1,5.2-.1c10.6.6,20,3.8,26.4,13,1.7,2.5,1.3,3.9-1,5.8-11.4,9.2-24.2,15.9-37.8,21.3a6.7,6.7,0,0,1-4.2.3c-12.8-2.4-23.4,1.2-31.7,11.4a3.1,3.1,0,0,1-2.6.9c-5.9.4-11.4,2.4-17,4.1-12.6,3.9-23.6,10-29.2,22.8s-3.5,26.1,1.2,39.1c1.5,4.1,2.9,3.8,5.7,1.1,11.2-11,19.1-24.2,25.1-38.6,1.7-4,3.1-8,4.9-12.7,5,21.1,16.5,31.2,37.4,32.3,14.1.7,27.9-1.9,41.6-5,4.6-1.1.6-2.5.1-4.6H692.6A1.7,1.7,0,0,0,692.9,147.9ZM473.5,110.4c-18.6,4.5-37.2,6.5-55.9.5a49.3,49.3,0,0,1-18-10.1c-1.2-1.1-2.9-2.1-.7-4.1,12.4-11,25.7-19.8,43.2-19.7,6.5.1,11.7,1.5,15.6,8,6.1,10.3,15.8,16.9,27.4,21.6C481.2,108.9,477.3,109.5,473.5,110.4Zm12.8-5.3c-12.8-4.7-22.5-12.9-29.8-24.6C467.1,82.5,487.2,99,486.3,105.1Zm.9-5.9C481.4,94,476,88.8,469.8,84.8c-2.9-1.8-5.8-4.1-9.1-5-5.7-1.5-7.9-5.5-9.8-10.3-5.5-14.2-7.4-28.9-6.9-44,.1-1.9-.1-3.6,2.9-3.7,14-.9,30.8,9.8,35.7,22.8a8.5,8.5,0,0,1,.2,6.3c-4.5,13.2-3.2,26,3.3,38.2A12.1,12.1,0,0,1,487.2,99.2Zm1.1-9.6c-7.1-12.8-7.8-25.2-3.9-38.8C488.1,58.8,489.7,75,488.3,89.6Zm.3,15.5c-.1-.3.5-1.5.7-1.4,1.7.3,2.9,1.4,4.1,3.4C491.1,106.9,489.4,107,488.6,105.1Zm46.8-36.8C526.8,83.7,514.8,96,501.2,107c-2.3,1.9-4.4,2.3-6.1-.8a7.6,7.6,0,0,0-3-2.9c-3.1-1.7-3.6-3.9-1.9-7a22.7,22.7,0,0,0,2.7,3.3c1.6,1.6,3,5.3,4.8,4.4s4.3-4.9,4.2-8.4-.9-8.1-1.3-12.2c-1.2-13.8,1.6-26.9,7.3-39.4a6.7,6.7,0,0,1,1.1-1.4A132.9,132.9,0,0,0,504.4,65a75.3,75.3,0,0,0,.3,21.2c.2,1.2.2,2.8,1.6,3.1s1.9-1.4,2.7-2.3c6.5-8.6,13.9-16.3,23.3-21.8a19.2,19.2,0,0,1,5.4-2.4C537.7,65.1,536.4,66.7,535.4,68.3Zm4.8-10.8c-.5,1.3-.8,2.6-2.4,3.2-12,4.7-20.6,13.6-28.6,23.3-.6.7-1.2,1.4-2.7,2.9-3.5-24,4.2-44.6,13.7-64.9a1.8,1.8,0,0,0-2.4,1c-14,20.9-22.4,43.2-18,69,.6,3.6.4,6.9-2.6,10.1-3.6-4.4-7.8-7.7-7-14.8a87.4,87.4,0,0,0-3.9-36.9,7.9,7.9,0,0,1,.6-6.4c8-16.9,20.7-30,35.2-41.3,1.6-1.3,2.5-.9,3.9.4C542.4,19,547.7,35.7,540.2,57.5Zm.5,42.4a143,143,0,0,1-25.3,6.8C522.6,101.3,530.3,97.9,540.7,99.9Zm.8,1.5c2.4-.9,4,.1,5.6,1.2a37.7,37.7,0,0,1,15.2,21.5c2.3,8,3.6,16.2,8.5,23.3-5.1,1.4-7.8-1.8-10.5-4.6-5.2-5.5-10-11.3-15.3-16.7-8.9-9.1-18.9-16.1-32.5-16.4C522.4,107.3,532.1,104.9,541.5,101.4Zm-14.4,54.8c-15.6-2.7-27.4-18.2-27-34.7,0-1.6.9-3.3-.6-5.8-6.7,23.7-16,45.2-34.2,62.6-4.3-9.4-6.4-18.7-5.5-28.5,1.2-13.2,8.2-22.5,19.7-28.6,9.3-5,19.3-7.6,29.6-9s18.4,1.7,26,7.7S550.2,134.2,557,142c3.9,4.5,7.9,8.7,14.7,7.8,1.7-.2,2.9,1,4.1,2.7C559.6,155.9,543.6,159.1,527.1,156.2Z" transform="translate(0.5 0.3)" fill="none" stroke="#000" stroke-miterlimit="10" stroke-width="0.7"/></svg>