<?xml version="1.0" encoding="utf-8"?>
<!-- Generator: Adobe Illustrator 20.1.0, SVG Export Plug-In . SVG Version: 6.00 Build 0)  -->
<svg version="1.1" id="Layer_1" xmlns="http://www.w3.org/2000/svg" xmlns:xlink="http://www.w3.org/1999/xlink" x="0px" y="0px"
	 viewBox="0 0 470 300" style="enable-background:new 0 0 470 300;" xml:space="preserve">
<style type="text/css">
	.st0{fill:#F8E8EC;}
</style>
<g>
	<path class="st0" d="M371,94.4c12.4,1.8,26-0.9,37.5-7.3c2.8-1.6,5.5-3.4,8.1-5.4h-3.3c-0.5,0.3-0.9,0.6-1.4,1
		c-18.6,12.8-47.9,13-59.4-1h-4C353.4,88.4,361.7,93.5,371,94.4z"/>
	<path class="st0" d="M459.2,108.6c-5.4-11.3-16.4-14.6-22.8-14.5c-6.7,0.2-10,2.4-10,2.1c0,0.3,3.4-1.7,10-1.7
		c6.3,0.2,16.8,3.8,21.6,14.7c5.1,10.2,2,27.2-11.5,34.9c-12.9,8-33.8,4-42.6-11.6c-6.6-11.2-5.8-24.7-0.3-35
		c0.1-0.1,0.2-0.1,0.2-0.2c6.8-6.5,13.5-13.9,20-22.3h-7.4c-8.1,8.7-16.8,16.1-24.8,20.7c-10.6,6.2-19,7.7-19.9,7.9
		c-9.5,1.4-17.2,0.5-17.5,3.8c-0.4,2.9,9.2,4.4,18.8,0.6c0.8-0.4,9.2-2.3,19.5-8.7c3.7-2.3,7.5-5.1,11.4-8.4
		c-8,8.4-17.1,16.8-27.5,24.9c-10.9,7-28.7,18.2-30.1,19.2c-6.2,3.9-16.9,7.3-25.7,3.1c-8.9-3.7-16.4-16-13.8-26.9
		c2.2-11.5,15.7-18.5,24.9-16.2c9.5,1.9,15.4,12.7,14.6,19.8c-0.7,7.4-5.9,11.9-9.6,13.4c-4,1.5-7.9,1-8,1.6
		c-0.1,0.2,2.5,1.2,7.2,0.2c4.4-1.1,11.5-5.6,12.9-14.7c1.6-8.5-4-20.8-16.1-23.6c-11.5-3.2-26.4,4.6-29.3,18.5
		c-3.2,13.6,5.2,26.9,16,31.2c3.7,1.6,7.4,2.3,11,2.3c-34.9,15.5-77.6,23.5-122.6,14.6c-31.6-5.7-63.3-20.1-89.3-43.5
		c-12.7-11.3-40.8-60.1-47-70.7l-24-39.6c0,6.9,54.6,98.4,62.8,107.7c2.1,2.3,9.6,10.4,12,12.3c0,0,0-0.1,0-0.1c0,0,0,0.1,0,0.1
		c0.1,0.1,0.2,0.2,0.3,0.3c-0.1,0-0.2-0.1-0.3-0.1c0,0.8-22.3,0.4-23.8,1.7c4.4-0.8,26.8,0.8,27.8,1.3c0.1,0,0.1,0.1,0.2,0.1
		c0.3,0,0.7,0,0.9,0c-0.3,0-0.6,0-0.9,0c24.4,18.5,52.6,30.1,80.5,34.8c50.5,9.6,97.9-1.7,134.8-21c2.5-0.9,4.7-2.1,6.6-3.5
		c0.2-0.1,0.3-0.2,0.5-0.4c5.4-3.1,10.5-6.3,15.4-9.6c10.1-6.3,22.2-15,35.2-26.6c-3.7,10.1-3.5,22,2.5,32.3
		c9.5,16.9,32.2,21,45.9,12.2C462.1,137.3,464.9,119.1,459.2,108.6z"/>
	<path class="st0" d="M420.1,81.7h-4.5c-1.4,1.8-2.7,3.6-4.1,5.5c-25.5,36.6-32.7,78-32.1,106.5c0.4,29,6.5,46.2,6.8,45.9
		c0.6-0.1-4.5-17.4-4.3-45.9c0.1-28.2,7.5-68.6,32.6-104.5C416.3,86.7,418.2,84.1,420.1,81.7z"/>
	<path class="st0" d="M399.3,280.5c-0.3-9.4,2-15.6,1.3-18.7c-2.1-8.3-7.1-18.5-12.9-16.8c0.4-0.1-5.2,1.7-3.4,15.3
		c3.1,10.6,2.6,12.1,9.7,22.9c-0.5,0.5-8.7-11.5-8.9-14.2c-1.2-2.7-2.7-8.6-2.8-14c-0.1-5.4,0.8-9.9,0.8-9.9
		c-4.8-3.5-8.2-1.3-10.3,3.5c-2,4.8-1.8,11.8-1.2,15.5c0.5,8.8,9.4,22.8,20,28.3c10.3,6,20.2,6.5,22.3,5.1
		C408,297.3,399.3,290.1,399.3,280.5z"/>
	<path class="st0" d="M407.5,242.6c-2.5-0.8-10-0.2-10,0c-1.3,7.4,4.1,6.8,5.5,7.2c1.8,0.4,5-0.3,8.4,0.9c3.5,1.1,6.7,4.4,8,4.9
		c-1.6-2.4-1.9-5.9-2-12c0-6.1-5.2-11.7-8.8-12.3c-10.2-1.8-13.5,5.4-11.8,8.3c0,0.2,1.3,1.8,7.2,1.5c4.8,0.3,5.9,0.7,9.6,4.3
		C412.3,244.5,408.5,242.5,407.5,242.6z"/>
	<path class="st0" d="M38.1,135.8c12.1,0.8,23,3.3,29.8,3c18.3-0.5,31.2-4,27.9-10.1c0,0.4-2.9-5.1-22.2-5
		c-15.8,1.5-17.8,0.6-35.7,6.1c-0.3-0.7,19.6-6.8,23.2-6.6c8.2-2.5,33.9,0.2,33.8,0.9c8.7-9-15.2-13.7-24.6-12.9
		c-10.4-0.4-29.4,4.6-42.2,14.7c-13.1,9.7-19.4,22.2-19,25.1C12.5,143.5,25.6,134.6,38.1,135.8z"/>
	<path class="st0" d="M69.4,52.8c0-0.3-1.9-0.8-10.5-2.1c-6.5-1.8-7.9-2.8-12.9-7.8c2.2,1.8,6.6,5.1,7.8,5.3
		c3.3,2.4,14.7,3,14.6,2.5c2-5.2-6.2-4.8-8.8-6.2c-3.1-1-9-3.4-13.9-7.6c-5-4-8.7-8.9-9.9-9.5c2.1,3.3,4.6,9.1,6.2,15.3
		c1.5,6.2,6.7,12.4,11.4,14.1C66.4,61.1,72.2,54.6,69.4,52.8z"/>
	<path class="st0" d="M342,61.5c-2.7,0.2-5.8,3.4-6.2,6.9c-0.6,3.5,0.4,6.3,1.4,7.8c6,7.9,11.8,5.6,12,3.2c0.1-0.1-0.1-1.8-4.5-5.6
		c-2.7-3.1-4-4.9-1.9-8.6c-0.5,1.7-0.7,4.7,0.4,5.2c0.9,2.3,7,7.1,7,7c4.6-2.9-0.2-6.7-0.9-7.9c-0.8-2.4-3.2-0.4-2-3.7
		c1.8-3,5.9-5.4,6.3-6.4C351,60.7,347.2,60.7,342,61.5z"/>
	<path class="st0" d="M311.8,149.2c0.8-5.5-6.6-3.6-9.3-3.3c-3.1,0.4-8.4,1.9-13.2,2.1c-4.8,0.5-8.9-1-10.1-1.3
		c2.2,1.9,6.2,4.5,10.4,8.1c4.1,3.6,10,5.4,13.3,4.9c9.2-1.3,12.3-6.8,10-8.6c0-0.1-1.7-1.1-8.5,0.8c-5.6,1.2-6.6,1.2-12.8,0.4
		c1.8,0.1,7.2,0,8.2-0.3C302.9,151.7,311.8,149.2,311.8,149.2z"/>
</g>
</svg>
