<svg id="Layer_1" data-name="Layer 1" xmlns="http://www.w3.org/2000/svg" viewBox="0 0 694.2 191.8"><title>flower1</title><path d="M698,161.5H408.3c-26.6,0-53.2-.1-79.7.1-3.5,0-5.6-1.2-7.2-4.1a48.3,48.3,0,0,1-5.3-14.6c-2.7-13.4-8.7-24.6-20.7-32.6l5.5-2.3c13-5.7,25.3-12.4,36.3-21.6,2.5-2.1,2.9-3.9,1.2-6.7-4.7-7.8-11.7-12.2-20.4-14.3s-17.5-1.5-26.1.9c-.7-1.8,0-3,.3-4.3,5.9-22.3-.9-40.6-17.1-56.2-2-1.9-3.5-3-6.3-.8C255.1,15.8,242.9,27.9,234,43.2c-1.5,2.7-2.9,5.5-4.6,8.7-8.2-17.9-22.2-25.7-40.7-26.6-2.8-.1-4.4.5-4.4,3.8a163.6,163.6,0,0,0,1.5,27.1,119.4,119.4,0,0,0,8.8,29c-5.5-.3-10.2-1.4-15.2-.9-16.8,1.5-29.9,10.2-42.1,20.9-3.1,2.7-3,4.4-.1,7.1,10.7,9.7,23.6,13.8,37.6,15.1,19.1,1.8,37.5-1.7,55.5-7.4a8.9,8.9,0,0,1,8.6,1.3c-5.4,1.1-10.1,1.8-14.8,3-17.4,4.3-29.8,16.8-30.7,31.8-.3,4.6-1.8,5.8-6.3,5.8-21.4-.2-156.8-.2-178.1-.1-1.7,0-3.6-.4-5.2.8,1,1.5,2.3,1.1,3.3,1.1H190.8c3.3,0,3.7-1.2,3.9-4.1.6-10.8,5-19.8,13.8-26.3,7.2-5.3,15.5-7.8,24.3-9,5.1-.7,10.6-1.8,14.4-4.6,15.8-11.5,29.5-25.3,38.1-43,3.9-8,9.6-9.9,16.9-10.8a33.7,33.7,0,0,1,5.5-.2c11.3.7,21.3,4,28.2,13.8,1.8,2.6,1.4,4.2-1,6.2-12.2,9.8-25.8,17-40.2,22.7a8.3,8.3,0,0,1-4.4.4c-13.6-2.6-24.9,1.3-33.8,12.2-.7.9-1.7.9-2.7,1-6.3.5-12.2,2.5-18.1,4.3-13.4,4.1-25.1,10.7-31.1,24.3s-3.7,27.9,1.3,41.6c1.6,4.4,3.1,4,6.1,1.1,12-11.8,20.3-25.8,26.8-41.1,1.8-4.2,3.3-8.6,5.3-13.5,5.3,22.5,17.6,33.3,39.9,34.5,15,.8,29.8-2,44.4-5.3,5-1.1.6-2.7.1-4.9H697.8A5.3,5.3,0,0,0,698,161.5Zm-480.1-40c-19.8,4.8-39.7,6.9-59.6.5a51.5,51.5,0,0,1-19.2-10.8c-1.3-1.2-3.1-2.3-.8-4.4,13.2-11.8,27.4-21.1,46-20.9,7,.1,12.5,1.6,16.6,8.5,6.5,10.9,16.9,18,29.2,23.1C226.1,120,221.9,120.5,217.9,121.5Zm13.6-5.6c-13.6-5-24-13.8-31.8-26.2C211,91.8,232.5,109.4,231.5,115.9Zm.9-6.4c-6.2-5.6-11.9-11.1-18.6-15.3-3.1-2-6.2-4.4-9.7-5.3-6.1-1.6-8.5-5.8-10.5-11-5.9-15.1-7.9-30.8-7.4-46.8.1-2-.1-3.8,3-4,14.9-.9,32.9,10.4,38,24.3a9.1,9.1,0,0,1,.2,6.7c-4.8,14-3.4,27.7,3.6,40.7C233,102.3,233.8,105.3,232.4,109.5Zm1.2-10.2c-7.6-13.6-8.3-26.8-4.2-41.4C233.4,66.5,235.1,83.7,233.6,99.3Zm.3,16.6c-.2-.4.6-1.5.7-1.5,1.8.4,3.1,1.5,4.4,3.6C236.6,117.7,234.7,117.9,233.9,115.9Zm50-39.2c-9.1,16.4-22,29.5-36.5,41.2-2.5,2-4.6,2.5-6.5-.9a8,8,0,0,0-3.2-3.1c-3.3-1.8-3.8-4.2-2.1-7.5,1,1.2,1.8,2.5,2.9,3.6s3.2,5.7,5.2,4.7,4.6-5.3,4.5-8.9-1-8.7-1.3-13c-1.3-14.7,1.7-28.6,7.8-42a8.3,8.3,0,0,1,1.1-1.5,139.1,139.1,0,0,0-5,23.9,77.8,77.8,0,0,0,.4,22.6c.2,1.3.2,3,1.7,3.3s2.1-1.5,2.8-2.5c6.9-9.2,14.8-17.4,24.8-23.2a21.4,21.4,0,0,1,5.7-2.6C286.3,73.2,284.8,74.9,283.9,76.7ZM289,65.1c-.5,1.4-.9,2.7-2.6,3.4-12.8,5-22,14.5-30.5,24.8-.6.8-1.3,1.4-2.8,3.1-3.7-25.6,4.5-47.6,14.6-69.1a2.1,2.1,0,0,0-2.6,1c-14.9,22.3-23.9,46.1-19.2,73.5.7,3.8.4,7.3-2.8,10.8-3.8-4.6-8.3-8.2-7.4-15.8a92.1,92.1,0,0,0-4.2-39.3,8.9,8.9,0,0,1,.6-6.8c8.6-18,22-31.9,37.6-44.1,1.7-1.4,2.7-1,4.1.4C291.2,24.1,296.9,41.9,289,65.1Zm.5,45.2a146.1,146.1,0,0,1-26.9,7.2C270.1,111.8,278.3,108.3,289.5,110.3Zm.8,1.6c2.5-.9,4.2.1,6,1.3a40.5,40.5,0,0,1,16.2,22.9c2.4,8.5,3.9,17.3,9,24.9-5.4,1.5-8.3-1.9-11.2-4.9-5.6-5.8-10.7-12.1-16.3-17.8-9.5-9.7-20.2-17.2-34.6-17.5C269.9,118.3,280.3,115.7,290.3,111.9Zm-15.4,58.5c-16.6-2.9-29.2-19.4-28.8-37,0-1.7,1-3.5-.6-6.2-7.1,25.3-17.1,48.2-36.5,66.7-4.6-10-6.8-19.9-5.8-30.4,1.3-14,8.8-24,21-30.5,9.9-5.3,20.6-8.1,31.6-9.6s19.6,1.8,27.7,8.2,16.1,15.2,23.4,23.6c4.1,4.7,8.4,9.3,15.7,8.3,1.8-.2,3.1,1.1,4.4,2.8C309.6,170.1,292.5,173.4,274.9,170.4Z" transform="translate(-3.8 -3.8)" fill="#272928"/></svg>