<svg id="Layer_1" data-name="Layer 1" xmlns="http://www.w3.org/2000/svg" viewBox="0 0 269.3 592.7"><title>flower4</title><path d="M269.1,129.5c-5.9-33.7-29-48.8-62.3-40.8-9.3,2.2-9,2.2-8-6.9,2.5-21.9,1.7-43.4-11.1-62.4-15.3-22.7-39.9-21.5-52.2,2.4-2.4,4.6-4.3,5.1-8.6,2.7-10.9-6-22.7-9.2-35.1-10.7C65.7,10.8,50.3,25,51.4,51.3a61.1,61.1,0,0,0,4.1,20.8c2.5,5.8.6,8.9-3.8,12.3s-10,8.7-12.8,14.8c-2.1,4.6-5.4,7.1-9.7,9.2-31.2,15.3-37,49.7-12.8,74.8C21,188,26,192.4,32,195.1s5.6,4.8,2.6,9.7c-7.3,11.9-4.3,21.3,8,27.7,5.9,3.1,12.2,4.8,18.6,6.3,18.6,4.4,37.5,3.7,56.3,3.4,12.8-.2,12.9-.3,13,12.7.1,11.2-.5,22.4-.1,33.6.3,7.7-1.3,12.5-10.1,14.3-6.4,1.3-12.5,5.6-12.7,13.3s6.2,10.3,11.8,13.3l1.5.6c4.9,1,5.5,3.9,4.6,8.5-2,9.6-3.5,19.4-5.1,29.1-8.2,49-17.4,97.9-28,146.5-5.3,24.3-10.8,48.5-17.4,72.5-.8,3-2.4,6.8,2.5,8s4.6-2.8,5.6-5.5c.4-1,.7-2.1,1-3.1,17.3-62.5,29.4-126.1,39.9-190,3-18.2,6.9-35.9,15.3-52.5,2.2-4.3,4.2-6,9.5-3.6,18.4,8.3,32.8,20.4,40.9,39.3,2.3,5.3,4.4,10.6,6.6,15.9-2.3-24.9-14.6-42.4-40.1-58.2-10.1-6.3-10.1-6.7-1.1-15.1l3.1-2.6c11.5-8.9,17.6-8.4,27,2.7a75,75,0,0,1,7.8,11.5c11.6,20.6,12.6,43.2,12.6,66v14.2c8.9-15.1,22.3-24.8,34.6-35.5l3.5-3.4c5.9-5.5,8.5-12.3,8.7-20.5.9-34-27.9-57.9-62.5-51.2-10.3,2-19.9,3.9-30-1.1-4.6-2.3-10.7-2.3-16.1-2.5s-7.1-2.2-7-7.4c.3-10.4.3-20.8.2-31.2-.1-19.4-.1-19,19.5-22,22-3.4,43.5-8.7,62.7-20.6s19.9-22.2,3.8-37c-.2-.2-.2-.5-.6-1.7,9-1.9,17.5-3.7,25.4-7.7C264.1,163.4,272.2,147.4,269.1,129.5ZM128.6,312.2a19.4,19.4,0,0,1-.3,3.6c-.8,2.8,1.4,7.6-3.1,8.1a10.4,10.4,0,0,1-10.6-6.3c-1.8-3.9,1-6.6,4-8.9a8.8,8.8,0,0,1,2.1-1.2c2.5-.9,5-3.6,7.5-1.9S128.4,310.1,128.6,312.2Zm99.9,3.8c12.2,8.4,19,27.3,15.6,41.3-1.7,6.7-6,11.5-11,15.9-7.3,6.4-15.5,12-22.9,20.9-2.7-31.5-6.3-60.8-31.1-83.8C197.3,305.8,213.5,305.7,228.5,316Zm-89-293c8.3-14.1,25.9-15.8,37-3.1,7.5,8.6,10.2,19.2,12.2,30,1.2,6.7,1.3,13.6,1.9,19.8s-1.2,12.5-1.5,18.5c-.2,4.4-2.5,6.8-6.5,8.4s-7.7,1.5-8.2-5.1c-1.7-24-12.9-43.1-32.3-57.2C137.4,31.1,136.4,28.2,139.5,23Zm44.6,83.9A48.8,48.8,0,0,1,170.2,127c1.4-7.9,2.4-13.9,3.6-20a6.5,6.5,0,0,1,4.4-5.4c2.2-.7,4.5-3.1,6.7-.8S184.9,104.9,184.1,106.9ZM132.7,37.6c1.3-2.9,3.3-1.7,5.4-.5,19.7,10.8,34.3,38.2,31.7,60-.8,6.7-15.5,13.6-21.5,10.1h-.1c0,3.7-2.2,5.8-5.3,7.5a294.2,294.2,0,0,0-38.5,24.9c-4.5,3.4-6.9,2-10.2-1.4-10.1-10.4-16.4-23.1-22.4-36-1.6-3.5-.4-5.5,2.9-7.1,16.8-8.4,31.8-19,43.8-33.7,4.2-5.1,18.8-4.4,25.1.6s6.7,10.8,2.8,17.4c-2.1,3.5-3.4,4-6.4.4-9.5-11.2-17.9-12.1-29.7-3.4A57.4,57.4,0,0,0,89,106.7c-3.3,11.2,2.1,16.6,13.3,13.4s22.1-10.7,31.5-18.6,8.9-7.6,12.9,3.9c.2.7.9,1.2,1.4,1.8h.1c-3.6-11.9.8-21.3,7.6-31s.6-18.8-10.6-21.4a54.3,54.3,0,0,0-20.2-.7C126.4,47.4,130.3,42.8,132.7,37.6Zm-17.9,121a14.5,14.5,0,0,1,5.1,2.6c3.4,2.6,10.7,1.8,9.7,8s-.7,14.2-9.1,18.7a100.1,100.1,0,0,1-45.3,12.3c-7-.8-14.9-1-22.5-3.6-3.4-1.1-4.5-2.6-1.5-5.6,11.4-11.8,22.8-23.7,36.3-32.9C95.4,152.8,105.6,156.7,114.8,158.6Zm-17.1-8.9c2.7-2,4.4-.4,6.3,2.3-2.5,1.3-4.6,1.2-6.7-.3C97.1,151.6,97.3,150.1,97.7,149.7Zm18.2,3.4c-3.6.7-6.6-2.4-9.9-4.7s-2.7-3.6,0-5.6a369.5,369.5,0,0,1,57.8-35.1c5.9-2.9,5.4,1,5.2,5-1.3,20.4-13.8,30.9-32.1,36.2C130.4,150.8,123.8,152.8,115.9,153.1ZM67.5,90.5c-.9-2.9-3.9-6,.2-8.7a160.3,160.3,0,0,1,46.7-21.4c-12.1,15.7-26.2,25-41.9,32.4C69.6,94.1,68.2,93,67.5,90.5Zm67.2,4c-8.6,8.8-17.8,16.9-29.5,21.4-6.3,2.4-9.2.5-9.2-5.7-.1-11,14.4-30.3,24.8-33.2a14.4,14.4,0,0,1,11.8,1.4C140.5,83.3,141.2,87.9,134.7,94.5ZM58.3,55.1c0-22.4,13-34.9,34.1-34.1,11.1.4,21.5,3.4,31.6,7.9,4.8,2.1,6.4,4.7,3.8,10.1-4.7,9.8-10,17.1-22.2,19S79.7,66.5,67.7,73.2c-4.4,2.5-6.4,1.6-7.3-3.1S57.7,59.5,58.3,55.1ZM57,90.2c1.5-1.6,3.6-3,5.2-.2s3.7,5.1-.2,6.7-7.5,4.2-12.3,3.3C50.9,95.5,54.3,93.1,57,90.2Zm-7.8,15.1c16.1-7,16.1-7.2,24.2,8.1a127.2,127.2,0,0,0,19,27.5c1.4,1.5,3.5,3.1,1.8,5.6a7,7,0,0,1-5.4,3.2c-12,1.2-41-18.3-44.3-30a24,24,0,0,1-.7-3.8C43.4,109.9,45,107.2,49.2,105.3ZM10.4,148.1c.2-16.6,6.8-27.3,19-34.6,1.8-1.1,4.6-3.7,5.7.6,4.6,19,20.1,26.2,35.7,33.3s14.6,6.3,2.9,17c-8.7,7.9-17.1,16.1-25.4,24.4-3.5,3.5-6.4,3.9-10.6,1C21.7,179.3,10.7,165.9,10.4,148.1Zm113.4,85.2c-7.1-.1-14.2,0-21.3,0-16.1.2-32.2-.1-47.9-4.6-5-1.4-9.9-3.1-14.1-6.3s-6.8-8.3-4.1-14.3,6.7-7.4,13.2-5.7c24.9,6.8,48.7,3.6,70.8-9.9,4.5-2.8,6.7-2.7,7,3.3.6,10.3,1.4,20.7,2.3,31C130.2,231.3,128.4,233.3,123.8,233.3Zm-2.4-76.6c12.7-3.7,25-7.2,36.4-13.9C153.4,160.4,135.1,167.5,121.4,156.7Zm35.3,5.6c11.1,1.8,21.7,5.1,32.4,8.5,3.6,1.1,7,2.4,10.6,3.7-15.4,1.2-30.2-1-44.7-4.6-1.9-.5-5.9.3-4.6-3.9S153.4,161.8,156.7,162.3Zm-10.6-.1c-.5,3.7-2.4,4.4-5.1,3.7-.5-.1-1.3-1.4-1.1-1.6C141.4,161.8,143.7,162.1,146.1,162.2Zm-6.8,8.8c-.7,2.2-2,3.9-3.9,4.1s-1.9-1.6-1.7-3,.5-3.4,2.8-3.3A3,3,0,0,1,139.3,171Zm-7.1,175.2c-.3-5-1.2-8.1,1.5-10.6a2.5,2.5,0,0,1,2,.6C137,339.7,134.3,341.8,132.2,346.2Zm6.3-42.1c8.4-3.2,18-.5,28.2,4.4-10.2,5-17.6,10.4-23,18.1-1.7,2.4-3.7,2.8-6.3,1.7s-3.9-2.8-3.3-5.6c.1-.3,0-.6.1-.8C136.8,316.1,132,306.6,138.5,304.1Zm89.1-113c3.4,4.4,2,9.3-1.7,13.4-5.7,6.2-13.1,9.9-20.7,13-19.4,7.9-39.8,11.4-60.4,14.2-6.2.8-9.6-.4-9.8-7.8-.3-10.6-1.7-21.2-2.5-29.9-.7-13.9,10.3-23.4,21.8-20.7,17.6,4.1,35.4,6.8,53.6,6.4C217,179.5,222.8,184.8,227.6,191.1Zm8.3-20.9c-10.9,4.9-21.6,7.3-33.7,1.8a173.5,173.5,0,0,0-40.7-12.1c-5.1-.9-5.9-2.3-3.4-6.8,4.9-8.8,9.3-17.6,17.5-24.2s14.5-16.3,17.8-27c1.5-5,4.6-7.3,9.6-8.7,31.3-8.7,55.7,9.7,55.6,42.3C258.7,152.1,250.7,163.5,235.9,170.2Z" transform="translate(-0.9 -2.6)" fill="none" stroke="#232323" stroke-miterlimit="10"/></svg>