<?xml version="1.0" encoding="utf-8"?>
<!-- Generator: Adobe Illustrator 20.1.0, SVG Export Plug-In . SVG Version: 6.00 Build 0)  -->
<svg version="1.1" id="Layer_1" xmlns="http://www.w3.org/2000/svg" xmlns:xlink="http://www.w3.org/1999/xlink" x="0px" y="0px"
	 viewBox="0 0 500 600" style="enable-background:new 0 0 500 600;" xml:space="preserve">
<style type="text/css">
	.st0{fill:#F8E8EC;}
</style>
<g>
	<g>
		<path class="st0" d="M329.5,525.6c19.2,0,35.8-14.5,37.9-34c1.4-12.6-2.2-25.1-10.1-35c-7.9-9.9-19.3-16.2-31.9-17.6
			c-71.1-7.9-110.2,40-138.8,74.9c-1.3,1.6-2.7,3.2-3.9,4.8l0.7,0.6c1.3-1.6,2.6-3.2,3.9-4.8c28.5-34.8,67.5-80.7,138.1-72.9
			c12.4,1.4,21.8,5.8,29.6,15.5c7.8,9.7,9.6,22,8.2,34.4c-2.3,20.4-17.3,35.2-37.7,33c-16.3-1.8-6.6-29.5-26.3-32.9
			c-0.2,0-0.7-0.2-0.9-0.1c-13.2,10.6,10.3,32,27.1,33.8C326.7,525.5,328.1,525.6,329.5,525.6L329.5,525.6z"/>
	</g>
	<g>
		<path class="st0" d="M178.9,598h0.9c0-123.4,53.3-231.8,100.3-327.5c38.5-78.3,71.7-145.8,64.1-201.4l-0.9,0.1
			c7.5,55.3-27.4,122.7-65.8,200.9C230.5,365.8,178.9,474.4,178.9,598L178.9,598z"/>
	</g>
	<path class="st0" d="M341.5,37.4c-6.5,6.5-1.8,11.9-3.1,19.2c-1.3,7.7,5.7,16.2,5.7,16.2s1.9-19.2,11.8-35.4
		C366.1,20.7,344.1,2,344.1,2S346.7,32.1,341.5,37.4z"/>
	<path class="st0" d="M321.3,102.7c-3.7,8.5,2.6,11.8,4.1,19c1.6,7.6,11.1,13,11.1,13s-5.2-18.6-1.8-37.2
		c3.5-19.2-23.8-28.7-23.8-28.7S324.2,95.9,321.3,102.7z"/>
	<path class="st0" d="M304.3,174c-2.6,5.9,1.8,8.3,2.9,13.3c1.1,5.4,7.8,9.1,7.8,9.1s-3.6-13-1.2-26.1c2.4-13.5-16.7-20.1-16.7-20.1
		S306.4,169.2,304.3,174z"/>
	<path class="st0" d="M262.8,255.9c-2.5,5.6,1.7,7.9,2.7,12.7c1,5.1,7.4,8.7,7.4,8.7s-3.4-12.4-1.2-24.9
		c2.3-12.8-15.9-19.2-15.9-19.2S264.8,251.4,262.8,255.9z"/>
	<path class="st0" d="M235.3,312.2c-2.5,5.6,1.7,7.9,2.7,12.7c1,5.1,7.4,8.7,7.4,8.7s-3.5-12.4-1.2-24.9
		c2.3-12.8-15.9-19.2-15.9-19.2S237.3,307.6,235.3,312.2z"/>
	<path class="st0" d="M212.9,366.3c-2.5,5.6,1.7,7.9,2.7,12.7c1,5.1,7.4,8.7,7.4,8.7s-3.4-12.4-1.2-24.9
		c2.3-12.8-15.9-19.2-15.9-19.2S214.9,361.7,212.9,366.3z"/>
	<path class="st0" d="M172.4,488.6c-3.7,8.3,2.6,11.5,4,18.6c1.5,7.5,10.9,12.8,10.9,12.8s-5.1-18.2-1.7-36.5
		c3.4-18.8-23.3-28.2-23.3-28.2S175.3,481.9,172.4,488.6z"/>
	<path class="st0" d="M246.6,370c-0.5,6.2-5.2,6.1-8.4,9.9c-3.3,4-10.6,4.2-10.6,4.2s8.9-9.3,12.8-21.4c4-12.4,23-9.4,23-9.4
		S246.9,365.1,246.6,370z"/>
	<path class="st0" d="M225.5,455.3c-0.7,9.3-7.9,9.3-12.7,15c-5,6.1-16.1,6.3-16.1,6.3s13.5-14.1,19.3-32.4
		c6-18.8,34.9-14.3,34.9-14.3S226,447.8,225.5,455.3z"/>
	<path class="st0" d="M260.7,467.3c-5.1,7.9-11.4,4.4-18.4,7.1c-7.3,2.9-17.2-2.2-17.2-2.2s18.6-6,32.5-19.2
		c14.3-13.7,37.5,4.1,37.5,4.1S264.8,461,260.7,467.3z"/>
	<path class="st0" d="M294.2,266.9c-0.5,6.2-5.2,6.1-8.4,9.9c-3.3,4-10.6,4.2-10.6,4.2s8.9-9.3,12.8-21.4c4-12.4,23-9.4,23-9.4
		S294.5,261.9,294.2,266.9z"/>
	<path class="st0" d="M355.5,124.1c-0.5,6.2-5.2,6.1-8.4,9.9c-3.3,4-10.6,4.2-10.6,4.2s8.9-9.3,12.8-21.4c4-12.4,23-9.4,23-9.4
		S355.9,119.2,355.5,124.1z"/>
	<path class="st0" d="M328,194c-0.5,6.2-5.2,6.1-8.4,9.9c-3.3,4-10.6,4.2-10.6,4.2s8.9-9.3,12.8-21.4c4-12.4,23-9.4,23-9.4
		S328.4,189,328,194z"/>
	<path class="st0" d="M273.3,327.4c-2.7,5.6-7.1,3.8-11.4,6.2c-4.5,2.5-11.4,0-11.4,0s11.7-5.5,19.6-15.3
		c8.2-10.1,24.9-0.5,24.9-0.5S275.4,323,273.3,327.4z"/>
	<g>
		<g>
			<path class="st0" d="M178.3,595.8l-0.5,0.1c-16.1-69.6-60.4-123.9-99.4-171.7C46.5,385,18.9,351.2,15.9,318.9l0.5,0
				c3,32.2,31.5,65.7,63.4,104.8C118.8,471.5,162.1,526,178.3,595.8L178.3,595.8z"/>
		</g>
		<path class="st0" d="M13.3,300.6c4.5,2.8,2.6,6.5,4.2,10.4c1.7,4.2-1.1,9.9-1.1,9.9s-3.6-10.6-11.3-18.4c-7.9-8.1,2-21.5,2-21.5
			S9.6,298.3,13.3,300.6z"/>
		<path class="st0" d="M33.2,334.8c3.2,4.3,0.1,7,0.2,11.3c0.1,4.5-4.6,8.8-4.6,8.8s0.5-11.2-3.9-21.2c-4.5-10.4,9.7-19.3,9.7-19.3
			S30.6,331.4,33.2,334.8z"/>
		<path class="st0" d="M52.1,372.9c2.3,3,0,4.9,0.1,7.9c0.1,3.2-3.2,6.2-3.2,6.2s0.3-7.8-2.7-14.9c-3.1-7.3,6.8-13.5,6.8-13.5
			S50.3,370.4,52.1,372.9z"/>
		<path class="st0" d="M86.2,413.7c2.1,2.9,0,4.7,0.1,7.5c0.1,3-3.1,5.9-3.1,5.9s0.3-7.5-2.6-14.2c-3-6.9,6.4-12.9,6.4-12.9
			S84.5,411.4,86.2,413.7z"/>
		<path class="st0" d="M109.1,441.8c2.1,2.9,0.1,4.7,0.1,7.5c0.1,3-3.1,5.9-3.1,5.9s0.3-7.5-2.6-14.2c-3-6.9,6.4-12.9,6.4-12.9
			S107.4,439.5,109.1,441.8z"/>
		<path class="st0" d="M128.8,469.4c2.1,2.9,0,4.7,0.1,7.5c0.1,3-3.1,5.9-3.1,5.9s0.3-7.5-2.6-14.2c-3-6.9,6.5-12.9,6.5-12.9
			S127.1,467.1,128.8,469.4z"/>
		<path class="st0" d="M167.7,533.2c3.2,4.2,0.1,6.9,0.2,11.1c0.1,4.4-4.5,8.6-4.5,8.6s0.5-11-3.8-20.8c-4.4-10.2,9.5-18.9,9.5-18.9
			S165.1,529.8,167.7,533.2z"/>
		<path class="st0" d="M110.3,476c1.1,3.4,3.8,2.8,6,4.5c2.4,1.8,6.6,1,6.6,1s-6.2-4.1-10-10.4c-3.9-6.5-14.2-2.3-14.2-2.3
			S109.4,473.2,110.3,476z"/>
		<path class="st0" d="M133.3,521.3c1.6,5.2,5.7,4.2,9.1,6.8c3.6,2.8,9.9,1.5,9.9,1.5s-9.5-6.2-15.2-15.8
			c-5.9-9.8-21.6-3.5-21.6-3.5S132.1,517.2,133.3,521.3z"/>
		<path class="st0" d="M70,424c1.1,3.4,3.8,2.8,6,4.5c2.4,1.8,6.6,1,6.6,1s-6.2-4.1-10-10.4c-3.9-6.5-14.2-2.3-14.2-2.3
			S69.1,421.2,70,424z"/>
		<path class="st0" d="M16.7,351.4c1.1,3.4,3.8,2.8,6,4.5c2.4,1.8,6.6,1,6.6,1s-6.2-4.1-10-10.4C15.4,340,5,344.2,5,344.2
			S15.8,348.7,16.7,351.4z"/>
		<path class="st0" d="M41.3,387.2c1.1,3.4,3.8,2.8,6,4.5c2.4,1.8,6.5,1,6.5,1s-6.2-4.1-10-10.4c-3.9-6.5-14.2-2.3-14.2-2.3
			S40.5,384.5,41.3,387.2z"/>
		<path class="st0" d="M89.6,455.4c2.2,2.8,4.5,1.2,7.3,2c2.9,0.8,6.5-1.5,6.5-1.5s-7.3-1.6-13.1-6.1c-6-4.7-14.1,3-14.1,3
			S87.9,453.2,89.6,455.4z"/>
	</g>
	<g>
		<path class="st0" d="M223.1,424.7c36.1-20.2,68.9-44.2,99.5-66.8c48.9-35.9,91.1-67,130.1-68.6l0,0.6
			c-38.8,1.6-80.7,33.8-129.5,69.7c-30.7,22.6-63.5,46.3-99.6,66.2C223.4,425.4,223.3,425.1,223.1,424.7z"/>
		<path class="st0" d="M474.8,287.3c-3.7,5.3-7.9,2.7-12.8,4.4c-5.1,1.8-11.8-1.9-11.8-1.9s12.9-3.7,22.8-12.4
			c10.2-9,25.7,3.7,25.7,3.7S477.7,283,474.8,287.3z"/>
		<path class="st0" d="M432.5,309.1c-5.3,3.6-8.4-0.3-13.5-0.5c-5.4-0.1-10.3-6-10.3-6s13.4,1.3,25.7-3.3
			C447.2,294.5,457,312,457,312S436.8,306.2,432.5,309.1z"/>
		<path class="st0" d="M385.8,329.5c-3.7,2.5-5.9-0.2-9.5-0.3c-3.8-0.1-7.2-4.2-7.2-4.2s9.4,0.9,18-2.3c8.9-3.3,15.8,8.9,15.8,8.9
			S388.8,327.5,385.8,329.5z"/>
		<path class="st0" d="M334.7,368c-3.6,2.4-5.6-0.2-9-0.3c-3.6-0.1-6.9-4-6.9-4s8.9,0.8,17.2-2.2c8.5-3.2,15.1,8.5,15.1,8.5
			S337.6,366.1,334.7,368z"/>
		<path class="st0" d="M299.6,393.7c-3.6,2.4-5.6-0.2-9-0.3c-3.6-0.1-6.9-4-6.9-4s8.9,0.8,17.2-2.2c8.5-3.2,15.1,8.5,15.1,8.5
			S302.4,391.8,299.6,393.7z"/>
		<path class="st0" d="M265.3,415.7c-3.6,2.4-5.6-0.2-9-0.3c-3.6-0.1-6.9-4-6.9-4s8.9,0.8,17.2-2.2c8.5-3.2,15.1,8.5,15.1,8.5
			S268.1,413.8,265.3,415.7z"/>
		<path class="st0" d="M258.6,393.1c-4.2,1.1-3.5,4.3-5.8,7c-2.3,2.8-1.5,7.8-1.5,7.8s5.3-7.2,13.1-11.4c8-4.3,3.6-16.9,3.6-16.9
			S261.9,392.2,258.6,393.1z"/>
		<path class="st0" d="M323.4,347.8c-4.2,1.1-3.6,4.3-5.8,7c-2.3,2.8-1.5,7.8-1.5,7.8s5.3-7.2,13.1-11.4c8-4.3,3.6-16.9,3.6-16.9
			S326.7,347,323.4,347.8z"/>
		<path class="st0" d="M413.6,288.3c-4.2,1.1-3.5,4.3-5.8,7c-2.3,2.8-1.5,7.8-1.5,7.8s5.3-7.2,13.1-11.4c8-4.3,3.6-16.9,3.6-16.9
			S416.9,287.4,413.6,288.3z"/>
		<path class="st0" d="M369.1,315.7c-4.2,1.1-3.5,4.3-5.8,7c-2.3,2.8-1.5,7.8-1.5,7.8s5.3-7.2,13.1-11.4c8-4.3,3.6-16.9,3.6-16.9
			S372.5,314.9,369.1,315.7z"/>
		<path class="st0" d="M284.4,369.5c-3.5,2.5-1.7,5.3-2.9,8.6c-1.2,3.4,1.4,7.8,1.4,7.8s2.3-8.7,8.1-15.3c5.9-6.9-2.7-17.1-2.7-17.1
			S287.2,367.5,284.4,369.5z"/>
	</g>
	<g>
		<path class="st0" d="M180.7,594.8l-1.3-1.1c77.3-90.9,44.8-174,16.2-247.4c-22.8-58.4-44.4-113.6-6.5-163.2
			c33-43.2,95-51.4,138.1-18.4c16.8,12.8,27.5,31.4,30.3,52.3c2.8,20.9-2.7,41.7-15.6,58.4c-10.3,13.4-25.2,23.8-42,26.1
			c-16.8,2.2-42.9,2.2-46.9-14.2c-0.1-0.4,0.6-1.3,1.1-1.4c16.3-2.2,29.3,12.6,45.6,10.4c16.3-2.2,30.8-8.8,40.8-21.9
			c12.5-16.4,17.9-36.7,15.2-57.1c-2.7-20.5-13.3-38.6-29.6-51.2c-42.4-32.4-103.2-24.3-135.7,18.1
			c-37.3,48.8-12.4,103.5,10.2,161.5C229.5,419.4,258.7,503.1,180.7,594.8L180.7,594.8z"/>
	</g>
	<g>
		<path class="st0" d="M193.7,476.7l0.7-0.5c-38.9-59.5-43.1-121.3-46.1-166.5c-2.3-34.1-4-58.7-18.6-68.3
			c-18-11.8-42.2-6.8-54,11.2c-9.5,14.4-5.4,33.8,9,43.3c5.6,3.7,12.3,5,18.9,3.6c6.6-1.4,12.2-5.2,15.9-10.8c3-4.5,4-9.9,2.9-15.2
			c-1.1-5.3-4.2-9.8-8.7-12.8c-7.5-4.9-24.3-4.1-22.5,4.7c0,0.2,0.5,0.5,0.7,0.5c8.3-1.7,14.2-9,21.2-4.4c4.3,2.8,7.3,7.2,8.3,12.2
			c1,5,0.1,10.2-2.8,14.5c-3.5,5.4-9,9.1-15.3,10.4c-0.1,0-0.3,0.1-0.4,0.1c-6.2,1.2-12.5-0.1-17.8-3.5c-14-9.2-17.9-28.1-8.7-42.1
			c11.5-17.6,35.2-22.5,52.7-10.9c14.3,9.4,15.9,33.8,18.2,67.7C150.4,355,154.6,417,193.7,476.7L193.7,476.7z"/>
	</g>
	<g>
		<path class="st0" d="M164.4,240.3c13.4-2.6,22.2-15.5,19.7-28.9c-3.2-16.7-19.3-27.7-36-24.5c-20.8,4-34.5,24.1-30.5,44.9l0.9-0.2
			c-3.9-20.3,9.5-40,29.8-43.9c16.2-3.1,31.9,7.6,35,23.8c2.5,12.9-6,25.4-18.9,27.9c-10.3,2-20.2-4.8-22.2-15.1
			c-1.6-8.2,7.3-10.8,12-17.6c0.1-0.2,0-0.8-0.2-0.9c-7.3-5-14.4,10-12.7,18.7C143.2,235.3,153.6,242.4,164.4,240.3L164.4,240.3z"/>
	</g>
	<g>
		<path class="st0" d="M355.9,237.5c-7.2-31.1,22.7-44.9,54.4-59.4c29.5-13.5,59.9-27.5,59.2-56.7c-0.2-7.7-3.4-14.9-9-20.3
			c-5.6-5.3-13-8.2-20.7-8c-6.2,0.1-11.9,2.7-16.2,7.2c-4.3,4.5-6.5,10.3-6.4,16.5c0.3,10.2,8.7,18.2,18.9,18
			c3.9-0.1,7.6-1.7,10.3-4.6c2.7-2.8,4.1-6.6,4-10.5c-0.1-3.1-1.4-6-3.6-8.2c-2.3-2.2-6.1-1.1-8.4-3.2c-0.1-0.1-0.1-0.5,0-0.6
			c2.3-2.4,6.4,1.1,8.8,3.4c2.4,2.3,3.7,5.3,3.8,8.6c0.1,4.1-1.4,8-4.2,10.9c-2.8,3-6.6,4.6-10.7,4.7c-10.5,0.3-19.2-8.1-19.5-18.6
			c-0.2-6.3,2.2-12.4,6.5-17c4.4-4.6,10.3-7.2,16.6-7.4c7.9-0.2,15.4,2.7,21.1,8.2c5.7,5.4,9,12.8,9.2,20.7
			c0.7,29.6-29.9,43.7-59.6,57.3c-31.5,14.4-61.2,28.1-54.1,58.7L355.9,237.5L355.9,237.5z"/>
	</g>
	<g>
		<path class="st0" d="M356.1,237.7c-4.3-18.7,13.6-27,32.7-35.7c17.7-8.1,36-16.5,35.6-34.1c-0.1-4.6-2-9-5.4-12.2
			c-3.4-3.2-7.8-4.9-12.4-4.8c-3.7,0.1-7.2,1.6-9.7,4.3c-2.6,2.7-3.9,6.2-3.8,9.9c0.2,6.1,5.2,11,11.3,10.8c2.4-0.1,4.6-1,6.2-2.7
			c1.6-1.7,2.5-3.9,2.4-6.3c0-1.9-0.8-3.6-2.2-4.9c-1.4-1.3-3.7-0.6-5-1.9c-0.1-0.1-0.1-0.3,0-0.4c1.4-1.4,3.8,0.7,5.3,2
			c1.4,1.4,2.2,3.2,2.3,5.2c0.1,2.5-0.8,4.8-2.5,6.6c-1.7,1.8-4,2.8-6.4,2.9c-6.3,0.2-11.6-4.9-11.7-11.2c-0.1-3.8,1.3-7.4,3.9-10.2
			c2.6-2.8,6.2-4.3,10-4.4c4.7-0.1,9.3,1.6,12.7,4.9c3.4,3.3,5.4,7.7,5.5,12.4c0.4,17.8-18,26.2-35.8,34.4
			c-18.9,8.7-36.8,16.9-32.5,35.3L356.1,237.7L356.1,237.7z"/>
	</g>
	<g>
		<path class="st0" d="M168.7,428.2c-15.7-11.1-7.7-29.2,0.8-48.4c7.8-17.8,16-36.3,4-49.1c-3.2-3.4-7.5-5.4-12.1-5.5
			c-4.6-0.2-9.1,1.5-12.5,4.7c-2.7,2.5-4.3,6-4.4,9.7c-0.1,3.7,1.2,7.2,3.7,10c4.2,4.5,11.2,4.7,15.7,0.6c1.7-1.6,2.7-3.8,2.8-6.1
			c0.1-2.4-0.8-4.6-2.4-6.3c-1.3-1.4-3-2.2-4.9-2.2c-1.9-0.1-3.2,1.9-5,1.9c-0.1,0-0.3-0.2-0.2-0.3c0.1-2,3.3-2,5.3-2
			c2,0.1,3.8,0.9,5.1,2.3c1.7,1.8,2.5,4.1,2.5,6.6c-0.1,2.5-1.1,4.7-2.9,6.4c-4.6,4.3-11.9,4.1-16.2-0.6c-2.6-2.8-4-6.4-3.8-10.2
			c0.1-3.8,1.7-7.3,4.5-9.9c3.5-3.2,8-4.9,12.7-4.8c4.7,0.2,9.1,2.2,12.4,5.7c12.1,13,4,31.5-3.9,49.5c-8.4,19-16.3,37-0.9,48
			L168.7,428.2L168.7,428.2z"/>
	</g>
	<g>
		<path class="st0" d="M117.5,233.4c-15.7-11.1-7.7-29.2,0.8-48.4c7.8-17.8,16-36.3,4-49.1c-3.2-3.4-7.5-5.4-12.1-5.5
			c-4.6-0.2-9.1,1.5-12.5,4.7c-2.7,2.5-4.3,6-4.4,9.7c-0.1,3.7,1.2,7.3,3.7,10c4.2,4.5,11.2,4.7,15.7,0.6c1.7-1.6,2.7-3.8,2.8-6.1
			c0.1-2.4-0.8-4.6-2.4-6.3c-1.3-1.4-3-2.2-4.9-2.2c-1.9-0.1-3.2,1.9-5,1.9c-0.1,0-0.3-0.2-0.2-0.3c0.1-2,3.3-2,5.3-2
			c2,0.1,3.8,0.9,5.1,2.3c1.7,1.8,2.5,4.1,2.5,6.6c-0.1,2.5-1.1,4.7-2.9,6.4c-4.6,4.3-11.9,4-16.2-0.6c-2.6-2.8-4-6.4-3.8-10.2
			c0.1-3.8,1.7-7.3,4.5-9.9c3.5-3.2,8-4.9,12.7-4.8c4.7,0.2,9.1,2.2,12.4,5.7c12.1,13,4,31.6-3.9,49.5c-8.4,19-16.3,37-0.9,48
			L117.5,233.4L117.5,233.4z"/>
	</g>
	<g>
		<path class="st0" d="M110.4,231.3c4.4-18.7-13.6-27-32.6-35.7c-17.7-8.2-36-16.6-35.5-34.1c0.1-4.7,2-9,5.4-12.2
			c3.4-3.2,7.8-4.9,12.4-4.8c3.7,0.1,7.2,1.6,9.7,4.3c2.6,2.7,3.9,6.2,3.8,9.9c-0.2,6.1-5.2,11-11.4,10.8c-2.4-0.1-4.6-1-6.2-2.7
			c-1.6-1.7-2.5-4-2.4-6.3c0-1.9,0.8-3.6,2.2-4.9c1.4-1.3,3.7-0.6,5-1.9c0.1-0.1,0.1-0.3,0-0.4c-1.4-1.4-3.9,0.7-5.3,2
			c-1.4,1.4-2.2,3.2-2.3,5.2c-0.1,2.5,0.8,4.8,2.5,6.6c1.7,1.8,4,2.8,6.4,2.9c6.3,0.2,11.6-4.8,11.7-11.1c0.1-3.8-1.3-7.4-3.9-10.2
			c-2.6-2.8-6.2-4.3-10-4.4c-4.7-0.1-9.3,1.6-12.7,4.9c-3.4,3.3-5.4,7.7-5.5,12.4c-0.5,17.8,17.9,26.3,35.7,34.5
			c18.9,8.7,36.7,16.9,32.4,35.3L110.4,231.3L110.4,231.3z"/>
	</g>
</g>
</svg>
