<svg id="Layer_1" data-name="Layer 1" xmlns="http://www.w3.org/2000/svg" viewBox="0 0 361.7 524.1"><title>pink_subpattern</title><path d="M122.8,527.4l-.7-.6c66.1-78.4,36-126.1,6.8-172.3-15.5-24.6-30.2-47.8-28.6-74.2a62.9,62.9,0,0,1,66.7-59,49.8,49.8,0,0,1,34.7,16.9,50.4,50.4,0,0,1,12.6,36.5h-.9a49.6,49.6,0,0,0-46.5-52.5,62.1,62.1,0,0,0-65.7,58.2c-1.6,26.1,13,49.2,28.5,73.7,14.4,22.7,29.2,46.3,32.3,74.1,3.4,31.6-9.4,64.1-39.2,99.3Z" transform="translate(0.5 -4)" fill="none" stroke="#f8e4e8" stroke-miterlimit="10"/><path d="M103.7,310.8c-7.9-45.5-2.5-80,16.4-105.5,16.7-22.5,41.4-35.3,65.3-47.7,25.7-13.3,50-25.9,61.8-49.2A62.1,62.1,0,0,0,219.9,25a49.6,49.6,0,0,0-66.6,21.8l-.8-.4a50.5,50.5,0,0,1,67.8-22.2A63,63,0,0,1,248,108.9c-12,23.6-36.4,36.2-62.2,49.6-48.5,25.1-98.7,51.1-81.2,152.2Z" transform="translate(0.5 -4)" fill="none" stroke="#f8e4e8" stroke-miterlimit="10"/><path d="M244.7,438c.1-.2-.4-.6-.3-.8,7.7-18.2,27.1-28.4,19.6-46.7a44.9,44.9,0,0,0-58.5-24.6c-12.9,5.3-43,22.6-43,69.6h-.9c0-33,16.3-59.3,43.6-70.4a45.8,45.8,0,0,1,59.7,25.1c7.6,18.7-24.1,28-20.2,47.8Z" transform="translate(0.5 -4)" fill="none" stroke="#f8e4e8" stroke-miterlimit="10"/><path d="M157.7,408.4h-.9c0-48.5,30.9-87.9,68.9-87.9v.9c-37.5,0-68,39-68,87Z" transform="translate(0.5 -4)" fill="none" stroke="#f8e4e8" stroke-miterlimit="10"/><path d="M242.9,116.9V116c46.9,0,82.9-14.6,107.2-43.5a41.1,41.1,0,0,0-5-57.9A33,33,0,0,0,321.2,7c-8.7.8-13.5,10.8-22.3,11.6-.2,0-.7-.4-.7-.6-1.6-18.5,33.2-16.1,47.5-4.1a41.2,41.2,0,0,1,14.8,28.5,41.8,41.8,0,0,1-9.7,30.7c-24.5,29.1-60.8,43.8-107.9,43.8Z" transform="translate(0.5 -4)" fill="none" stroke="#f8e4e8" stroke-miterlimit="10"/><path d="M245.5,187.5a29.7,29.7,0,0,1-4.2-.3,25.4,25.4,0,0,1-21.8-28.4,20.3,20.3,0,0,1,22.8-17.5,16.4,16.4,0,0,1,14,18.4c-1,7.2-10.4,17.1-14.8,11.3-.1-.2-.1-.8.1-.9,2.6-2,6.5-.4,9.1-2.4a12.1,12.1,0,0,0,4.7-8.1,15.5,15.5,0,0,0-3-11.4,15,15,0,0,0-10.2-5.9,19.7,19.7,0,0,0-14.4,3.8,19,19,0,0,0-7.4,12.9,24.4,24.4,0,0,0,21,27.4,30.5,30.5,0,0,0,22.6-6,30.2,30.2,0,0,0,11.7-20.3,38.4,38.4,0,0,0-33-43.1v-.9a39.4,39.4,0,0,1,33.8,44.1,31.3,31.3,0,0,1-31.1,27.3Z" transform="translate(0.5 -4)" fill="none" stroke="#f8e4e8" stroke-miterlimit="10"/><path d="M101.1,273.8h-.9c0-42.7-10.8-67.5-20.4-89.4-8.6-19.7-16-36.7-11.1-60.8l.2-1.8a31,31,0,0,1,31-30.9,25,25,0,0,1,24.9,24.9,20.1,20.1,0,0,1-20,20,16.1,16.1,0,0,1-16.1-16.1,13,13,0,0,1,13-13c5.8,0,14.5,6.4,10.5,10.5a.8.8,0,0,1-.9,0c-3.7-3.7-4.3-9.6-9.6-9.6a12.1,12.1,0,0,0-12.1,12.1,15.2,15.2,0,0,0,15.2,15.2,19.2,19.2,0,0,0,19.1-19.1,24.1,24.1,0,0,0-24-24,30.1,30.1,0,0,0-30.1,30.1l-.2,1.9c-4.9,23.9,2.1,40,11,60.3s20.5,46.8,20.5,89.7Z" transform="translate(0.5 -4)" fill="none" stroke="#f8e4e8" stroke-miterlimit="10"/><path d="M29.6,126.2l-2.9-.2a23,23,0,0,1-15.1-9.2A23.4,23.4,0,0,1,7.4,99.6,29.1,29.1,0,0,1,18.9,80.7a28.8,28.8,0,0,1,21.5-5.2A36.1,36.1,0,0,1,63.9,89.8a35.5,35.5,0,0,1,6.5,26.7h-.9A35.1,35.1,0,0,0,40.3,76.3,27.8,27.8,0,0,0,8.4,99.6a22.3,22.3,0,0,0,4,16.6,22.6,22.6,0,0,0,14.5,8.9c9.7,1.5,12.3-9,20.2-14.8a1.3,1.3,0,0,1,.9.1c5.5,7.5-9.4,15.8-18.4,15.8Z" transform="translate(0.5 -4)" fill="none" stroke="#f8e4e8" stroke-miterlimit="10"/><path d="M62.4,319.8c-16,0-31-3.9-42.6-11.6S0,287.5,0,273.9H.9c0,13.3,6.9,25.2,19.4,33.5,21.2,14.1,54.1,15.3,83.7,3l.3.8a110.6,110.6,0,0,1-41.9,8.6Z" transform="translate(0.5 -4)" fill="none" stroke="#f8e4e8" stroke-miterlimit="10"/><path d="M146,384.5l-1.4.6c-1.6-3.8-5.7-5.6-9.5-7.1s-6.9-.4-10.6,1.2-4.2,2.5-5.4,5.5-1.2,4.1.1,7.1c2.1,4.8,7.2,9.6,12.1,7.6h0a11.1,11.1,0,0,1-14.6-5.9,13.8,13.8,0,0,1,7.2-18,16.9,16.9,0,0,1,22.1,9Z" transform="translate(0.5 -4)" fill="none" stroke="#f8e4e8" stroke-miterlimit="10"/><path d="M157.5,470.1l1.5-.5c-1.4-3.8.3-8,2-11.7s4.7-5,8.5-6.5,4.8-1.1,7.7.3,3.7,2.1,4.8,5.2c1.9,4.9,1.4,12-3.5,13.8h0a11.1,11.1,0,0,0,6.5-14.3,13.9,13.9,0,0,0-7.2-7.7,14.1,14.1,0,0,0-10.5-.4,17,17,0,0,0-9.8,21.8Z" transform="translate(0.5 -4)" fill="none" stroke="#f8e4e8" stroke-miterlimit="10"/><path d="M155.2,477.4l.9-.3c-.9-2.3.2-4.7,1.2-6.9s2.8-3,5.1-3.8a5,5,0,0,1,4.6.2,4.5,4.5,0,0,1,2.9,3.1c1.1,2.9.9,7.1-2.1,8.2h0a6.7,6.7,0,0,0,3.9-8.5,8.4,8.4,0,0,0-4.2-4.5,7.9,7.9,0,0,0-6.2-.2,9.7,9.7,0,0,0-6.1,12.7Z" transform="translate(0.5 -4)" fill="none" stroke="#f8e4e8" stroke-miterlimit="10"/><path d="M140.6,370.7H140c-9.9-47.3,6-90.7,35.3-96.8,0,0,.9-.6,0,1.3-13,26.6-44.5,48.4-34.7,95.4Z" transform="translate(0.5 -4)" fill="none" stroke="#f8e4e8" stroke-miterlimit="10"/><path d="M248.2,117.4l.2-.5c44.6,18.4,71.6,56,60.2,83.7,0,0,0,1.1-1.1-.7-14.7-25.8-15-64.1-59.3-82.5Z" transform="translate(0.5 -4)" fill="none" stroke="#f8e4e8" stroke-miterlimit="10"/><path d="M254.6,118.4l-.3.5c39.5,27.8,85.7,30.4,102.9,5.9,0,0,.9-.6-1.2-.5-29.6,1.4-62.1,21.7-101.4-5.9Z" transform="translate(0.5 -4)" fill="none" stroke="#f8e4e8" stroke-miterlimit="10"/><path d="M102.9,302.7h.4c-7.6-31-29.5-52.3-48.7-47.6,0,0-.7-.1.4.8,15.3,12.1,40.3,16.1,47.9,46.9Z" transform="translate(0.5 -4)" fill="none" stroke="#f8e4e8" stroke-miterlimit="10"/><path d="M125.2,200.1h-.4c7.6-31,29.5-52.3,48.7-47.6,0,0,.7-.1-.4.8-15.4,12.1-40.4,16.1-47.9,46.9Z" transform="translate(0.5 -4)" fill="none" stroke="#f8e4e8" stroke-miterlimit="10"/><path d="M243.4,115.1h.4c-7.6-31-29.5-52.3-48.7-47.6,0,0-.7-.1.4.8,15.3,12.1,40.3,16.1,47.9,46.9Z" transform="translate(0.5 -4)" fill="none" stroke="#f8e4e8" stroke-miterlimit="10"/><path d="M242.5,42.4h-1v-.9a15.2,15.2,0,0,0,16.1-14.3,12.1,12.1,0,0,0-11.4-12.8,9.5,9.5,0,0,0-10.1,9,7.5,7.5,0,0,0,7.1,8v.9a8.5,8.5,0,0,1-8-9,10.5,10.5,0,0,1,11.1-9.9,13,13,0,0,1,12.2,13.8,16,16,0,0,1-16,15.2Z" transform="translate(0.5 -4)" fill="none" stroke="#f8e4e8" stroke-miterlimit="10"/><path d="M150.2,40.3s1.2-5,.2-8.8-2.9-6.6-4.3-6.3-1.6,3.7-.6,7.6S150.2,40.3,150.2,40.3Z" transform="translate(0.5 -4)" fill="none" stroke="#f8e4e8" stroke-miterlimit="10"/><path d="M135.2,46.3c3.8,1,8.9-.3,8.9-.3s-3.7-3.5-7.6-4.6-7.2-.8-7.6.5S131.3,45.2,135.2,46.3Z" transform="translate(0.5 -4)" fill="none" stroke="#f8e4e8" stroke-miterlimit="10"/><path d="M138.1,58.4c-2.8,2.8-4.3,5.8-3.3,6.8s4-.5,6.8-3.3,4.2-7.8,4.2-7.8S140.9,55.6,138.1,58.4Z" transform="translate(0.5 -4)" fill="none" stroke="#f8e4e8" stroke-miterlimit="10"/><path d="M153.8,56.7s-1.2,5-.2,8.8,2.9,6.6,4.3,6.3,1.6-3.7.6-7.6S153.8,56.7,153.8,56.7Z" transform="translate(0.5 -4)" fill="none" stroke="#f8e4e8" stroke-miterlimit="10"/><path d="M168.9,50.7c-3.8-1-8.9.3-8.9.3s3.7,3.5,7.6,4.6,7.2.8,7.6-.5S172.7,51.8,168.9,50.7Z" transform="translate(0.5 -4)" fill="none" stroke="#f8e4e8" stroke-miterlimit="10"/><path d="M179.2,42.4c-5.4-5.6-17.1-3.3-26.2,5.3,8.6-8.2,11.7-19,7.1-24.8l.3-.6c.2-.5,0-.4,0-.4-7.6,1.8-11.4,13.2-8.6,25.4-2.8-11.6-10.6-19.7-17.9-18.6l-.3-.5c-.3-.5-.3-.2-.3-.2-2.2,7.5,5.7,16.4,17.7,20.1-11.4-3.4-22.3-.7-25.1,6.2h-.6c-.6.1-.3.2-.3.2,5.4,5.6,17.1,3.3,26.2-5.3-8.6,8.2-11.7,19-7.1,24.8l-.3.5c-.2.5,0,.4,0,.4,7.6-1.8,11.4-13.2,8.6-25.3,2.8,11.6,10.6,19.7,17.9,18.6l.3.5c.3.5.3.2.3.2,2.2-7.5-5.7-16.4-17.7-20.1,11.4,3.4,22.3.7,25.1-6.2h.6C179.4,42.5,179.2,42.4,179.2,42.4ZM159.3,24.2c-.8,7.4,1.4,16.2-7.3,24.1,0-.2-.1-.4-.1-.6h.2C149.3,36.6,155.7,30.6,159.3,24.2Zm-24.6,5.9c6,4.4,14.8,6.9,17.2,18.4l-.6-.2v-.2C140.3,44.9,138.4,36.4,134.7,30.1Zm16.7,18.8c-8.3,7.9-16.7,5.4-24,5.4,6.8-3,13.4-9.3,24.5-5.7l-.4.4Zm-6.7,23.9c.8-7.4-1.4-16.2,7.3-24.1,0,.2.1.4.1.6h-.2C154.8,60.4,148.3,66.4,144.7,72.8ZM169.4,67c-6-4.4-14.8-6.9-17.2-18.4l.5.2V49C163.7,52.1,165.7,60.7,169.4,67ZM152.2,48.4l.4-.4h.1c8.3-7.9,16.7-5.4,24-5.4C169.9,45.7,163.3,52,152.2,48.4Z" transform="translate(0.5 -4)" fill="none" stroke="#f8e4e8" stroke-miterlimit="10"/><path d="M165.9,38.6c2.8-2.8,4.3-5.8,3.3-6.8s-4,.5-6.8,3.3-4.2,7.8-4.2,7.8S163.1,41.4,165.9,38.6Z" transform="translate(0.5 -4)" fill="none" stroke="#f8e4e8" stroke-miterlimit="10"/><path d="M211.9,267s1.2-5,.2-8.8-2.9-6.6-4.3-6.3-1.6,3.7-.6,7.6S211.9,267,211.9,267Z" transform="translate(0.5 -4)" fill="none" stroke="#f8e4e8" stroke-miterlimit="10"/><path d="M196.9,273c3.8,1,8.9-.3,8.9-.3s-3.7-3.5-7.6-4.6-7.2-.8-7.6.5S193,272,196.9,273Z" transform="translate(0.5 -4)" fill="none" stroke="#f8e4e8" stroke-miterlimit="10"/><path d="M199.8,285.1c-2.8,2.8-4.3,5.8-3.3,6.8s4-.5,6.8-3.3,4.2-7.8,4.2-7.8S202.6,282.4,199.8,285.1Z" transform="translate(0.5 -4)" fill="none" stroke="#f8e4e8" stroke-miterlimit="10"/><path d="M215.5,283.4s-1.2,5-.2,8.8,2.9,6.6,4.3,6.3,1.6-3.7.6-7.6S215.5,283.4,215.5,283.4Z" transform="translate(0.5 -4)" fill="none" stroke="#f8e4e8" stroke-miterlimit="10"/><path d="M230.6,277.4c-3.8-1-8.9.3-8.9.3s3.7,3.5,7.6,4.6,7.2.8,7.6-.5S234.4,278.5,230.6,277.4Z" transform="translate(0.5 -4)" fill="none" stroke="#f8e4e8" stroke-miterlimit="10"/><path d="M240.9,269.1c-5.4-5.6-17.1-3.3-26.2,5.3,8.6-8.2,11.7-19,7.1-24.8l.3-.5c.2-.5,0-.4,0-.4-7.6,1.8-11.4,13.2-8.6,25.4-2.8-11.6-10.6-19.7-17.9-18.6l-.3-.5c-.3-.5-.3-.2-.3-.2-2.2,7.5,5.7,16.4,17.7,20.1-11.4-3.4-22.3-.7-25.1,6.2H187c-.6.1-.3.2-.3.2,5.4,5.6,17.1,3.3,26.2-5.3-8.6,8.2-11.7,19-7.1,24.8l-.3.5c-.2.5,0,.4,0,.4,7.6-1.9,11.4-13.2,8.6-25.4,2.8,11.6,10.6,19.7,17.9,18.6l.3.5c.3.5.3.2.3.2,2.2-7.5-5.7-16.4-17.7-20.1,11.4,3.4,22.3.7,25.1-6.2h.6C241.1,269.2,240.9,269.1,240.9,269.1ZM221,251c-.8,7.4,1.4,16.2-7.3,24.1,0-.2-.1-.4-.1-.6h.2C211,263.3,217.4,257.3,221,251Zm-24.6,5.8c6,4.4,14.8,6.9,17.2,18.4l-.5-.2v-.2C202,271.6,200,263.1,196.4,256.8ZM213,275.6c-8.3,7.9-16.7,5.4-24,5.4,6.8-3,13.4-9.3,24.5-5.7l-.4.4Zm-6.6,23.9c.8-7.4-1.4-16.2,7.3-24.1,0,.2.1.4.1.6h-.2C216.4,287.1,210,293.1,206.4,299.5Zm24.7-5.8c-6-4.4-14.8-6.9-17.2-18.4l.5.2v.2C225.4,278.8,227.4,287.4,231.1,293.7Zm-17.3-18.6.4-.4h.1c8.3-7.9,16.7-5.4,24-5.4C231.6,272.4,225,278.8,213.8,275.1Z" transform="translate(0.5 -4)" fill="none" stroke="#f8e4e8" stroke-miterlimit="10"/><path d="M227.6,265.3c2.8-2.8,4.3-5.8,3.3-6.8s-4,.5-6.8,3.3-4.2,7.8-4.2,7.8S224.8,268.1,227.6,265.3Z" transform="translate(0.5 -4)" fill="none" stroke="#f8e4e8" stroke-miterlimit="10"/></svg>