<?xml version="1.0" encoding="iso-8859-1"?>
<!-- Generator: Adobe Illustrator 19.0.0, SVG Export Plug-In . SVG Version: 6.00 Build 0)  -->
<svg version="1.1" id="Layer_1" xmlns="http://www.w3.org/2000/svg" xmlns:xlink="http://www.w3.org/1999/xlink" x="0px" y="0px"
	 viewBox="0 0 800 850" style="enable-background:new 0 0 800 850;" xml:space="preserve">
<path style="fill:none;stroke:#FEEFE8;stroke-width:2;stroke-miterlimit:10;" d="M14.179,439.339
	c5.718-14.131,22.224-20.39,35.904-13.984c11.298,5.291,22.855,6.28,34.921,4.05c1.813-0.335,3.701-0.266,5.436-0.376
	c0,9.218,0,17.702,0,26.857c4.852-2.056,8.688-4.24,12.813-5.313c8.69-2.26,11.679-7.878,11.592-16.359
	c-0.091-8.974,3.638-16.642,10.351-22.462c10.584-9.177,22.059-16.973,35.902-20.581c1.264-0.329,2.966-1.036,3.432-2.045
	c3.972-8.592,7.297-17.526,6.214-27.121c-0.349-3.09-2.714-7.494-5.278-8.536c-13.247-5.383-26.611-4.832-38.977,2.774
	c-7.244,4.456-7.255,13.736-0.624,19.142c1.821,1.485,3.732,2.861,5.534,4.368c8.166,6.828,8.966,11.572,2.215,19.711
	c-16.559,19.964-38.036,29.403-63.924,28.253c-8.007-0.355-15.186-3.275-19.883-10.434c-4.858-7.406-4.231-13.681,1.955-19.416
	c6.038-5.597,8.316-5.486,16.834,0.824c11.025,8.168,31.09,4.586,38.497-7.049c1.195-1.876,1.198-4.471,2.116-6.575
	c0.745-1.707,1.973-3.222,3.105-4.734c0.878-1.172,2.899-2.433,2.706-3.255c-0.349-1.487-1.712-3.254-3.109-3.878
	c-3.883-1.734-7.291-0.115-9.36,3.208c-1.877,3.015-3.088,6.483-4.321,9.85c-1.402,3.828-2.9,7.221-8.008,5.872
	c-5.144-1.358-3.42-4.983-2.312-9.13c-3.73,0.584-6.908,1.082-10.087,1.58c-0.169,0.61-0.338,1.22-0.508,1.83
	c2.549,1.645,5.303,3.054,7.568,5.025c1.298,1.129,2.469,3.195,2.406,4.788c-0.035,0.886-2.821,2.501-4.194,2.337
	c-4.032-0.481-8.27-1.066-11.88-2.771c-4.335-2.048-4.92-5.921-1.512-9.315c2.639-2.629,2.159-4.531,0.903-7.47
	c-18.288-42.781-29.976-87.426-37.174-133.301c-8.112-51.702-9.943-103.665-5.173-155.765c1.827-19.959,5.077-39.79,7.795-59.663
	c0.249-1.818,1.347-3.52,2.052-5.277c0.728,0.176,1.456,0.352,2.183,0.528C19.022,147.456,27.934,266.279,75.103,381.361
	c3.426-0.647,5.872-1.301,8.358-1.543c7.64-0.742,8.933,0.763,7.306,8.104c-0.042,0.19,0.423,0.491,1.701,1.886
	c1.312-3.111,2.51-5.626,3.442-8.236c1.739-4.869,3.658-10.145,8.991-11.434c4.019-0.972,8.574,0.269,12.711,0.515
	c-1.345-10.044,2.081-16.168,12.595-20.543c8.912-3.708,18.204-4.447,27.676-2.822c14.16,2.429,18.496,8.332,16.347,22.625
	c-0.641,4.265-1.919,8.448-3.096,12.615c-0.757,2.679-1.862,5.26-2.818,7.903c15.913,4.28,19.152,15.48,7.737,26.745
	c-4.435,4.377-9.908,7.814-15.254,11.122c-4.356,2.695-5.132,5.563-2.484,9.78c5.903,9.401,11.723,18.855,17.062,27.457
	c-0.195-4.207-0.766-9.603-0.635-14.981c0.386-15.945,7.372-27.488,22.579-33.76c13.419-5.534,27.288-8.385,41.743-7.968
	c9.473,0.273,18.772,1.785,26.607,7.811c12.024,9.247,11.477,25.716-1.4,33.691c-4.702,2.912-9.981,5.183-15.29,6.765
	c-11.064,3.296-22.406,5.656-33.479,8.925c-11.671,3.445-22.957,7.821-30.26,19.794c3.196,0,6.009,0.48,8.579-0.107
	c4.385-1.001,8.531-3.193,12.936-3.916c4.508-0.739,9.487-1.348,13.767-0.192c9.917,2.68,13.501,14.593,6.957,20.824
	c-5.882,5.601-11.691,11.291-17.315,17.15c-6.577,6.853-13.462,13.033-25.13,13.963c3.098,0.979,4.66,1.351,6.125,1.96
	c4.157,1.727,8.467,3.224,12.32,5.488c1.698,0.997,3.522,3.769,3.302,5.48c-0.22,1.715-2.668,3.697-4.585,4.507
	c-2.593,1.096-5.594,1.474-8.451,1.656c-10.105,0.643-19.871-0.958-28.938-5.587c-2.902-1.482-5.229-1.517-7.162,1.042
	c-5.636,7.46-7.308,15.994-6.343,25.247c3.249-6.025,6.04-12.216,8.015-18.658c1.455-4.745,3.732-5.567,7.819-3.451
	c15.537,8.041,31.043,16.147,46.677,23.995c2.538,1.274,5.647,1.802,8.526,1.933c8.442,0.381,17.168-0.904,25.305,0.776
	c28.564,5.895,41.498,39.412,24.264,61.362c5.132,9.126,10.254,18.238,15.378,27.35c-0.793,0.502-1.586,1.003-2.379,1.505
	c-1.374-1.495-2.867-2.899-4.103-4.5c-5.52-7.15-10.973-14.353-16.44-21.545c-5.258-6.918-13.028-7.023-20.582-7.4
	c-4.135-0.206-4.396,2.588-2.867,5.423c0.786,1.456,2.535,2.441,3.951,3.5c10.264,7.678,20.95,14.851,30.724,23.107
	c9.647,8.148,18.031,17.782,27.576,26.064c36.403,31.583,77.948,54.881,122.005,73.757c114.862,49.213,234.708,63.51,358.38,50.3
	c1.713-0.183,3.485,0.181,5.229,0.29c0.071,0.638,0.142,1.277,0.213,1.915c-2.031,0.53-4.033,1.331-6.097,1.549
	c-67.802,7.192-135.397,6.044-202.74-5.134c-73.715-12.236-143.799-35.142-209.193-71.602
	c-31.529-17.579-61.065-37.833-86.475-63.905c-9.905-10.164-21.74-18.451-32.748-27.531c-1.522-1.255-3.343-2.147-4.995-3.187
	c5.762,11.73,12.314,22.682,16.682,34.444c9.984,26.882-4.422,52.368-32.477,59.017c-18.574,4.402-36.207-0.239-53.695-5.894
	c-0.671-0.217-1.102-1.175-0.827-0.865c6.232-4.874,13.498-8.546,17.92-14.375c15.929-21.002,20.165-45.868,21.024-71.504
	c0.057-1.707-1.181-3.456-2.272-6.423c-3.616,3.622-6.895,6.023-9.026,9.196c-8.657,12.889-16.816,26.112-25.442,39.022
	c-6.815,10.2-13.508,20.559-21.234,30.052c-8.569,10.528-20.146,16.479-33.989,16.648c-13.915,0.169-27.838-0.165-41.755-0.39
	c-0.941-0.015-1.866-0.968-3.105-1.655c8.4-5.56,8.996-6.439,11.478-16.545c0.344-1.404,0.571-2.838,0.954-4.23
	c3.35-12.169,5.847-24.661,10.262-36.432c11.312-30.165,48.231-63.454,95.23-54.612c13.517,2.543,26.503,7.911,39.666,11.963
	c0.994-7.824,8.153-5.307,14.94-5.572c-11.895-7.406-23.814-11.926-36.116-15.495c-8.258-2.396-15.13-6.789-20.597-13.367
	c-6.51-7.834-10.137-17.023-12.249-26.866c-0.577-2.69-0.851-5.444-1.264-8.169c0.481-0.524,0.962-1.048,1.443-1.572
	c6.689,10.554,16.105,13.974,27.991,12.634c-7.521-7.14-38.415-22.661-46.401-23.632c-3.101,6.992-5.985,13.998-9.372,20.751
	c-0.775,1.544-3.282,2.22-4.992,3.295c-0.923-1.634-2.58-3.239-2.648-4.909c-0.396-9.792,1.617-19.095,7.375-27.21
	c3.292-4.639,6.59-4.496,12.247-2.827c8.217,2.425,16.709,4.169,25.204,5.29c3.761,0.497,7.818-1.241,11.74-1.964
	c-9.646-9.524-22.646-8.926-32.643-13.833c-4.589,1.074-9.003,3.424-12.868,2.727c-7.174-1.294-11.513,2.124-16.162,6.284
	c-3.493,3.125-7.085,6.354-11.161,8.56c-5.168,2.798-10.702,5.779-16.38,6.602c-12.277,1.779-19.396-2.429-18.704-14.854
	c0.016-0.291-0.329-0.601-0.605-1.073c-4.233,1.402-8.455,2.962-12.771,4.195c-10.219,2.921-20.588,4.614-30.888,0.696
	c-11.47-4.362-18.292-13.034-19.78-25.049c-1.486-11.994,5.591-19.659,15.267-25.273c10.908-6.329,21.893-5.599,32.423,0.708
	c5.708,3.419,10.916,7.686,16.277,11.669c7.533,5.596,14.857,11.488,22.567,16.825c2.842,1.967,6.526,2.718,9.826,4.024
	c0.232-0.404,0.463-0.808,0.695-1.212c-13.086-6.355-21.234-16.599-25.044-30.464c-0.44-1.602-2.554-2.783-3.976-4.067
	c-2.918-2.635-6.48-4.794-8.68-7.921c-2.267-3.222-2.413-7.743,1.185-10.265c3.803-2.665,7.645-0.373,9.756,2.964
	c1.756,2.777,2.557,6.341,3.081,9.668c0.601,3.821,2.467,5.94,5.898,7.597c9.919,4.79,19.783,9.72,29.425,15.038
	c3.553,1.96,6.737,4.866,9.521,7.867c3.079,3.319,2.536,6.931-0.958,9.946c-0.818,0.705-1.629,1.418-2.444,2.127
	c0.173,0.455,0.347,0.911,0.52,1.366c7.441-3.08,14.193-9.714,24.264-4.16c-1.67-2.868-2.452-4.199-3.223-5.537
	c-5.869-10.192-3.672-22.828,5.071-30.597c3.076-2.733,5.001-2.449,6.262,1.419c1.115,3.419,2.324,6.835,3.064,10.342
	c1.785,8.458-1.317,15.884-6.888,24.475c5.667,0.537,10.374,2.243,14.148,1.035c5.278-1.688,10.395-4.935,14.623-8.616
	c7.338-6.389,13.942-13.623,20.854-20.502c3.129-3.113,2.664-6.51,0.612-9.883c-2.981-4.901-8.333-6.933-15.259-5.319
	c-5.259,1.226-10.442,2.901-15.519,4.757c-7.894,2.887-18.168-2.985-19.992-10.216c-3.505-13.898-10.26-26.093-18.578-37.669
	c-5.715-7.954-4.49-11.448,3.63-16.762c4.817-3.152,9.841-6.274,13.798-10.353c2.668-2.75,4.583-7.013,5.129-10.843
	c0.697-4.888-3.586-7.253-7.713-8.355c-1.789-0.478-5.207,0.075-5.87,1.274c-4.339,7.851-10.725,13.475-17.859,18.606
	c-6.541,4.704-6.674,6.528-2.471,13.399c6.716,10.979,6.166,23.43-1.455,32.914c-14.224,17.704-41.726,17.858-55.706,0.192
	c-0.623,0.214-1.338,0.362-1.959,0.688c-12.321,6.459-24.553,13.095-36.989,19.324c-3.95,1.979-8.347,3.41-12.699,4.145
	c-4.515,0.763-7.107-1.71-8.359-6.457c-1.266-4.802-3.512-9.41-5.804-13.858c-2.227-4.322-5.926-8.056-7.367-12.563
	C13.244,448.618,12.619,443.195,14.179,439.339z"/>
</svg>
