<svg id="Layer_1" data-name="Layer 1" xmlns="http://www.w3.org/2000/svg" viewBox="0 0 777.8 802.3"><title>sub1_puple_flower</title><path d="M.9,414.3a26.6,26.6,0,0,1,35.9-14c11.3,5.3,22.9,6.3,34.9,4a45.2,45.2,0,0,1,5.4-.4v26.9c4.9-2.1,8.7-4.2,12.8-5.3,8.7-2.3,11.7-7.9,11.6-16.4a28.6,28.6,0,0,1,10.4-22.5c10.6-9.2,22.1-17,35.9-20.6,1.3-.3,3-1,3.4-2,4-8.6,7.3-17.5,6.2-27.1-.3-3.1-2.7-7.5-5.3-8.5-13.2-5.4-26.6-4.8-39,2.8-7.2,4.5-7.3,13.7-.6,19.1l5.5,4.4c8.2,6.8,9,11.6,2.2,19.7-16.6,20-38,29.4-63.9,28.3-8-.4-15.2-3.3-19.9-10.4s-4.2-13.7,2-19.4,8.3-5.5,16.8.8c11,8.2,31.1,4.6,38.5-7,1.2-1.9,1.2-4.5,2.1-6.6a24.9,24.9,0,0,1,3.1-4.7c.9-1.2,2.9-2.4,2.7-3.3a6.3,6.3,0,0,0-3.1-3.9c-3.9-1.7-7.3-.1-9.4,3.2a52.9,52.9,0,0,0-4.3,9.9c-1.4,3.8-2.9,7.2-8,5.9s-3.4-5-2.3-9.1l-10.1,1.6-.5,1.8c2.5,1.6,5.3,3.1,7.6,5a7,7,0,0,1,2.4,4.8c0,.9-2.8,2.5-4.2,2.3-4-.5-8.3-1.1-11.9-2.8s-4.9-5.9-1.5-9.3,2.2-4.5.9-7.5c-18.3-42.8-30-87.4-37.2-133.3A630.6,630.6,0,0,1,15,64.9c1.8-20,5.1-39.8,7.8-59.7C23,3.5,24.1,1.8,24.8,0L27,.5C5.8,122.5,14.7,241.3,61.8,356.4c3.4-.6,5.9-1.3,8.4-1.5,7.6-.7,8.9.8,7.3,8.1,0,.2.4.5,1.7,1.9,1.3-3.1,2.5-5.6,3.4-8.2,1.7-4.9,3.7-10.1,9-11.4s8.6.3,12.7.5c-1.3-10,2.1-16.2,12.6-20.5a49.1,49.1,0,0,1,27.7-2.8c14.2,2.4,18.5,8.3,16.3,22.6a103.5,103.5,0,0,1-3.1,12.6c-.8,2.7-1.9,5.3-2.8,7.9,15.9,4.3,19.2,15.5,7.7,26.7-4.4,4.4-9.9,7.8-15.3,11.1s-5.1,5.6-2.5,9.8l17.1,27.5c-.2-4.2-.8-9.6-.6-15,.4-15.9,7.4-27.5,22.6-33.8a100.8,100.8,0,0,1,41.7-8c9.5.3,18.8,1.8,26.6,7.8,12,9.2,11.5,25.7-1.4,33.7a64,64,0,0,1-15.3,6.8c-11.1,3.3-22.4,5.7-33.5,8.9s-23,7.8-30.3,19.8c3.2,0,6,.5,8.6-.1,4.4-1,8.5-3.2,12.9-3.9s9.5-1.3,13.8-.2c9.9,2.7,13.5,14.6,7,20.8s-11.7,11.3-17.3,17.1-13.5,13-25.1,14c3.1,1,4.7,1.4,6.1,2,4.2,1.7,8.5,3.2,12.3,5.5,1.7,1,3.5,3.8,3.3,5.5s-2.7,3.7-4.6,4.5a26.3,26.3,0,0,1-8.5,1.7,54.9,54.9,0,0,1-28.9-5.6c-2.9-1.5-5.2-1.5-7.2,1-5.6,7.5-7.3,16-6.3,25.2a103.2,103.2,0,0,0,8-18.7c1.5-4.7,3.7-5.6,7.8-3.5,15.5,8,31,16.1,46.7,24a21.6,21.6,0,0,0,8.5,1.9c8.4.4,17.2-.9,25.3.8,28.6,5.9,41.5,39.4,24.3,61.4L274,641.6l-2.4,1.5c-1.4-1.5-2.9-2.9-4.1-4.5l-16.4-21.5c-5.3-6.9-13-7-20.6-7.4-4.1-.2-4.4,2.6-2.9,5.4s2.5,2.4,4,3.5c10.3,7.7,20.9,14.9,30.7,23.1s18,17.8,27.6,26.1c36.4,31.6,77.9,54.9,122,73.8,114.9,49.2,234.7,63.5,358.4,50.3a31.6,31.6,0,0,1,5.2.3l.2,1.9a42.5,42.5,0,0,1-6.1,1.5c-67.8,7.2-135.4,6-202.7-5.1-73.7-12.2-143.8-35.1-209.2-71.6-31.5-17.6-61.1-37.8-86.5-63.9-9.9-10.2-21.7-18.5-32.7-27.5a46.6,46.6,0,0,0-5-3.2c5.8,11.7,12.3,22.7,16.7,34.4,10,26.9-4.4,52.4-32.5,59-18.6,4.4-36.2-.2-53.7-5.9-.7-.2-1.1-1.2-.8-.9,6.2-4.9,13.5-8.5,17.9-14.4,15.9-21,20.2-45.9,21-71.5.1-1.7-1.2-3.5-2.3-6.4-3.6,3.6-6.9,6-9,9.2-8.7,12.9-16.8,26.1-25.4,39-6.8,10.2-13.5,20.6-21.2,30.1s-20.1,16.5-34,16.6-27.8-.2-41.8-.4c-.9,0-1.9-1-3.1-1.7,8.4-5.6,9-6.4,11.5-16.5.3-1.4.6-2.8,1-4.2,3.3-12.2,5.8-24.7,10.3-36.4,11.3-30.2,48.2-63.5,95.2-54.6,13.5,2.5,26.5,7.9,39.7,12,1-7.8,8.2-5.3,14.9-5.6-11.9-7.4-23.8-11.9-36.1-15.5a40.9,40.9,0,0,1-20.6-13.4c-6.5-7.8-10.1-17-12.2-26.9-.6-2.7-.9-5.4-1.3-8.2l1.4-1.6c6.7,10.6,16.1,14,28,12.6-7.5-7.1-38.4-22.7-46.4-23.6-3.1,7-6,14-9.4,20.8-.8,1.5-3.3,2.2-5,3.3-.9-1.6-2.6-3.2-2.6-4.9-.4-9.8,1.6-19.1,7.4-27.2,3.3-4.6,6.6-4.5,12.2-2.8a166.1,166.1,0,0,0,25.2,5.3c3.8.5,7.8-1.2,11.7-2-9.6-9.5-22.6-8.9-32.6-13.8-4.6,1.1-9,3.4-12.9,2.7-7.2-1.3-11.5,2.1-16.2,6.3s-7.1,6.4-11.2,8.6-10.7,5.8-16.4,6.6c-12.3,1.8-19.4-2.4-18.7-14.9,0-.3-.3-.6-.6-1.1-4.2,1.4-8.5,3-12.8,4.2-10.2,2.9-20.6,4.6-30.9.7s-18.3-13-19.8-25,5.6-19.7,15.3-25.3,21.9-5.6,32.4.7c5.7,3.4,10.9,7.7,16.3,11.7,7.5,5.6,14.9,11.5,22.6,16.8,2.8,2,6.5,2.7,9.8,4l.7-1.2c-13.1-6.4-21.2-16.6-25-30.5-.4-1.6-2.6-2.8-4-4.1s-6.5-4.8-8.7-7.9-2.4-7.7,1.2-10.3,7.6-.4,9.8,3,2.6,6.3,3.1,9.7,2.5,5.9,5.9,7.6c9.9,4.8,19.8,9.7,29.4,15a39.6,39.6,0,0,1,9.5,7.9c3.1,3.3,2.5,6.9-1,9.9l-2.4,2.1.5,1.4c7.4-3.1,14.2-9.7,24.3-4.2l-3.2-5.5a24.4,24.4,0,0,1,5.1-30.6c3.1-2.7,5-2.4,6.3,1.4a100.9,100.9,0,0,1,3.1,10.3c1.8,8.5-1.3,15.9-6.9,24.5,5.7.5,10.4,2.2,14.1,1a43.1,43.1,0,0,0,14.6-8.6c7.3-6.4,13.9-13.6,20.9-20.5,3.1-3.1,2.7-6.5.6-9.9-3-4.9-8.3-6.9-15.3-5.3a134.1,134.1,0,0,0-15.5,4.8c-7.9,2.9-18.2-3-20-10.2-3.5-13.9-10.3-26.1-18.6-37.7-5.7-8-4.5-11.4,3.6-16.8,4.8-3.2,9.8-6.3,13.8-10.4a20.6,20.6,0,0,0,5.1-10.8c.7-4.9-3.6-7.3-7.7-8.4-1.8-.5-5.2.1-5.9,1.3-4.3,7.9-10.7,13.5-17.9,18.6s-6.7,6.5-2.5,13.4c6.7,11,6.2,23.4-1.5,32.9-14.2,17.7-41.7,17.9-55.7.2a13.5,13.5,0,0,0-2,.7c-12.3,6.5-24.6,13.1-37,19.3a45.7,45.7,0,0,1-12.7,4.1c-4.5.8-7.1-1.7-8.4-6.5a69.7,69.7,0,0,0-5.8-13.9c-2.2-4.3-5.9-8.1-7.4-12.6S-.6,418.2.9,414.3Z" transform="translate(1 1.2)" fill="none" stroke="#d8d7e7" stroke-miterlimit="10" stroke-width="2"/></svg>