<svg id="Layer_1" data-name="Layer 1" xmlns="http://www.w3.org/2000/svg" viewBox="0 0 391 291.6"><title>sub2_pattern</title><path d="M.1,172a36.2,36.2,0,0,0,19.5,32.2,28.4,28.4,0,0,0,22.1,1.9,28.4,28.4,0,0,0,17-14.3,23.1,23.1,0,0,0-9.9-31.3,18.5,18.5,0,0,0-14.2-1.3,18.8,18.8,0,0,0-10.9,9.2c-1.9,3.6-3.2,7.6-2,11.5s3.1,13,8.3,8.7l.3-.4c3.1-5.8-5-4.8-6.2-8.5s-1.8-7.6,0-11a18.2,18.2,0,0,1,10.6-9,18.6,18.6,0,0,1,13.9,1.2,22.8,22.8,0,0,1,9.7,30.7,28.1,28.1,0,0,1-16.7,14.1,28.5,28.5,0,0,1-21.8-1.9A35.9,35.9,0,0,1,4.6,155.6C11,143.4,18.5,136,27.5,133.2c16.2-5.1,35,5.7,56.8,17.1,31.5,16.4,67.2,34,105,11.6A62.1,62.1,0,0,0,211,77a49.7,49.7,0,0,0-68-17.3,39.7,39.7,0,0,0-13.9,54.4,31.9,31.9,0,0,0,19.5,14.6,31.3,31.3,0,0,0,24.1-3.5,24.9,24.9,0,0,0,11.7-15.6c1.7-6.6,3.9-17.6-2.7-19.3-.2-.1-.4.1-.5.2-1.6,6.5,3.1,12.5,1.4,19s-4.4,10.6-10.1,14a31.4,31.4,0,0,1-23.8,3.4c-8.1-2.1-13.6-5.9-17.8-13.1a39.1,39.1,0,0,1,13.7-53.7c23.3-13.8,52.1-5.1,65.9,18.2,8.4,14.1,9.8,29.6,5.7,45.5s-13,28.3-27.1,36.6c-37.6,22.3-73.2,4.8-104.5-11.5-21.9-11.5-40.9-21.3-57.3-16.2-9.1,2.9-16.7,10.3-23.1,22.7A35.4,35.4,0,0,0,.1,172Z" transform="translate(0.4 -3.5)" fill="none" stroke="#dce6ec" stroke-miterlimit="10"/><path d="M213.7,134.4h.6c0-10.4,13.7-30.4,35.8-44.3C266,80,298.5,65.7,336.7,83.8a61.6,61.6,0,0,1,29.2,82,49,49,0,0,1-65.4,23.3,39.2,39.2,0,0,1-18.7-52.2A31.4,31.4,0,0,1,323.6,122a24.7,24.7,0,0,1,12.8,14.1c2.2,6.3-3.2,12.9-1,19.1.1.2.5.4.6.3,6.5-2.3,3.3-13.1,1-19.6a25.4,25.4,0,0,0-13.2-14.5,31.9,31.9,0,0,0-42.6,15.2,39.9,39.9,0,0,0,19,53.1A49.7,49.7,0,0,0,366.5,166,62.2,62.2,0,0,0,337,83.2c-38.5-18.2-71.2-3.9-87.3,6.3-22.2,14.1-36,34.3-36,44.9Z" transform="translate(0.4 -3.5)" fill="none" stroke="#dce6ec" stroke-miterlimit="10"/><path d="M132.9,169.9l.2.5c8-1.8,25.8,5.3,40.4,19.9,10.6,10.5,27.2,33.1,19.9,65.7a48.7,48.7,0,0,1-58.1,36.9A38.8,38.8,0,0,1,111,275.8a38.3,38.3,0,0,1-5.1-29.3A31,31,0,0,1,119.5,227a31.3,31.3,0,0,1,23.5-4.1,24.8,24.8,0,0,1,18.7,29.6,19.2,19.2,0,0,1-8.7,12.4c-4.4,2.9-10.4-.2-14.9,2.6-.1.1-.2.4-.1.5,2.9,4.6,10.7.3,15.3-2.6a19.7,19.7,0,0,0,8.9-12.7,25.3,25.3,0,0,0-19.1-30.3,31.6,31.6,0,0,0-23.8,4.2,30.8,30.8,0,0,0-13.9,19.7,39.4,39.4,0,0,0,29.8,47.1,49.2,49.2,0,0,0,58.7-37.3c7.4-32.8-9.4-55.6-20-66.2-14.8-14.7-32.8-21.8-41-20Z" transform="translate(0.4 -3.5)" fill="none" stroke="#dce6ec" stroke-miterlimit="10"/><path d="M172.7,66.8a43.4,43.4,0,0,1,31,13.1c8.1,8.2,11.3,17.8,11.3,29.4v.4c-.1,9.3-2.5,16.8-9.2,23.3s-15.4,11.5-24.8,11.4v.7a35.9,35.9,0,0,0,36-35.4v-.4a44.7,44.7,0,0,0-44.2-44.5v2Z" transform="translate(0.4 -3.5)" fill="none" stroke="#dce6ec" stroke-miterlimit="10"/><path d="M148.5,202a43.4,43.4,0,0,1,30.9,13.1c8.1,8.2,11.3,17.8,11.3,29.4v.4c-.1,9.3-2.5,16.8-9.1,23.3s-15.5,11.5-24.9,11.4v.7a35.9,35.9,0,0,0,36-35.4v-.4A44.6,44.6,0,0,0,148.5,200v2Z" transform="translate(0.4 -3.5)" fill="none" stroke="#dce6ec" stroke-miterlimit="10"/><path d="M320.3,99.6a43.3,43.3,0,0,1,30.9,13c8.1,8.3,11.3,17.9,11.3,29.5v.3c-.1,9.4-2.5,16.8-9.1,23.4s-15.5,11.5-24.9,11.4v.7a35.8,35.8,0,0,0,36-35.5v-.3a44.4,44.4,0,0,0-44.2-44.5v2Z" transform="translate(0.4 -3.5)" fill="none" stroke="#dce6ec" stroke-miterlimit="10"/><path d="M293.5,6a20.5,20.5,0,0,0-10.8,23.1c4.8,19.8-4.4,46.7-35.7,62l.2.5C278.8,76.1,288,49,283.2,29A19.8,19.8,0,0,1,297.9,5a15.4,15.4,0,0,1,12,1.9,15.8,15.8,0,0,1,7.1,9.8,12.5,12.5,0,0,1-9.3,15.2,10,10,0,0,1-12.1-7.4,7.8,7.8,0,0,1,.9-6c1.1-1.9,3.8-1.8,5-3.7,0-.1-.1-.4-.2-.4-1.9-1.2-4,1.8-5.2,3.8a8,8,0,0,0-1,6.4,10.3,10.3,0,0,0,4.7,6.6,10.7,10.7,0,0,0,8,1.2,13.1,13.1,0,0,0,9.7-15.8,16.2,16.2,0,0,0-7.3-10.2,16,16,0,0,0-12.4-1.9A16.9,16.9,0,0,0,293.5,6Z" transform="translate(0.4 -3.5)" fill="none" stroke="#dce6ec" stroke-miterlimit="10"/><path d="M225.9,241.5A21.7,21.7,0,0,1,207,222.3c-2.2-21.4-20.8-44.9-57.4-49.2v-.6c36.8,4.4,55.6,28.1,57.8,49.7A21.1,21.1,0,0,0,230.6,241a16.6,16.6,0,0,0,11.3-6.1,17,17,0,0,0,3.7-12.3,13.4,13.4,0,0,0-14.7-11.9,10.6,10.6,0,0,0-9.5,11.7,8.4,8.4,0,0,0,3.1,5.6c1.7,1.5,4.4.5,6.2,1.9a.5.5,0,0,1,0,.5c-1.5,1.9-4.7-.4-6.5-1.9a8.9,8.9,0,0,1-3.3-6.1,11,11,0,0,1,2.4-8.2,11.7,11.7,0,0,1,7.5-4.1,14,14,0,0,1,15.3,12.4,17.2,17.2,0,0,1-3.8,12.7,16.7,16.7,0,0,1-11.6,6.3,19.3,19.3,0,0,1-4.8,0Z" transform="translate(0.4 -3.5)" fill="none" stroke="#dce6ec" stroke-miterlimit="10"/><path d="M238.3,96.3l.5-.5A28.9,28.9,0,0,1,231,74.9a29.4,29.4,0,0,1,9.2-20.4,23.5,23.5,0,0,1,16.7-6.2,23.2,23.2,0,0,1,16.3,7.4A18.5,18.5,0,0,1,278.1,69a18.2,18.2,0,0,1-5.8,12.9,14.8,14.8,0,0,1-20.9-.7c-4.5-4.8.3-10.2.5-16.6a.7.7,0,0,0-.4-.5c-6.9-.3-5.3,12.5-.6,17.5a15.4,15.4,0,0,0,21.8.8,19.2,19.2,0,0,0,.9-27.2A23.5,23.5,0,0,0,257,47.6a23.9,23.9,0,0,0-17.2,6.5,29.8,29.8,0,0,0-9.5,20.8,30.4,30.4,0,0,0,8,21.4Z" transform="translate(0.4 -3.5)" fill="none" stroke="#dce6ec" stroke-miterlimit="10"/><path d="M333,82h.7c0-1.7,3.2-8.8,10.7-12.9s19.3-5.9,37.8,6a15,15,0,0,1,6.8,9.8,15.6,15.6,0,0,1-2.1,11.9,12.5,12.5,0,0,1-17.2,3.8,10.1,10.1,0,0,1-4.4-6.3,10,10,0,0,1,1.4-7.5,7.8,7.8,0,0,1,4.9-3.4,7.2,7.2,0,0,1,5.9,1.1c2.9,1.8,1.2,5.2,1.9,8.6.1.1.4.4.6.3,1.8-.4,1.3-3.4.9-5.2a6.6,6.6,0,0,0-3-4.3,9,9,0,0,0-6.4-1.2,8.5,8.5,0,0,0-5.4,3.8,10.7,10.7,0,0,0-1.4,8,10.4,10.4,0,0,0,4.6,6.6,13.2,13.2,0,0,0,18.2-4,16.5,16.5,0,0,0,2.2-12.3,16.2,16.2,0,0,0-7.2-10.3c-18.8-12-31.2-9.9-38.4-6S333,79.9,333,82Z" transform="translate(0.4 -3.5)" fill="none" stroke="#dce6ec" stroke-miterlimit="10"/><path d="M299.9,212.5a38.3,38.3,0,0,0,5.5,20.3c4.6,7,11.1,10.9,18.6,10.9a18.5,18.5,0,0,0,18.4-18.4,14.8,14.8,0,0,0-14.8-14.8,11.9,11.9,0,0,0-11.9,11.9,9.6,9.6,0,0,0,9.6,9.6c4.2,0,10.7-4.7,7.7-7.7a.5.5,0,0,0-.7,0c-2.7,2.7-3.1,7-7,7a8.9,8.9,0,0,1-9-8.9,11.3,11.3,0,0,1,11.3-11.2,14.1,14.1,0,0,1,14.1,14.1A17.7,17.7,0,0,1,324,243c-7.2,0-13.6-3.7-18-10.6-7-10.9-7.3-26.6-.7-40.9l-.6-.3a51.8,51.8,0,0,0-4.8,21.3Z" transform="translate(0.4 -3.5)" fill="none" stroke="#dce6ec" stroke-miterlimit="10"/><path d="M337.7,191.3c0,17.8,16.7,42.9,27.4,32.2a.8.8,0,0,0,0-.7c-10.4-10.5-26.7-14.1-26.7-31.5Z" transform="translate(0.4 -3.5)" fill="none" stroke="#dce6ec" stroke-miterlimit="10"/><path d="M200.4,153.1l.6.3A26.4,26.4,0,0,1,236.2,141a21.1,21.1,0,0,1,9.9,28.1,16.7,16.7,0,0,1-9.6,8.5,16.3,16.3,0,0,1-12.8-.7c-6.6-3.1-3.8-10.8-6.3-17.8l-.6-.3c-7.3,2.6-.4,15.4,6.6,18.7a17.1,17.1,0,0,0,13.3.8,17.5,17.5,0,0,0,10-8.9,21.8,21.8,0,0,0-10.2-29,27,27,0,0,0-36.1,12.7Z" transform="translate(0.4 -3.5)" fill="none" stroke="#dce6ec" stroke-miterlimit="10"/><path d="M30.6,131.6v.6c33.4,0,60.5-16.3,60.5-36.3h-.7c0,19.7-26.8,35.7-59.8,35.7Z" transform="translate(0.4 -3.5)" fill="none" stroke="#dce6ec" stroke-miterlimit="10"/><path d="M132.1,137.6h.5c4.8-3.6,6.3-10.1,12.3-9.3a13.7,13.7,0,0,1,11.7,15.4c-2,15.2-15.6,24.9-24,24.9v.5c8.6,0,22.5-9.9,24.5-25.3a14.1,14.1,0,0,0-12.2-16,11.3,11.3,0,0,0-12.8,9.8Z" transform="translate(0.4 -3.5)" fill="none" stroke="#dce6ec" stroke-miterlimit="10"/></svg>