<svg id="Layer_1" data-name="Layer 1" xmlns="http://www.w3.org/2000/svg" viewBox="0 0 311.8 294.6"><title>sub2_pattern2</title><path d="M.2,125.8l.5-.3c5.2,7.4,24.7,14.7,47.3,13.7,16.3-.7,46.4-6.7,64.5-38.5A53.3,53.3,0,0,0,92.7,28.2,42.5,42.5,0,0,0,34.7,44a33.7,33.7,0,0,0-3.2,25.8A33.4,33.4,0,0,0,47.4,90.3,27.1,27.1,0,0,0,84.3,80.2a21.4,21.4,0,0,0,2.1-16.4c-1.5-5.6-8.6-7.5-10.1-13.1-.1-.1.1-.4.2-.5,5.8-1.5,8.9,7.7,10.4,13.5a21.5,21.5,0,0,1-2.1,16.8A27.6,27.6,0,0,1,47.1,90.8,34.6,34.6,0,0,1,34.2,43.7,43.1,43.1,0,0,1,93,27.7,53.8,53.8,0,0,1,113,101c-18.3,32-48.5,38-65,38.8-22.7,1-42.5-6.5-47.8-14Z" transform="translate(0.5 -3.5)" fill="none" stroke="#dce6ec" stroke-miterlimit="10"/><path d="M36.4,111.3A47.7,47.7,0,0,0,71,123.5c12.7-.7,22.3-6.1,30.8-15.5l.3-.3c6.8-7.6,10.3-15.4,9.8-25.6s-4.1-20.6-11.7-27.5l.5-.5a39,39,0,0,1,3,55.1l-.3.3a48.7,48.7,0,0,1-68.5,3.4l.5-.5Z" transform="translate(0.5 -3.5)" fill="none" stroke="#dce6ec" stroke-miterlimit="10"/><path d="M173.9,57.7a21.1,21.1,0,0,1-20.8,16c-21-.3-45.9,14.9-54.4,49.8h-.5c8.5-35.2,33.7-50.6,54.9-50.2A20.5,20.5,0,0,0,174,53.1a16.4,16.4,0,0,0-16.1-16.7,13,13,0,0,0-13.2,12.8,9.8,9.8,0,0,0,2.9,7.4,10.4,10.4,0,0,0,7.2,3.2,8.6,8.6,0,0,0,5.9-2.3c1.6-1.6.9-4.3,2.5-5.8a.6.6,0,0,1,.6,0c1.6,1.7-1,4.5-2.7,6.1a8.7,8.7,0,0,1-6.3,2.5,10.8,10.8,0,0,1-7.6-3.3,11.3,11.3,0,0,1-3.1-7.8,13.7,13.7,0,0,1,13.8-13.3A17.3,17.3,0,0,1,169.8,41a17.1,17.1,0,0,1,4.7,12.1,18.2,18.2,0,0,1-.6,4.6Z" transform="translate(0.5 -3.5)" fill="none" stroke="#dce6ec" stroke-miterlimit="10"/><path d="M56.3,297.4C43.9,269.1,34.6,203.7,64.4,155,87,118,127.1,99.7,181.5,96.2a69.4,69.4,0,0,1,73.6,64.9,55.6,55.6,0,0,1-52,58.9,44,44,0,0,1-32.3-11c-8.9-7.9-22.8-21.7-15-30.6.2-.2.8-.1,1-.1,21.9-1.5,22.3,42.3,46.2,40.8a54.7,54.7,0,0,0,51.1-57.9,68.4,68.4,0,0,0-72.5-64c-54.1,3.4-92.9,23.8-115.4,60.6C36.5,206.1,44.9,268.9,57.1,297l-.8.4Z" transform="translate(0.5 -3.5)" fill="none" stroke="#dce6ec" stroke-miterlimit="10"/><path d="M181,206.7h0c26.4-2.8,43.3-26.5,40.5-52.9-3.6-33-31.1-58-64.1-54.5v-1a61.3,61.3,0,0,1,67.3,54.4,49.1,49.1,0,0,1-43.6,54Z" transform="translate(0.5 -3.5)" fill="none" stroke="#dce6ec" stroke-miterlimit="10"/><path d="M171.1,99.7l-.2-.9c24.6-7.6,41.2,10,57.3,27S261.4,161,285.4,145a22.6,22.6,0,0,0,9.9-14.7,23,23,0,0,0-3.4-17.3,18.7,18.7,0,0,0-11.7-7.9,18.2,18.2,0,0,0-13.8,2.8c-6.7,4.4-2.5,12.3-4.1,20.2-.1.2-.6.6-.8.5-8.4-1.6-2.8-16.8,4.3-21.6a19.7,19.7,0,0,1,14.6-2.8,19.4,19.4,0,0,1,12.3,8.2,24.2,24.2,0,0,1-6.7,33.4c-24.8,16.5-41.2-.9-58.5-19.3-15.9-16.8-32.3-34.2-56.4-26.8Z" transform="translate(0.5 -3.5)" fill="none" stroke="#dce6ec" stroke-miterlimit="10"/><path d="M164.6,96.4l-.3-.9c34.4-12.2,56.4-10.7,74.1-9.5,20.6,1.4,35.4,2.4,57.4-19.7l.7.6C274.2,89.4,259.2,88.4,238.4,87c-17.6-1.2-39.5-2.7-73.8,9.4Z" transform="translate(0.5 -3.5)" fill="none" stroke="#dce6ec" stroke-miterlimit="10"/><path d="M164.6,96.4l-.4-.9c33.2-14.4,50.7-30.8,53.6-36a15.4,15.4,0,0,0-6-20.9,12.3,12.3,0,0,0-16.7,4.8c-2.5,4.7,2.4,8,3.8,13.1a1,1,0,0,1-.4.9c-5.7,1.6-7-9.3-4.2-14.5a13.2,13.2,0,0,1,17.9-5.2A16.4,16.4,0,0,1,218.6,60c-2.9,5.3-20.6,21.9-54,36.4Z" transform="translate(0.5 -3.5)" fill="none" stroke="#dce6ec" stroke-miterlimit="10"/><path d="M142.5,103.5C196,89.7,223.6,54.8,226,50A32.4,32.4,0,0,0,211,6.7c-12.9-6.2-39.4-1.5-34.7,12a1,1,0,0,0,.8.5c13.1-4.6,21.1-17.6,33.5-11.6a31.3,31.3,0,0,1,15.9,18,30.8,30.8,0,0,1-1.4,24c-2.3,4.7-29.7,39.2-82.8,53l.2.9Z" transform="translate(0.5 -3.5)" fill="none" stroke="#dce6ec" stroke-miterlimit="10"/><path d="M289.7,79.6c-1.6-.9,4.2-5.6,2.8-6.6s-4.2,5.9-5.5,4.6,5.4-4.4,4.3-5.8-5.4,4.8-6.4,3.3,6.3-3,5.5-4.6-6.4,3.4-7,1.7,6.8-1.5,6.4-3.3-7,1.9-7.2.1,7,.1,7-1.7-7.2.2-7-1.6,6.8,1.7,7.2,0-7.1-1.5-6.5-3.2,6.2,3.2,7,1.6-6.5-3-5.5-4.6,5.3,4.6,6.4,3.2-5.6-4.5-4.3-5.7,4.1,5.7,5.5,4.6-4.5-5.7-2.9-6.6,2.7,6.5,4.3,5.7-3-6.5-1.3-7,1.1,6.9,2.9,6.6-1.5-7.1.3-7.2-.5,7,1.3,7.1.3-7.3,2-7-2.1,6.7-.3,7.2,1.8-6.9,3.5-6.2-3.6,6-2,6.9,3.4-6.4,4.9-5.3-4.9,5-3.6,6.2,4.8-5.3,6-4-5.9,3.8-4.9,5.3,5.9-4.1,6.7-2.5-6.6,2.3-6,4,6.7-2.7,7.2-1-7,.8-6.8,2.6,7.2-1.1,7.2.7-7-.9-7.2.9,7.2.6,6.8,2.4-6.5-2.5-7.1-.8,6.8,2.3,6,3.9-5.8-3.9-6.8-2.4,6.2,3.8,5,5.2-4.7-5.2-6-3.9,2.2,7.2,3.6,6.1-3.4-6.1-4.9-5.1.5,7.5,2.1,6.8-1.9-6.7-3.6-6.2-1.3,7.5.5,7.2-.4-7-2.2-6.9.7,7.2-1.1,7.1,1.3-6.9-.5-7.2-1.1,7.2-2.8,6.7,2.9-6.4,1.2-7.1S291.2,80.5,289.7,79.6Z" transform="translate(0.5 -3.5)" fill="none" stroke="#dce6ec" stroke-miterlimit="10"/></svg>