<svg id="Layer_1" data-name="Layer 1" xmlns="http://www.w3.org/2000/svg" viewBox="0 0 406.9 590"><title>sub_bg</title><path d="M138.8,589.2l-.8-.7c74.5-88.2,40.5-142,7.6-194-17.5-27.7-34-53.8-32.2-83.6a70.9,70.9,0,0,1,75.1-66.4,56.8,56.8,0,0,1,53.3,60.1h-1a55.8,55.8,0,0,0-52.2-59.2h-.2a69.9,69.9,0,0,0-74,65.5c-1.8,29.4,14.7,55.4,32.1,83,16.2,25.6,32.9,52.1,36.3,83.4C186.7,512.9,172.3,549.5,138.8,589.2Z" transform="translate(0 0.1)" fill="none" stroke="#ecf1f4" stroke-miterlimit="10"/><path d="M117.2,345.3c-8.9-51.2-2.8-90,18.4-118.7,18.8-25.3,46.6-39.7,73.5-53.7,28.9-15,56.3-29.1,69.6-55.4a69.9,69.9,0,0,0-30.8-93.9,55.9,55.9,0,0,0-75,24.6l-.9-.5a56.9,56.9,0,0,1,76.4-25A70.9,70.9,0,0,1,279.6,118h0c-13.5,26.6-40.9,40.8-70,55.9C155,202.1,98.5,231.4,118.2,345.2l-1,.2Z" transform="translate(0 0.1)" fill="none" stroke="#ecf1f4" stroke-miterlimit="10"/><path d="M276.1,488.6c.1-.2-.5-.7-.4-1,8.6-20.5,30.5-32,22.1-52.6a50.6,50.6,0,0,0-65.9-27.7c-14.6,6-48.5,25.5-48.5,78.3h-1c0-37.1,18.4-66.7,49.1-79.3a51.6,51.6,0,0,1,67.2,28.3c8.6,21.1-27,31.6-22.7,53.9Z" transform="translate(0 0.1)" fill="none" stroke="#ecf1f4" stroke-miterlimit="10"/><path d="M178.1,455.2h-1c0-54.6,34.8-99,77.5-99v1C212.4,357.2,178.1,401.1,178.1,455.2Z" transform="translate(0 0.1)" fill="none" stroke="#ecf1f4" stroke-miterlimit="10"/><path d="M274,127v-1c52.8,0,93.4-16.5,120.6-49a46.3,46.3,0,0,0-5.7-65.2A36.7,36.7,0,0,0,362,3.3c-9.8.9-15.2,12.2-25.1,13a1,1,0,0,1-.8-.7C334.3-5.2,373.5-2.5,389.5,11a47.3,47.3,0,0,1,5.8,66.6c-27.5,32.7-68.3,49.3-121.4,49.3Z" transform="translate(0 0.1)" fill="none" stroke="#ecf1f4" stroke-miterlimit="10"/><path d="M276.9,206.4a36.3,36.3,0,0,1-4.7-.3,28.5,28.5,0,0,1-24.5-32,22.9,22.9,0,0,1,25.7-19.6,18.4,18.4,0,0,1,15.8,20.7h0c-1.1,8.1-11.7,19.2-16.7,12.8a1,1,0,0,1,.1-1c2.9-2.2,7.3-.5,10.2-2.7a13.7,13.7,0,0,0,5.3-9.1,17.4,17.4,0,0,0-15-19.5,21.9,21.9,0,0,0-24.6,18.8,27.5,27.5,0,0,0,23.6,30.8A34.5,34.5,0,0,0,311,175.8v-.3A43.2,43.2,0,0,0,273.9,127v-1a44.2,44.2,0,0,1,38,49.6h0a35.5,35.5,0,0,1-35.1,30.8Z" transform="translate(0 0.1)" fill="none" stroke="#ecf1f4" stroke-miterlimit="10"/><path d="M114.3,303.7h-1c0-48.1-12.2-76-22.9-100.7-9.7-22.2-18-41.3-12.4-68.5l.2-2a34.9,34.9,0,0,1,34.9-34.8,28.1,28.1,0,0,1,28,28,22.5,22.5,0,0,1-22.4,22.6h-.2a18.1,18.1,0,0,1-18.1-18.1h0a14.6,14.6,0,0,1,14.5-14.7h.1c6.5,0,16.4,7.2,11.8,11.8a1,1,0,0,1-1,0c-4.2-4.2-4.8-10.8-10.8-10.8a13.6,13.6,0,0,0-13.6,13.6h0a17.1,17.1,0,0,0,17.1,17.1A21.5,21.5,0,0,0,140,125.7h0a27,27,0,0,0-27-27,33.9,33.9,0,0,0-33.9,33.9h0l-.2,2.1c-5.5,26.9,2.4,45,12.4,67.9S114.3,255.4,114.3,303.7Z" transform="translate(0 0.1)" fill="none" stroke="#ecf1f4" stroke-miterlimit="10"/><path d="M33.8,137.5l-3.2-.3A26.1,26.1,0,0,1,8.8,107.4h0A32.5,32.5,0,0,1,45.9,80.3a40.5,40.5,0,0,1,33.8,46.2l-1-.2a39.4,39.4,0,0,0-32.9-45h0a31.5,31.5,0,0,0-36,26.2h0a25.1,25.1,0,0,0,20.9,28.6c10.9,1.7,13.9-10.2,22.8-16.6a1,1,0,0,1,1,.2C60.7,128.2,43.9,137.5,33.8,137.5Z" transform="translate(0 0.1)" fill="none" stroke="#ecf1f4" stroke-miterlimit="10"/><path d="M70.8,355.4c-18.1,0-34.9-4.4-48-13.1S.5,319,.5,303.7h1c0,15,7.8,28.4,21.8,37.8,23.9,15.9,60.9,17.2,94.2,3.3l.4.9a123.6,123.6,0,0,1-47.2,9.7Z" transform="translate(0 0.1)" fill="none" stroke="#ecf1f4" stroke-miterlimit="10"/><path d="M164.9,428.2l-1.6.7c-1.8-4.2-6.4-6.3-10.7-8s-7.7-.4-12,1.4-4.7,2.8-6.1,6.2-1.3,4.6.1,8c2.3,5.5,8.1,10.9,13.6,8.5h0a12.5,12.5,0,0,1-16.4-6.6h0a15.4,15.4,0,0,1,8.1-20.2,19.1,19.1,0,0,1,25,10Z" transform="translate(0 0.1)" fill="none" stroke="#ecf1f4" stroke-miterlimit="10"/><path d="M177.9,524.6l1.6-.6c-1.6-4.3.3-9,2.2-13.2s5.3-5.7,9.6-7.3,5.4-1.2,8.7.3,4.2,2.4,5.4,5.8c2.1,5.6,1.6,13.5-3.9,15.5h0a12.5,12.5,0,0,0,7.3-16.1h0a15.4,15.4,0,0,0-19.8-9h-.1a19.1,19.1,0,0,0-11.1,24.5Z" transform="translate(0 0.1)" fill="none" stroke="#ecf1f4" stroke-miterlimit="10"/><path d="M175.3,532.9l1-.4c-1-2.6.2-5.3,1.3-7.8s3.1-3.4,5.7-4.3a5.7,5.7,0,0,1,5.2.2,4.8,4.8,0,0,1,3.2,3.5c1.2,3.3,1,8-2.3,9.2h0a7.4,7.4,0,0,0,4.3-9.5,9.1,9.1,0,0,0-11.7-5.3h-.1a11.3,11.3,0,0,0-6.6,14.5Z" transform="translate(0 0.1)" fill="none" stroke="#ecf1f4" stroke-miterlimit="10"/><path d="M158.9,412.7h-.7c-11.1-53.2,6.7-102.1,39.8-109,0,0,1-.7,0,1.5-14.7,30-50.1,54.5-39.1,107.4Z" transform="translate(0 0.1)" fill="none" stroke="#ecf1f4" stroke-miterlimit="10"/><path d="M279.9,127.6l.3-.6c50.2,20.8,80.6,63,67.7,94.2,0,0,0,1.2-1.2-.8-16.5-29-16.9-72.1-66.8-92.8Z" transform="translate(0 0.1)" fill="none" stroke="#ecf1f4" stroke-miterlimit="10"/><path d="M287.2,128.7l-.4.5c44.5,31.3,96.4,34.3,115.9,6.7,0,0,1-.7-1.4-.6-33.3,1.6-69.9,24.5-114.1-6.6Z" transform="translate(0 0.1)" fill="none" stroke="#ecf1f4" stroke-miterlimit="10"/><path d="M116.3,336.2h.4c-8.6-34.9-33.2-58.9-54.8-53.6,0,0-.8-.1.4.9,17.3,13.7,45.4,18.2,54,52.8Z" transform="translate(0 0.1)" fill="none" stroke="#ecf1f4" stroke-miterlimit="10"/><path d="M141.5,220.6h-.4c8.6-34.9,33.2-58.9,54.8-53.6,0,0,.8-.1-.4.9-17.3,13.7-45.4,18.2-54,52.8Z" transform="translate(0 0.1)" fill="none" stroke="#ecf1f4" stroke-miterlimit="10"/><path d="M274.6,124.9h.4C266.4,90,241.8,66,220.2,71.3c0,0-.8-.1.4.9,17.3,13.7,45.4,18.2,54,52.8Z" transform="translate(0 0.1)" fill="none" stroke="#ecf1f4" stroke-miterlimit="10"/><path d="M273.5,43.1h-1v-1A17.2,17.2,0,0,0,290.6,26,13.6,13.6,0,0,0,278,11.5h-.1a10.8,10.8,0,0,0-11.4,10.1,8.5,8.5,0,0,0,8,9h0v1a9.6,9.6,0,0,1-9-10.1,11.8,11.8,0,0,1,12.4-11A14.7,14.7,0,0,1,291.7,26,18.2,18.2,0,0,1,273.5,43.1Z" transform="translate(0 0.1)" fill="none" stroke="#ecf1f4" stroke-miterlimit="10"/><path d="M169.6,40.8s1.3-5.6.2-9.9-3.3-7.5-4.8-7.1-1.8,4.2-.7,8.5S169.6,40.8,169.6,40.8Z" transform="translate(0 0.1)" fill="none" stroke="#ecf1f4" stroke-miterlimit="10"/><path d="M152.7,47.5c4.3,1.2,10-.3,10-.3s-4.2-4-8.5-5.1-8.1-.9-8.5.6S148.4,46.3,152.7,47.5Z" transform="translate(0 0.1)" fill="none" stroke="#ecf1f4" stroke-miterlimit="10"/><path d="M156,61.2c-3.2,3.1-4.8,6.6-3.7,7.7s4.6-.5,7.7-3.7,4.7-8.8,4.7-8.8S159.2,58,156,61.2Z" transform="translate(0 0.1)" fill="none" stroke="#ecf1f4" stroke-miterlimit="10"/><path d="M173.7,59.2s-1.3,5.6-.2,9.9,3.3,7.5,4.8,7.1,1.8-4.2.7-8.5S173.7,59.2,173.7,59.2Z" transform="translate(0 0.1)" fill="none" stroke="#ecf1f4" stroke-miterlimit="10"/><path d="M190.7,52.5c-4.3-1.2-10,.3-10,.3s4.2,4,8.5,5.1,8.1.9,8.5-.6S194.9,53.7,190.7,52.5Z" transform="translate(0 0.1)" fill="none" stroke="#ecf1f4" stroke-miterlimit="10"/><path d="M202.3,43.1c-6.1-6.3-19.2-3.7-29.5,5.9,9.7-9.2,13.2-21.4,8-27.9l.3-.6c.3-.6,0-.4,0-.4-8.5,2.1-12.8,14.8-9.6,28.6-3.1-13-11.9-22.2-20.2-20.9l-.4-.6c-.4-.5-.3-.2-.3-.2-2.5,8.4,6.4,18.5,19.9,22.6-12.8-3.8-25.1-.7-28.2,7h-.7c-.6.1-.3.2-.3.2,6.1,6.3,19.2,3.7,29.5-5.9-9.7,9.2-13.2,21.4-8,27.9l-.3.6c-.3.6,0,.4,0,.4,8.5-2.1,12.8-14.8,9.7-28.5,3.1,13,11.9,22.1,20.2,20.9l.4.6c.4.5.3.2.3.2,2.5-8.4-6.4-18.5-19.9-22.6,12.8,3.8,25.1.7,28.2-7h.7C202.6,43.3,202.3,43.1,202.3,43.1ZM179.9,22.7c-.9,8.3,1.6,18.3-8.3,27.1l-.2-.7h.2C168.6,36.6,175.8,29.8,179.9,22.7Zm-27.8,6.5c6.7,5,16.6,7.8,19.3,20.7l-.6-.2v-.2c-12.3-3.6-14.5-13.2-18.7-20.3Zm18.8,21.2c-9.3,8.9-18.8,6-27,6.1,7.7-3.3,15-10.5,27.6-6.4l-.5.4Zm-7.4,26.9c.9-8.3-1.6-18.3,8.3-27.1v.6h-.2C174.7,63.4,167.5,70.2,163.5,77.3Zm27.8-6.5c-6.7-5-16.6-7.8-19.4-20.7l.6.2v.2c12.3,3.5,14.6,13.2,18.7,20.3Zm-19.5-21,.5-.4h.1c9.3-8.9,18.8-6,27-6.1C191.8,46.8,184.4,54,171.8,49.8Z" transform="translate(0 0.1)" fill="none" stroke="#ecf1f4" stroke-miterlimit="10"/><path d="M187.3,38.8c3.2-3.1,4.8-6.6,3.7-7.7s-4.6.5-7.7,3.7-4.7,8.8-4.7,8.8S184.2,41.9,187.3,38.8Z" transform="translate(0 0.1)" fill="none" stroke="#ecf1f4" stroke-miterlimit="10"/><path d="M239.1,296s1.3-5.6.2-9.9-3.3-7.5-4.8-7.1-1.8,4.2-.7,8.5S239.1,296,239.1,296Z" transform="translate(0 0.1)" fill="none" stroke="#ecf1f4" stroke-miterlimit="10"/><path d="M222.2,302.7c4.3,1.2,10-.3,10-.3s-4.2-4-8.5-5.1-8.1-.9-8.5.6S217.9,301.6,222.2,302.7Z" transform="translate(0 0.1)" fill="none" stroke="#ecf1f4" stroke-miterlimit="10"/><path d="M225.5,316.4c-3.2,3.1-4.8,6.6-3.7,7.7s4.5-.5,7.7-3.7,4.7-8.8,4.7-8.8S228.6,313.3,225.5,316.4Z" transform="translate(0 0.1)" fill="none" stroke="#ecf1f4" stroke-miterlimit="10"/><path d="M243.2,314.4s-1.3,5.6-.2,9.9,3.3,7.5,4.8,7.1,1.8-4.2.7-8.5S243.2,314.4,243.2,314.4Z" transform="translate(0 0.1)" fill="none" stroke="#ecf1f4" stroke-miterlimit="10"/><path d="M260.1,307.7c-4.3-1.2-10,.3-10,.3s4.2,4,8.5,5.1,8.1.9,8.5-.6S264.4,308.9,260.1,307.7Z" transform="translate(0 0.1)" fill="none" stroke="#ecf1f4" stroke-miterlimit="10"/><path d="M271.7,298.4c-6.1-6.3-19.2-3.7-29.5,5.9,9.7-9.2,13.2-21.4,8-27.9l.3-.6c.3-.6,0-.4,0-.4-8.5,2.1-12.8,14.8-9.6,28.6-3.1-13-11.9-22.2-20.2-20.9l-.4-.6c-.4-.5-.3-.2-.3-.2-2.5,8.4,6.4,18.5,19.9,22.6-12.8-3.8-25.1-.7-28.2,7H211c-.6.1-.3.2-.3.2,6.1,6.3,19.2,3.7,29.5-5.9-9.7,9.2-13.2,21.4-8,27.9l-.3.6c-.3.6,0,.4,0,.4,8.5-2.1,12.8-14.8,9.7-28.5,3.1,13,11.9,22.1,20.2,20.9l.4.6c.4.5.3.2.3.2,2.5-8.4-6.4-18.5-19.9-22.6,12.8,3.8,25.1.7,28.2-7h.7C272,298.5,271.7,298.4,271.7,298.4ZM249.3,278c-.9,8.3,1.6,18.3-8.3,27.1l-.2-.7h.2c-2.9-12.6,4.3-19.3,8.3-26.5Zm-27.7,6.5c6.7,5,16.6,7.8,19.3,20.7l-.6-.2v-.2C228,301.2,225.7,291.5,221.6,284.5Zm18.8,21.2c-9.3,8.9-18.8,6-27,6.1,7.7-3.4,15-10.5,27.6-6.4l-.5.4Zm-7.5,26.8c.9-8.3-1.6-18.3,8.3-27.1v.6H241C244.2,318.6,237,325.4,232.9,332.5Zm27.8-6.5c-6.7-5-16.6-7.8-19.3-20.7l.6.2v.2c12.3,3.6,14.5,13.2,18.7,20.3Zm-19.4-20.9.5-.4h.1c9.3-8.9,18.8-6,27-6.1-7.7,3.4-15,10.6-27.6,6.5Z" transform="translate(0 0.1)" fill="none" stroke="#ecf1f4" stroke-miterlimit="10"/><path d="M256.8,294c3.2-3.1,4.8-6.6,3.7-7.7s-4.6.5-7.7,3.7-4.7,8.8-4.7,8.8S253.6,297.2,256.8,294Z" transform="translate(0 0.1)" fill="none" stroke="#ecf1f4" stroke-miterlimit="10"/></svg>