<?xml version="1.0" encoding="utf-8"?>
<!-- Generator: Adobe Illustrator 20.1.0, SVG Export Plug-In . SVG Version: 6.00 Build 0)  -->
<svg version="1.1" id="Layer_1" xmlns="http://www.w3.org/2000/svg" xmlns:xlink="http://www.w3.org/1999/xlink" x="0px" y="0px"
	 viewBox="0 0 800 600" style="enable-background:new 0 0 800 600;" xml:space="preserve">
<style type="text/css">
	.st0{clip-path:url(#SVGID_2_);fill:#F8E4E8;}
</style>
<g>
	<defs>
		<rect id="SVGID_1_" width="800" height="600"/>
	</defs>
	<clipPath id="SVGID_2_">
		<use xlink:href="#SVGID_1_"  style="overflow:visible;"/>
	</clipPath>
	<path class="st0" d="M638,18.5c17.1,2.5,35.8-1.3,51.8-10.1c3.9-2.3,7.6-4.7,11.1-7.4h-4.5c-0.6,0.4-1.3,0.9-1.9,1.3
		c-25.6,17.7-66.1,18-81.9-1.3H607C613.7,10.3,625.2,17.3,638,18.5"/>
	<path class="st0" d="M731.4,27.5c-9.3,0.3-13.8,3.3-13.8,2.9c0.1,0.4,4.7-2.4,13.8-2.4c8.7,0.2,23.1,5.2,29.8,20.2
		c7.1,14.1,2.8,37.6-15.8,48.2c-17.8,11-46.7,5.5-58.7-16.1c-9.1-15.5-7.9-34.1-0.5-48.4c0.1-0.1,0.2-0.2,0.3-0.3
		C695.7,22.8,705,12.5,714,1h-10.2c-11.1,12.1-23.2,22.3-34.2,28.6c-14.6,8.6-26.2,10.7-27.5,10.9c-13.1,1.9-23.7,0.7-24.2,5.3
		c-0.6,4,12.7,6.1,25.9,0.8c1.1-0.5,12.7-3.2,26.9-12c5.1-3.1,10.4-7.1,15.8-11.6c-11.1,11.6-23.6,23.2-38,34.4
		c-15,9.7-39.6,25.2-41.5,26.5c-8.6,5.4-23.3,10-35.5,4.3c-12.2-5.1-22.7-22.1-19.1-37.1c3-15.9,21.7-25.6,34.3-22.4
		c13.1,2.7,21.3,17.6,20.1,27.4c-1,10.2-8.1,16.4-13.3,18.5c-5.5,2.1-10.9,1.4-11,2.2c-0.1,0.2,3.4,1.7,10,0.2
		c6.1-1.5,15.9-7.7,17.8-20.3c2.2-11.8-5.5-28.7-22.2-32.6c-15.9-4.4-36.5,6.3-40.4,25.5c-4.4,18.7,7.2,37.2,22.1,43
		c5.1,2.2,10.2,3.1,15.1,3.2c-48.2,21.4-107.1,32.5-169.1,20.2c-43.6-7.8-87.4-27.8-123.1-60.1C275.1,40.2,259.7,21.7,247,1h-8.3
		C252.2,23.7,269,44,288,61c3.3,3,6.8,5.9,10.3,8.7c-15.1-5.5-33.6-9.9-55-10.5c-36.4-1.3-81.8,9.8-119.9,40.9
		c-18.9,15.3-36,35.5-46.7,60.2c-10.4,24.7-13.8,53.3-8.6,81.4c10.4,55.9,55.7,101.9,105.7,106.9c50,6.5,93.2-23,109.5-55.8
		c16.8-33.4,12.1-66.7,0.9-83.7c-10.8-16.4-22.7-19.5-23.6-20.3c0.9,0.8,12.7,4.4,22.7,20.9c10.4,16.9,13.9,49.6-3.1,81.4
		c-16.4,31.1-58.4,58.3-105.5,51.5c-47-5.3-89.6-49.1-99.5-102.2c-4.5-24.1-2.3-48.6,5.4-70.5c-3.1,12.9-5.8,29.3-5.3,46.5
		c0.3,18.8,5,37.7,11.7,50.9c6.7,13.2,13.8,21,14.5,22c7,9.8,15.7,15.3,18.1,11.9c2.5-3.6-5.1-9.3-13.5-16.2
		c-1.8-0.3-26.2-28.1-27.8-65.1c-2-21.2,1.4-42.3,4.9-56.9c2.9-6.8,6.3-13.2,10.1-19.3c-2.9,7.3-5.9,16.4-8.1,26.3
		c-6.8,25.2-4.8,55.5,3.3,68.3c2.1,4.5,7.6,11.8,17.4,16.9c9.3,5.3,25.6,7.7,36.9-4.1c5-6.1,6.7-13.5,6.1-21.2
		c-0.7-7.9-6.6-14.8-13.4-17.4c-13.8-6.4-29.6,3.1-30.9,13.9c0.6,1.4,0.8-8.2,16.8-11.3c7.1-1,20.9,3.6,20.9,17.5
		c-0.4,6.6-3.1,15-10.7,18c-7.8,3.2-18.4,2.2-27.8-4.2c-19.4-12.7-21-36.1-20.4-52.2c0.8-16.9,4.3-30.4,7.3-40.6
		c1.4-4.6,2.7-8.5,4-11.9c9.2-14.2,20.5-26.5,32.8-36.7c36.4-30.6,80.3-42.4,116-42c23.7,0.1,44,4.9,60.1,10.9
		c33.7,25.6,72.7,41.6,111.3,48.2c69.7,13.3,135.1-2.4,185.9-28.9c3.4-1.3,6.5-2.9,9.1-4.8c0.2-0.2,0.4-0.3,0.6-0.5
		c7.4-4.2,14.5-8.7,21.2-13.3c13.9-8.7,30.6-20.7,48.5-36.7c-5.1,13.9-4.8,30.4,3.5,44.6c13.1,23.4,44.4,29,63.4,16.9
		c20-11.8,23.7-36.9,15.9-51.5C755.3,31.9,740.2,27.4,731.4,27.5"/>
	<path class="st0" d="M705.7,1h-6.3c-1.9,2.5-3.8,5-5.6,7.6c-35.2,50.5-45.1,107.6-44.3,147c0.5,40,8.9,63.7,9.4,63.4
		c0.8-0.1-6.3-24-5.9-63.4c0.1-39,10.4-94.7,44.9-144.2C700.5,7.9,703.1,4.4,705.7,1"/>
	<path class="st0" d="M677,275.4c-0.4-13,2.7-21.5,1.7-25.8c-2.9-11.4-9.7-25.6-17.8-23.2c0.6-0.1-7.1,2.3-4.7,21.1
		c4.2,14.6,3.6,16.8,13.3,31.7c-0.7,0.6-12-15.8-12.3-19.6c-1.7-3.7-3.8-11.9-3.8-19.3c-0.2-7.4,1.1-13.7,1.1-13.6
		c-6.6-4.8-11.4-1.8-14.2,4.9c-2.8,6.6-2.5,16.3-1.7,21.4c0.8,12.2,13,31.5,27.6,39c14.3,8.3,27.9,9,30.8,7.1
		C689.1,298.6,677.1,288.6,677,275.4"/>
	<path class="st0" d="M688.4,223.2c-3.4-1.1-13.9-0.3-13.8-0.1c-1.7,10.2,5.6,9.3,7.5,10c2.5,0.5,6.9-0.5,11.6,1.2
		c4.9,1.5,9.2,6,11.1,6.7c-2.2-3.3-2.6-8.2-2.7-16.6c0-8.4-7.2-16.2-12.2-17c-14.1-2.4-18.7,7.5-16.3,11.5c0,0.3,1.7,2.5,9.9,2.1
		c6.6,0.4,8.1,1,13.3,5.9C695,225.7,689.7,222.9,688.4,223.2"/>
	<path class="st0" d="M160.1,50.7c16.8,1.1,31.7,4.6,41.1,4.2c25.3-0.7,43.1-5.5,38.4-13.9c0,0.5-4-7.1-30.6-6.9
		c-21.8,2.1-24.6,0.8-49.2,8.4c-0.4-1,27-9.4,32-9.1c11.4-3.4,46.8,0.3,46.6,1.3c12-12.4-21-18.9-33.9-17.8
		c-14.4-0.6-40.6,6.3-58.2,20.3c-18.1,13.4-26.8,30.7-26.2,34.7C124.9,61.4,142.9,49.1,160.1,50.7"/>
	<path class="st0" d="M186.9,1h-17.4c5.1,0.6,16.2,2.8,16.2,2.9C186.6,2.8,186.9,1.9,186.9,1"/>
	<path class="st0" d="M174.6,2.8c-5.4-0.5-7.6-1.1-11.1-1.8h-12.9c1.3,0.6,2.6,1.4,3.7,2.3c5.4,4.4,10.9,8.2,14.9,9
		c10.8,2.1,18.1-1.5,16.6-5.4C185.8,7,184.5,4.2,174.6,2.8"/>
	<path class="st0" d="M121.7,337.9c-0.4,0.2,0.2,2.8,3.8,14.2c1.7,9.2,1.4,11.5-1.8,20.7c1-3.8,2.3-11.2,1.8-12.9
		c0.9-5.6-5.2-20-5.8-19.6c-7.6,0.7-2.1,10.6-2.3,14.8c0.7,4.5,1.3,13.2-0.9,21.9c-1.9,8.6-5.7,16.2-5.7,18.1
		c2.7-4.6,8.5-11.2,15.2-17.1c6.8-5.6,11.3-16,10.4-22.7C133.8,336.6,122.2,333.4,121.7,337.9"/>
	<path class="st0" d="M99.8,357.5c3.4,1.5,9.2-0.2,12.2-4.1c3.1-3.8,3.7-7.8,3.6-10.3c-1.9-13.5-10.4-14.8-12.3-12
		c-0.2,0.1-1.1,2.2,1.6,9.8c1.2,5.5,1.5,8.7-3.4,11.6c1.8-1.7,4-5.1,3.1-6.5c0.5-3.4-3.6-13.2-3.8-13.2c-7.5,0.4-4.3,8.1-4.2,10.2
		c-0.6,3.5,3.6,2.6-0.1,5.8c-4.2,2.4-10.7,2.6-11.9,3.6C88.5,352.4,93,354.9,99.8,357.5"/>
	<path class="st0" d="M556.3,94.1c1.1-7.6-9.1-4.9-12.8-4.5c-4.3,0.5-11.6,2.6-18.2,3c-6.7,0.7-12.3-1.4-13.9-1.8
		c3,2.7,8.5,6.2,14.4,11.2c5.7,4.9,13.8,7.4,18.3,6.7c12.8-1.8,17-9.5,13.8-11.8c0-0.1-2.4-1.5-11.8,1.1c-7.7,1.6-9.1,1.7-17.7,0.5
		c2.5,0.1,9.9,0,11.3-0.4C544,97.6,556.4,94.2,556.3,94.1"/>
</g>
</svg>
