<?xml version="1.0" encoding="utf-8"?>
<!-- Generator: Adobe Illustrator 20.1.0, SVG Export Plug-In . SVG Version: 6.00 Build 0)  -->
<svg version="1.1" id="Layer_1" xmlns="http://www.w3.org/2000/svg" xmlns:xlink="http://www.w3.org/1999/xlink" x="0px" y="0px"
	 viewBox="0 0 800 600" style="enable-background:new 0 0 800 600;" xml:space="preserve">
<style type="text/css">
	.st0{clip-path:url(#SVGID_2_);fill:#F8E8EC;}
</style>
<g>
	<defs>
		<rect id="SVGID_1_" width="800" height="600"/>
	</defs>
	<clipPath id="SVGID_2_">
		<use xlink:href="#SVGID_1_"  style="overflow:visible;"/>
	</clipPath>
	<path class="st0" d="M486.2,519.3c16.1,0,30-12.1,31.8-28.5c1.2-10.6-1.8-21-8.5-29.4c-6.7-8.3-16.2-13.6-26.8-14.8
		c-59.6-6.6-92.5,33.5-116.5,62.9c-1.1,1.4-2.2,2.7-3.3,4l0.6,0.5c1.1-1.3,2.2-2.7,3.3-4c23.9-29.2,56.6-67.7,115.8-61.1
		c10.4,1.2,18.3,4.8,24.8,13c6.5,8.2,8,18.4,6.9,28.8c-1.9,17.2-14.5,29.5-31.6,27.7c-13.7-1.5-5.6-24.8-22.1-27.6
		c-0.2,0-0.6-0.2-0.7-0.1c-11.1,8.9,8.6,26.8,22.7,28.4C483.8,519.2,485,519.3,486.2,519.3"/>
	<path class="st0" d="M359.8,580h0.7c0-103.5,44.7-194.5,84.2-274.8c32.3-65.7,60.1-122.4,53.8-169l-0.7,0.1
		c6.3,46.4-23,103-55.2,168.5C403.1,385.2,359.8,476.3,359.8,580"/>
	<path class="st0" d="M496.2,109.6c-5.5,5.5-1.5,10-2.6,16.1c-1.1,6.5,4.8,13.6,4.8,13.6s1.6-16.1,9.9-29.7
		c8.6-14-9.9-29.7-9.9-29.7S500.6,105.2,496.2,109.6"/>
	<path class="st0" d="M479.2,164.4c-3.1,7.1,2.2,9.9,3.4,16c1.3,6.4,9.3,10.9,9.3,10.9s-4.3-15.6-1.5-31.2
		c2.9-16.1-19.9-24.1-19.9-24.1S481.8,158.7,479.2,164.4"/>
	<path class="st0" d="M465,224.2c-2.2,5,1.5,6.9,2.4,11.2c0.9,4.5,6.5,7.7,6.5,7.7s-3-10.9-1-21.9c2.1-11.3-14-16.9-14-16.9
		S466.8,220.3,465,224.2"/>
	<path class="st0" d="M430.2,293c-2.1,4.7,1.5,6.6,2.3,10.7c0.9,4.3,6.2,7.3,6.2,7.3s-2.9-10.4-1-20.9c2-10.8-13.3-16.1-13.3-16.1
		S431.8,289.2,430.2,293"/>
	<path class="st0" d="M407.1,340.2c-2.1,4.7,1.5,6.6,2.3,10.7c0.9,4.3,6.2,7.3,6.2,7.3s-2.9-10.4-1-20.9c2-10.8-13.3-16.1-13.3-16.1
		S408.8,336.4,407.1,340.2"/>
	<path class="st0" d="M388.3,385.6c-2.1,4.7,1.5,6.6,2.3,10.7c0.9,4.3,6.2,7.3,6.2,7.3s-2.9-10.4-1-20.9c2-10.8-13.3-16.1-13.3-16.1
		S390,381.8,388.3,385.6"/>
	<path class="st0" d="M354.3,488.2c-3.1,7,2.1,9.7,3.4,15.6c1.3,6.3,9.2,10.7,9.2,10.7s-4.3-15.3-1.5-30.6
		c2.9-15.8-19.6-23.6-19.6-23.6S356.8,482.6,354.3,488.2"/>
	<path class="st0" d="M416.6,388.7c-0.4,5.2-4.4,5.1-7,8.3c-2.8,3.4-8.9,3.5-8.9,3.5s7.5-7.8,10.7-17.9c3.3-10.4,19.3-7.9,19.3-7.9
		S416.9,384.6,416.6,388.7"/>
	<path class="st0" d="M398.9,460.3c-0.6,7.8-6.7,7.8-10.7,12.6c-4.2,5.1-13.5,5.3-13.5,5.3s11.3-11.9,16.2-27.2
		c5.1-15.8,29.3-12,29.3-12S399.3,454,398.9,460.3"/>
	<path class="st0" d="M428.4,470.4c-4.3,6.6-9.6,3.7-15.4,6c-6.2,2.5-14.4-1.8-14.4-1.8s15.6-5,27.2-16.1c12-11.5,31.5,3.4,31.5,3.4
		S431.8,465.1,428.4,470.4"/>
	<path class="st0" d="M456.5,302.2c-0.4,5.2-4.4,5.1-7,8.3c-2.8,3.4-8.9,3.5-8.9,3.5s7.5-7.8,10.7-17.9c3.3-10.4,19.3-7.9,19.3-7.9
		S456.8,298.1,456.5,302.2"/>
	<path class="st0" d="M508,182.4c-0.4,5.2-4.4,5.1-7,8.3c-2.8,3.4-8.9,3.5-8.9,3.5s7.5-7.8,10.7-17.9c3.3-10.4,19.3-7.9,19.3-7.9
		S508.3,178.3,508,182.4"/>
	<path class="st0" d="M484.9,241c-0.4,5.2-4.4,5.1-7,8.3c-2.8,3.4-8.9,3.5-8.9,3.5s7.5-7.8,10.7-17.9c3.3-10.4,19.3-7.9,19.3-7.9
		S485.2,236.9,484.9,241"/>
	<path class="st0" d="M439,353c-2.2,4.7-6,3.2-9.6,5.2c-3.8,2.1-9.6,0-9.6,0s9.8-4.6,16.5-12.9c6.9-8.5,20.9-0.4,20.9-0.4
		S440.8,349.3,439,353"/>
	<path class="st0" d="M359.3,578.2l-0.4,0.1c-13.5-58.4-50.7-103.9-83.4-144.1c-26.8-32.8-49.9-61.2-52.5-88.3l0.4,0
		c2.5,27,26.4,55.1,53.2,87.9C309.4,473.9,345.7,519.6,359.3,578.2"/>
	<path class="st0" d="M220.8,330.5c3.8,2.4,2.2,5.4,3.6,8.8c1.5,3.5-0.9,8.3-0.9,8.3s-3-8.9-9.5-15.4c-6.7-6.8,1.7-18,1.7-18
		S217.8,328.6,220.8,330.5"/>
	<path class="st0" d="M237.6,359.2c2.7,3.6,0.1,5.9,0.1,9.5c0.1,3.8-3.8,7.4-3.8,7.4s0.4-9.4-3.2-17.8c-3.8-8.7,8.1-16.2,8.1-16.2
		S235.4,356.3,237.6,359.2"/>
	<path class="st0" d="M253.4,391.1c1.9,2.5,0,4.1,0.1,6.6c0.1,2.7-2.7,5.2-2.7,5.2s0.3-6.6-2.3-12.5c-2.6-6.1,5.7-11.4,5.7-11.4
		S251.9,389.1,253.4,391.1"/>
	<path class="st0" d="M282.1,425.4c1.8,2.4,0,3.9,0.1,6.3c0.1,2.5-2.6,4.9-2.6,4.9s0.3-6.3-2.2-11.9c-2.5-5.8,5.4-10.8,5.4-10.8
		S280.6,423.4,282.1,425.4"/>
	<path class="st0" d="M301.2,449c1.8,2.4,0,3.9,0.1,6.3c0.1,2.5-2.6,4.9-2.6,4.9s0.3-6.3-2.2-11.9c-2.5-5.8,5.4-10.8,5.4-10.8
		S299.8,447.1,301.2,449"/>
	<path class="st0" d="M317.8,472.1c1.8,2.4,0,3.9,0.1,6.3c0.1,2.5-2.6,4.9-2.6,4.9s0.3-6.3-2.2-11.9c-2.5-5.8,5.4-10.8,5.4-10.8
		S316.3,470.2,317.8,472.1"/>
	<path class="st0" d="M350.4,525.6c2.6,3.5,0.1,5.8,0.2,9.3c0.1,3.7-3.8,7.2-3.8,7.2s0.4-9.2-3.2-17.5c-3.7-8.5,8-15.9,8-15.9
		S348.3,522.8,350.4,525.6"/>
	<path class="st0" d="M302.2,477.6c0.9,2.9,3.2,2.3,5.1,3.8c2,1.5,5.5,0.8,5.5,0.8s-5.2-3.4-8.4-8.7c-3.3-5.4-11.9-1.9-11.9-1.9
		S301.5,475.3,302.2,477.6"/>
	<path class="st0" d="M321.6,515.7c1.4,4.3,4.8,3.5,7.7,5.7c3.1,2.3,8.3,1.2,8.3,1.2s-7.9-5.2-12.7-13.2c-4.9-8.3-18.1-2.9-18.1-2.9
		S320.5,512.2,321.6,515.7"/>
	<path class="st0" d="M268.4,434c0.9,2.9,3.1,2.3,5.1,3.8c2,1.5,5.5,0.8,5.5,0.8s-5.2-3.4-8.4-8.7c-3.2-5.4-11.9-1.9-11.9-1.9
		S267.7,431.7,268.4,434"/>
	<path class="st0" d="M223.7,373.1c0.9,2.9,3.2,2.3,5.1,3.8c2,1.5,5.5,0.8,5.5,0.8s-5.2-3.4-8.4-8.7c-3.2-5.4-11.9-1.9-11.9-1.9
		S223,370.8,223.7,373.1"/>
	<path class="st0" d="M244.4,403.2c0.9,2.9,3.2,2.3,5.1,3.8c2,1.5,5.5,0.8,5.5,0.8s-5.2-3.4-8.4-8.7c-3.3-5.4-11.9-1.9-11.9-1.9
		S243.7,400.9,244.4,403.2"/>
	<path class="st0" d="M284.9,460.4c1.9,2.4,3.8,1,6.1,1.7c2.4,0.7,5.4-1.2,5.4-1.2s-6.1-1.3-11-5.1c-5-3.9-11.8,2.5-11.8,2.5
		S283.4,458.5,284.9,460.4"/>
	<path class="st0" d="M396.9,434.6c30.3-16.9,57.8-37.1,83.5-56c41-30.2,76.4-56.2,109.1-57.6l0,0.5c-32.5,1.4-67.7,28.4-108.7,58.5
		c-25.7,18.9-53.3,38.9-83.6,55.5C397.2,435.2,397,434.9,396.9,434.6"/>
	<path class="st0" d="M608,319.3c-3.1,4.4-6.7,2.3-10.7,3.7c-4.3,1.5-9.9-1.6-9.9-1.6s10.8-3.1,19.1-10.4c8.5-7.6,21.5,3.1,21.5,3.1
		S610.5,315.8,608,319.3"/>
	<path class="st0" d="M572.6,337.6c-4.5,3-7-0.3-11.3-0.4c-4.6-0.1-8.6-5.1-8.6-5.1s11.2,1.1,21.6-2.8c10.7-4,18.9,10.7,18.9,10.7
		S576.2,335.2,572.6,337.6"/>
	<path class="st0" d="M533.4,354.7c-3.1,2.1-4.9-0.2-8-0.3c-3.2-0.1-6-3.5-6-3.5s7.9,0.7,15.1-2c7.5-2.8,13.3,7.5,13.3,7.5
		S535.9,353,533.4,354.7"/>
	<path class="st0" d="M490.5,387c-3,2-4.7-0.2-7.6-0.3c-3-0.1-5.8-3.4-5.8-3.4s7.5,0.7,14.4-1.9c7.1-2.7,12.6,7.1,12.6,7.1
		S492.9,385.4,490.5,387"/>
	<path class="st0" d="M461,408.6c-3,2-4.7-0.2-7.6-0.3c-3-0.1-5.8-3.4-5.8-3.4s7.5,0.7,14.4-1.9c7.1-2.7,12.7,7.1,12.7,7.1
		S463.4,407,461,408.6"/>
	<path class="st0" d="M432.3,427.1c-3,2-4.7-0.2-7.6-0.3c-3-0.1-5.8-3.4-5.8-3.4s7.5,0.7,14.4-1.9c7.1-2.7,12.7,7.1,12.7,7.1
		S434.7,425.4,432.3,427.1"/>
	<path class="st0" d="M426.6,408.1c-3.5,0.9-3,3.6-4.8,5.8c-2,2.3-1.3,6.5-1.3,6.5s4.4-6.1,11-9.5c6.7-3.6,3.1-14.2,3.1-14.2
		S429.4,407.4,426.6,408.1"/>
	<path class="st0" d="M481,370.1c-3.5,0.9-3,3.6-4.8,5.8c-2,2.3-1.3,6.5-1.3,6.5s4.4-6.1,11-9.5c6.7-3.6,3.1-14.2,3.1-14.2
		S483.8,369.4,481,370.1"/>
	<path class="st0" d="M556.7,320.2c-3.5,0.9-3,3.6-4.8,5.8c-2,2.3-1.3,6.5-1.3,6.5s4.4-6.1,11-9.5c6.7-3.6,3.1-14.2,3.1-14.2
		S559.5,319.5,556.7,320.2"/>
	<path class="st0" d="M519.4,343.2c-3.5,0.9-3,3.6-4.8,5.8c-2,2.3-1.3,6.5-1.3,6.5s4.4-6.1,11-9.5c6.7-3.6,3.1-14.2,3.1-14.2
		S522.2,342.5,519.4,343.2"/>
	<path class="st0" d="M448.4,388.3c-2.9,2.1-1.5,4.5-2.4,7.2c-1,2.9,1.2,6.6,1.2,6.6s1.9-7.3,6.8-12.9c5-5.8-2.3-14.3-2.3-14.3
		S450.7,386.7,448.4,388.3"/>
	<path class="st0" d="M361.3,577.3l-1.1-1c64.9-76.2,37.6-146,13.6-207.6c-19.2-49-37.2-95.3-5.4-136.9
		c27.7-36.2,79.7-43.1,115.9-15.4c14.1,10.8,23.1,26.3,25.4,43.9c2.3,17.5-2.3,35-13.1,49c-8.6,11.3-21.1,20-35.2,21.9
		c-14.1,1.9-36,1.9-39.3-11.9c-0.1-0.4,0.5-1.1,0.9-1.2c13.7-1.8,24.6,10.5,38.2,8.7c13.7-1.8,25.8-7.4,34.2-18.4
		c10.5-13.8,15-30.8,12.8-47.9c-2.3-17.2-11.1-32.4-24.9-42.9c-35.6-27.2-86.6-20.4-113.8,15.2c-31.3,40.9-10.4,86.9,8.6,135.5
		C402.3,430.2,426.8,500.4,361.3,577.3"/>
	<path class="st0" d="M372.2,478.2l0.6-0.4c-32.7-49.9-36.2-101.8-38.7-139.7c-1.9-28.6-3.3-49.3-15.6-57.3
		c-15.1-9.9-35.4-5.7-45.3,9.4c-7.9,12.1-4.6,28.4,7.5,36.3c4.7,3.1,10.3,4.2,15.8,3c5.5-1.1,10.2-4.4,13.3-9.1
		c2.5-3.8,3.3-8.3,2.4-12.7c-0.9-4.4-3.5-8.2-7.3-10.7c-6.3-4.1-20.4-3.4-18.9,3.9c0,0.2,0.4,0.4,0.6,0.4c6.9-1.4,11.9-7.6,17.8-3.7
		c3.6,2.4,6.1,6,7,10.2c0.9,4.2,0.1,8.6-2.3,12.2c-3,4.5-7.5,7.6-12.9,8.7c-0.1,0-0.2,0-0.3,0.1c-5.2,1-10.5-0.1-14.9-3
		c-11.8-7.7-15-23.5-7.3-35.3c9.7-14.7,29.5-18.9,44.3-9.2c12,7.9,13.4,28.4,15.3,56.8C335.9,376.2,339.4,428.1,372.2,478.2"/>
	<path class="st0" d="M347.6,279.9c11.2-2.1,18.6-13,16.5-24.3c-2.7-14-16.2-23.2-30.2-20.5c-17.4,3.3-28.9,20.2-25.6,37.7l0.7-0.1
		c-3.3-17,8-33.5,25-36.8c13.6-2.6,26.8,6.4,29.3,19.9c2.1,10.8-5.1,21.3-15.9,23.4c-8.6,1.6-17-4-18.6-12.7
		c-1.3-6.9,6.1-9,10.1-14.8c0.1-0.2,0-0.6-0.1-0.7c-6.1-4.2-12,8.4-10.7,15.7C329.9,275.7,338.6,281.6,347.6,279.9"/>
	<path class="st0" d="M508.3,277.6c-6.1-26.1,19.1-37.6,45.6-49.9c24.7-11.4,50.3-23.1,49.7-47.6c-0.2-6.5-2.8-12.5-7.5-17
		c-4.7-4.5-10.9-6.9-17.4-6.7c-5.2,0.1-10,2.3-13.6,6c-3.6,3.8-5.5,8.7-5.4,13.9c0.2,8.5,7.3,15.3,15.9,15.1
		c3.3-0.1,6.4-1.4,8.6-3.8c2.3-2.4,3.5-5.5,3.4-8.8c-0.1-2.6-1.1-5.1-3-6.9c-1.9-1.8-5.1-0.9-7-2.7c-0.1-0.1-0.1-0.4,0-0.5
		c1.9-2,5.4,0.9,7.4,2.8c2,1.9,3.1,4.5,3.2,7.2c0.1,3.4-1.2,6.7-3.5,9.2c-2.4,2.5-5.5,3.9-9,4c-8.8,0.2-16.1-6.8-16.4-15.6
		c-0.1-5.3,1.8-10.4,5.5-14.2c3.7-3.9,8.6-6,13.9-6.2c6.6-0.2,12.9,2.3,17.7,6.8c4.8,4.6,7.5,10.7,7.7,17.4
		c0.6,24.8-25.1,36.6-50,48.1c-26.4,12.1-51.3,23.6-45.4,49.3L508.3,277.6z"/>
	<path class="st0" d="M508.4,277.7c-3.6-15.7,11.4-22.6,27.4-30c14.9-6.8,30.2-13.9,29.9-28.6c-0.1-3.9-1.7-7.5-4.5-10.2
		c-2.8-2.7-6.5-4.1-10.4-4c-3.1,0.1-6,1.4-8.2,3.6c-2.2,2.3-3.3,5.2-3.2,8.3c0.1,5.1,4.4,9.2,9.5,9.1c2,0,3.8-0.9,5.2-2.3
		c1.4-1.4,2.1-3.3,2-5.3c0-1.6-0.7-3-1.8-4.1c-1.1-1.1-3.1-0.5-4.2-1.6c-0.1-0.1-0.1-0.2,0-0.3c1.1-1.2,3.2,0.6,4.4,1.7
		c1.2,1.1,1.9,2.7,1.9,4.3c0,2.1-0.7,4-2.1,5.5s-3.3,2.3-5.4,2.4c-5.3,0.1-9.7-4.1-9.8-9.4c-0.1-3.2,1.1-6.2,3.3-8.5
		c2.2-2.3,5.2-3.6,8.4-3.7c4-0.1,7.8,1.4,10.7,4.1c2.9,2.7,4.5,6.5,4.6,10.4c0.4,14.9-15.1,22-30,28.9
		c-15.9,7.3-30.8,14.2-27.3,29.6L508.4,277.7z"/>
	<path class="st0" d="M351.2,437.6c-13.1-9.3-6.4-24.5,0.6-40.6c6.6-15,13.4-30.4,3.4-41.2c-2.7-2.9-6.3-4.5-10.2-4.6
		c-3.9-0.1-7.6,1.3-10.5,3.9c-2.3,2.1-3.6,5-3.7,8.1c-0.1,3.1,1,6.1,3.1,8.4c3.5,3.8,9.4,4,13.1,0.5c1.4-1.3,2.3-3.2,2.4-5.2
		c0.1-2-0.6-3.9-2-5.3c-1.1-1.2-2.5-1.8-4.1-1.9c-1.6-0.1-2.7,1.6-4.2,1.6c-0.1,0-0.2-0.1-0.2-0.2c0.1-1.7,2.8-1.7,4.4-1.7
		c1.7,0.1,3.2,0.8,4.3,2c1.4,1.5,2.1,3.5,2.1,5.5c-0.1,2.1-0.9,4-2.4,5.4c-3.9,3.6-10,3.4-13.6-0.5c-2.2-2.3-3.3-5.4-3.2-8.6
		c0.1-3.2,1.5-6.2,3.8-8.3c2.9-2.7,6.7-4.1,10.7-4c4,0.1,7.7,1.8,10.4,4.7c10.2,10.9,3.3,26.5-3.3,41.5c-7,16-13.7,31.1-0.7,40.2
		L351.2,437.6z"/>
	<path class="st0" d="M308.3,274.1c-13.1-9.3-6.4-24.5,0.6-40.6c6.6-15,13.4-30.4,3.4-41.2c-2.7-2.9-6.3-4.5-10.2-4.6
		c-3.9-0.1-7.6,1.3-10.5,3.9c-2.3,2.1-3.6,5-3.7,8.1c-0.1,3.1,1,6.1,3.1,8.4c3.5,3.7,9.4,4,13.1,0.5c1.5-1.3,2.3-3.2,2.4-5.2
		c0.1-2-0.6-3.9-2-5.3c-1.1-1.2-2.5-1.8-4.1-1.9c-1.6-0.1-2.7,1.6-4.2,1.6c-0.1,0-0.2-0.1-0.2-0.2c0.1-1.7,2.8-1.7,4.4-1.7
		c1.7,0.1,3.2,0.8,4.3,2c1.4,1.5,2.1,3.5,2.1,5.5c-0.1,2.1-0.9,4-2.5,5.4c-3.9,3.6-10,3.4-13.6-0.5c-2.2-2.3-3.3-5.4-3.2-8.6
		c0.1-3.2,1.5-6.2,3.8-8.3c2.9-2.7,6.7-4.1,10.7-4c4,0.1,7.7,1.8,10.4,4.7c10.2,10.9,3.3,26.5-3.3,41.5c-7,16-13.7,31.1-0.7,40.2
		L308.3,274.1z"/>
	<path class="st0" d="M302.4,272.4c3.7-15.7-11.4-22.6-27.4-30c-14.8-6.8-30.2-13.9-29.8-28.6c0.1-3.9,1.7-7.5,4.5-10.2
		c2.8-2.7,6.5-4.1,10.4-4c3.1,0.1,6,1.4,8.2,3.6c2.1,2.3,3.3,5.2,3.2,8.3c-0.1,5.1-4.4,9.2-9.5,9.1c-2-0.1-3.8-0.9-5.2-2.3
		c-1.4-1.4-2.1-3.3-2-5.3c0-1.6,0.7-3,1.8-4.1c1.1-1.1,3.1-0.5,4.2-1.6c0.1-0.1,0.1-0.2,0-0.3c-1.1-1.2-3.2,0.6-4.4,1.7
		c-1.2,1.1-1.9,2.7-1.9,4.3c-0.1,2.1,0.7,4,2.1,5.5c1.4,1.5,3.3,2.3,5.4,2.4c5.3,0.1,9.7-4.1,9.9-9.4c0.1-3.2-1.1-6.2-3.3-8.5
		c-2.2-2.3-5.2-3.6-8.4-3.7c-4-0.1-7.8,1.4-10.7,4.1c-2.9,2.7-4.5,6.4-4.6,10.4c-0.4,14.9,15.1,22,30,28.9
		c15.8,7.3,30.8,14.2,27.2,29.6L302.4,272.4z"/>
</g>
</svg>
