<?xml version="1.0" encoding="utf-8"?>
<!-- Generator: Adobe Illustrator 20.1.0, SVG Export Plug-In . SVG Version: 6.00 Build 0)  -->
<svg version="1.1" id="Layer_1" xmlns="http://www.w3.org/2000/svg" xmlns:xlink="http://www.w3.org/1999/xlink" x="0px" y="0px"
	 viewBox="0 0 800 600" style="enable-background:new 0 0 800 600;" xml:space="preserve">
<style type="text/css">
	.st0{clip-path:url(#SVGID_2_);fill:#F8E8EC;}
</style>
<g>
	<defs>
		<rect id="SVGID_1_" width="800" height="600"/>
	</defs>
	<clipPath id="SVGID_2_">
		<use xlink:href="#SVGID_1_"  style="overflow:visible;"/>
	</clipPath>
	<path class="st0" d="M503.2,226.2c12.2,1.8,25.6-0.9,36.9-7.2c2.8-1.6,5.4-3.4,8-5.3h-3.2c-0.5,0.3-0.9,0.6-1.4,0.9
		c-18.3,12.6-47.2,12.8-58.4-0.9h-4C485.8,220.3,494.1,225.3,503.2,226.2"/>
	<path class="st0" d="M590,240.2c-5.3-11.2-16.1-14.4-22.4-14.3c-6.6,0.2-9.8,2.3-9.9,2.1c0,0.3,3.4-1.7,9.9-1.7
		c6.2,0.2,16.5,3.7,21.2,14.4c5,10.1,2,26.8-11.3,34.4c-12.7,7.8-33.3,3.9-41.9-11.5c-6.5-11-5.7-24.3-0.3-34.5
		c0.1-0.1,0.2-0.1,0.2-0.2c6.7-6.4,13.3-13.7,19.7-21.9h-7.2c-8,8.6-16.6,15.9-24.4,20.4c-10.4,6.1-18.7,7.6-19.6,7.8
		c-9.3,1.3-16.9,0.5-17.3,3.8c-0.4,2.9,9.1,4.3,18.5,0.6c0.8-0.4,9-2.3,19.2-8.5c3.6-2.2,7.4-5,11.2-8.3
		c-7.9,8.3-16.9,16.6-27.1,24.5c-10.7,6.9-28.2,18-29.6,18.9c-6.1,3.9-16.6,7.2-25.3,3c-8.7-3.7-16.2-15.8-13.6-26.5
		c2.2-11.4,15.5-18.3,24.5-16c9.3,1.9,15.2,12.5,14.4,19.5c-0.7,7.3-5.8,11.7-9.5,13.2c-3.9,1.5-7.8,1-7.8,1.5
		c-0.1,0.2,2.5,1.2,7.1,0.2c4.3-1.1,11.3-5.5,12.7-14.5c1.5-8.4-3.9-20.4-15.9-23.2c-11.3-3.2-26,4.5-28.8,18.2
		c-3.2,13.4,5.1,26.5,15.8,30.7c3.6,1.6,7.3,2.2,10.8,2.3c-34.4,15.3-76.4,23.2-120.7,14.4c-31.1-5.6-62.3-19.8-87.9-42.8
		c-12.5-11.2-40.1-59.2-46.2-69.6l-23.6-39c0,6.8,53.7,96.9,61.8,106c2,2.3,9.4,10.2,11.8,12.1c0,0,0-0.1,0-0.1c0,0,0,0.1,0,0.1
		c0.1,0.1,0.2,0.2,0.3,0.3c-0.1,0-0.2-0.1-0.3-0.1c0,0.8-22,0.4-23.4,1.6c4.4-0.8,26.4,0.8,27.3,1.3c0.1,0,0.1,0.1,0.2,0.1
		c0.3,0,0.6,0,0.9,0c-0.3,0-0.6,0-0.9,0c24,18.2,51.8,29.6,79.2,34.3c49.7,9.5,96.4-1.7,132.7-20.6c2.4-0.9,4.6-2.1,6.5-3.4
		c0.2-0.1,0.3-0.2,0.5-0.4c5.3-3,10.4-6.2,15.1-9.5c9.9-6.2,21.8-14.7,34.6-26.2c-3.6,9.9-3.4,21.7,2.5,31.8
		c9.3,16.7,31.7,20.7,45.2,12C592.9,268.5,595.6,250.6,590,240.2"/>
	<path class="st0" d="M551.5,213.7H547c-1.3,1.8-2.7,3.6-4,5.4c-25.1,36-32.2,76.8-31.6,104.9c0.4,28.5,6.4,45.5,6.7,45.2
		c0.6-0.1-4.5-17.1-4.2-45.2c0.1-27.8,7.4-67.6,32-102.9C547.8,218.6,549.6,216.1,551.5,213.7"/>
	<path class="st0" d="M531,409.4c-0.3-9.3,1.9-15.3,1.2-18.4c-2.1-8.1-6.9-18.3-12.7-16.6c0.4-0.1-5.1,1.7-3.3,15
		c3,10.4,2.6,12,9.5,22.6c-0.5,0.5-8.5-11.3-8.8-14c-1.2-2.7-2.7-8.5-2.7-13.8c-0.1-5.3,0.8-9.8,0.8-9.7c-4.7-3.4-8.1-1.3-10.1,3.5
		c-2,4.7-1.8,11.6-1.2,15.3c0.5,8.7,9.2,22.5,19.7,27.8c10.2,5.9,19.9,6.4,22,5.1C539.6,426,531.1,418.9,531,409.4"/>
	<path class="st0" d="M539.1,372.2c-2.4-0.8-9.9-0.2-9.9,0c-1.2,7.3,4,6.7,5.4,7.1c1.8,0.4,4.9-0.3,8.3,0.9c3.5,1.1,6.6,4.3,7.9,4.8
		c-1.6-2.3-1.9-5.8-1.9-11.8c0-6-5.1-11.5-8.7-12.2c-10-1.7-13.3,5.3-11.6,8.2c0,0.2,1.2,1.8,7,1.5c4.7,0.3,5.8,0.7,9.5,4.2
		C543.9,374,540.1,372,539.1,372.2"/>
	<path class="st0" d="M175.5,267c12,0.8,22.6,3.3,29.3,3c18.1-0.5,30.7-3.9,27.4-9.9c0,0.4-2.9-5.1-21.8-4.9
		c-15.5,1.5-17.5,0.6-35.1,6c-0.3-0.7,19.3-6.7,22.8-6.5c8.1-2.4,33.4,0.2,33.3,0.9c8.5-8.9-15-13.5-24.2-12.7
		c-10.3-0.4-29,4.5-41.5,14.5c-12.9,9.6-19.1,21.9-18.7,24.8C150.3,274.6,163.2,265.8,175.5,267"/>
	<path class="st0" d="M206.3,185.3c0-0.3-1.9-0.7-10.3-2.1c-6.4-1.8-7.8-2.7-12.7-7.7c2.1,1.8,6.5,5,7.7,5.2
		c3.3,2.3,14.4,3,14.4,2.5c2-5.1-6.1-4.7-8.7-6.2c-3.1-1-8.9-3.4-13.7-7.5c-4.9-3.9-8.6-8.8-9.8-9.3c2.1,3.2,4.5,9,6.1,15.1
		c1.4,6.1,6.6,12.2,11.2,13.9C203.3,193.4,209,187,206.3,185.3"/>
	<path class="st0" d="M474.6,193.8c-2.6,0.2-5.7,3.3-6.1,6.8c-0.6,3.5,0.4,6.2,1.3,7.6c5.9,7.8,11.6,5.6,11.8,3.2
		c0.1-0.1-0.1-1.7-4.4-5.6c-2.6-3-4-4.9-1.9-8.4c-0.5,1.7-0.7,4.6,0.3,5.1c0.9,2.3,6.9,7,6.9,6.9c4.5-2.9-0.2-6.6-0.9-7.8
		c-0.8-2.4-3.1-0.4-2-3.7c1.8-2.9,5.8-5.3,6.2-6.3C483.5,193,479.8,193.1,474.6,193.8"/>
	<path class="st0" d="M444.9,280.1c0.8-5.4-6.5-3.5-9.1-3.2c-3.1,0.4-8.3,1.9-13,2.1c-4.8,0.5-8.8-1-9.9-1.3c2.2,1.9,6.1,4.4,10.3,8
		c4,3.5,9.8,5.3,13.1,4.8c9.1-1.3,12.1-6.7,9.9-8.4c0-0.1-1.7-1-8.4,0.8c-5.5,1.2-6.5,1.2-12.6,0.4c1.8,0.1,7.1,0,8.1-0.3
		C436.1,282.6,444.9,280.2,444.9,280.1"/>
</g>
</svg>
