<svg id="Layer_1" data-name="Layer 1" xmlns="http://www.w3.org/2000/svg" xmlns:xlink="http://www.w3.org/1999/xlink" viewBox="0 0 416.66 500.04"><defs><style>.cls-1{fill:none;}.cls-2{clip-path:url(#clip-path);}.cls-3{fill:#f8e8ec;}</style><clipPath id="clip-path" transform="translate(-211.43 -79.96)"><rect class="cls-1" width="800" height="600"/></clipPath></defs><title>main-pc-pattern1</title><g class="cls-2"><path class="cls-3" d="M486.15,519.28A32.08,32.08,0,0,0,518,490.77a40,40,0,0,0-35.3-44.13C423,440,390.19,480.19,366.18,509.51l-3.31,4,.57.47,3.31-4c23.9-29.2,56.64-67.71,115.84-61.14,10.42,1.15,18.29,4.83,24.84,13s8,18.42,6.89,28.83c-1.91,17.15-14.49,29.55-31.64,27.66-13.69-1.52-5.56-24.77-22.06-27.58-.18,0-.59-.19-.73-.08-11.06,8.86,8.62,26.82,22.71,28.38a31.81,31.81,0,0,0,3.57.2" transform="translate(-211.43 -79.96)"/><path class="cls-3" d="M359.77,580h.73c0-103.52,44.72-194.52,84.17-274.8,32.27-65.66,60.13-122.37,53.81-169l-.73.1c6.3,46.36-23,103-55.2,168.53C403.06,385.24,359.77,476.31,359.77,580" transform="translate(-211.43 -79.96)"/><path class="cls-3" d="M496.19,109.63c-5.48,5.48-1.53,10-2.56,16.11-1.09,6.46,4.76,13.55,4.76,13.55s1.59-16.11,9.89-29.66c8.55-14-9.89-29.67-9.89-29.67s2.19,25.27-2.2,29.67" transform="translate(-211.43 -79.96)"/><path class="cls-3" d="M479.24,164.42c-3.14,7.1,2.19,9.88,3.43,16,1.31,6.42,9.34,10.92,9.34,10.92s-4.34-15.6-1.5-31.23c2.93-16.12-19.93-24.09-19.93-24.09s11.18,22.77,8.67,28.46" transform="translate(-211.43 -79.96)"/><path class="cls-3" d="M465,224.24c-2.2,5,1.53,6.93,2.41,11.19.92,4.5,6.54,7.65,6.54,7.65s-3-10.94-1-21.9c2.05-11.3-14-16.89-14-16.89s7.84,16,6.08,20" transform="translate(-211.43 -79.96)"/><path class="cls-3" d="M430.16,293c-2.09,4.74,1.46,6.6,2.29,10.65.88,4.29,6.23,7.29,6.23,7.29s-2.89-10.42-1-20.86c2-10.76-13.31-16.08-13.31-16.08s7.46,15.2,5.78,19" transform="translate(-211.43 -79.96)"/><path class="cls-3" d="M407.09,340.18c-2.09,4.74,1.46,6.6,2.29,10.65.88,4.28,6.24,7.29,6.24,7.29s-2.9-10.42-1-20.86c2-10.77-13.31-16.09-13.31-16.09s7.47,15.2,5.79,19" transform="translate(-211.43 -79.96)"/><path class="cls-3" d="M388.31,385.58c-2.09,4.74,1.46,6.6,2.29,10.66.88,4.28,6.24,7.29,6.24,7.29s-2.89-10.42-1-20.86c2-10.76-13.31-16.09-13.31-16.09s7.46,15.21,5.79,19" transform="translate(-211.43 -79.96)"/><path class="cls-3" d="M354.33,488.19c-3.07,7,2.14,9.69,3.36,15.64,1.29,6.29,9.15,10.71,9.15,10.71s-4.25-15.3-1.46-30.63c2.87-15.81-19.55-23.63-19.55-23.63s11,22.33,8.5,27.91" transform="translate(-211.43 -79.96)"/><path class="cls-3" d="M416.57,388.73c-.39,5.16-4.4,5.13-7,8.32-2.79,3.37-8.93,3.49-8.93,3.49s7.46-7.83,10.7-17.92c3.35-10.42,19.33-7.92,19.33-7.92s-13.75,9.9-14.06,14" transform="translate(-211.43 -79.96)"/><path class="cls-3" d="M398.88,460.27c-.58,7.83-6.66,7.79-10.67,12.61-4.23,5.1-13.54,5.3-13.54,5.3S386,466.31,390.89,451c5.07-15.79,29.29-12,29.29-12s-20.84,15-21.31,21.27" transform="translate(-211.43 -79.96)"/><path class="cls-3" d="M428.44,470.39c-4.25,6.6-9.57,3.66-15.4,6-6.16,2.46-14.43-1.81-14.43-1.81s15.6-5,27.23-16.13c12-11.46,31.47,3.43,31.47,3.43s-25.47,3.24-28.88,8.52" transform="translate(-211.43 -79.96)"/><path class="cls-3" d="M456.52,302.19c-.39,5.17-4.4,5.14-7,8.32-2.79,3.37-8.93,3.5-8.93,3.5s7.46-7.83,10.71-17.93c3.34-10.42,19.32-7.92,19.32-7.92s-13.75,9.9-14.06,14" transform="translate(-211.43 -79.96)"/><path class="cls-3" d="M508,182.43c-.39,5.17-4.4,5.14-7,8.32-2.79,3.36-8.93,3.49-8.93,3.49s7.46-7.83,10.7-17.93c3.35-10.42,19.32-7.92,19.32-7.92s-13.74,9.9-14.05,14" transform="translate(-211.43 -79.96)"/><path class="cls-3" d="M484.89,241c-.39,5.16-4.4,5.13-7,8.32-2.8,3.37-8.94,3.49-8.94,3.49s7.46-7.82,10.71-17.92C483,224.49,498.94,227,498.94,227s-13.75,9.9-14.06,14" transform="translate(-211.43 -79.96)"/><path class="cls-3" d="M439,353c-2.23,4.67-6,3.2-9.57,5.22-3.82,2.13-9.59,0-9.59,0s9.79-4.6,16.46-12.85c6.88-8.5,20.88-.41,20.88-.41s-16.39,4.26-18.17,8" transform="translate(-211.43 -79.96)"/><path class="cls-3" d="M359.31,578.15l-.42.09c-13.53-58.42-50.66-103.94-83.42-144.09-26.79-32.84-49.93-61.21-52.45-88.32l.42,0c2.51,27,26.43,55.11,53.19,87.9,32.79,40.19,69.13,85.93,82.68,144.46" transform="translate(-211.43 -79.96)"/><path class="cls-3" d="M220.82,330.5c3.81,2.38,2.18,5.45,3.55,8.76,1.46,3.5-.91,8.27-.91,8.27A45.94,45.94,0,0,0,214,332.08c-6.65-6.77,1.7-18,1.7-18s2.07,14.55,5.12,16.46" transform="translate(-211.43 -79.96)"/><path class="cls-3" d="M237.56,359.21c2.69,3.59.06,5.87.15,9.46.1,3.79-3.84,7.38-3.84,7.38a45.93,45.93,0,0,0-3.24-17.83c-3.76-8.71,8.1-16.2,8.1-16.2s-3.33,14.31-1.17,17.19" transform="translate(-211.43 -79.96)"/><path class="cls-3" d="M253.41,391.11c1.89,2.52,0,4.11.11,6.63s-2.69,5.17-2.69,5.17a32.19,32.19,0,0,0-2.27-12.5c-2.64-6.11,5.68-11.36,5.68-11.36s-2.34,10-.82,12.05" transform="translate(-211.43 -79.96)"/><path class="cls-3" d="M282.06,425.36c1.8,2.4,0,3.92.09,6.31s-2.56,4.93-2.56,4.93a30.72,30.72,0,0,0-2.16-11.9c-2.51-5.82,5.41-10.82,5.41-10.82s-2.23,9.56-.78,11.48" transform="translate(-211.43 -79.96)"/><path class="cls-3" d="M301.25,449c1.8,2.4,0,3.92.1,6.31s-2.57,4.93-2.57,4.93a30.63,30.63,0,0,0-2.16-11.9C294.11,442.5,302,437.5,302,437.5s-2.23,9.56-.79,11.48" transform="translate(-211.43 -79.96)"/><path class="cls-3" d="M317.79,472.15c1.79,2.4,0,3.91.1,6.31s-2.57,4.92-2.57,4.92a30.59,30.59,0,0,0-2.16-11.9c-2.51-5.82,5.41-10.82,5.41-10.82s-2.23,9.56-.78,11.48" transform="translate(-211.43 -79.96)"/><path class="cls-3" d="M350.37,525.62c2.64,3.53.06,5.75.15,9.27.09,3.72-3.77,7.24-3.77,7.24a45,45,0,0,0-3.18-17.48c-3.68-8.55,8-15.89,8-15.89s-3.27,14-1.16,16.86" transform="translate(-211.43 -79.96)"/><path class="cls-3" d="M302.24,477.62c.89,2.87,3.15,2.32,5.06,3.78s5.5.8,5.5.8a30.62,30.62,0,0,1-8.38-8.72c-3.25-5.44-11.95-1.95-11.95-1.95s9.06,3.79,9.77,6.08" transform="translate(-211.43 -79.96)"/><path class="cls-3" d="M321.59,515.69c1.36,4.34,4.78,3.52,7.67,5.72,3.05,2.33,8.33,1.22,8.33,1.22a46.5,46.5,0,0,1-12.71-13.22c-4.93-8.25-18.1-2.94-18.1-2.94s13.72,5.74,14.81,9.22" transform="translate(-211.43 -79.96)"/><path class="cls-3" d="M268.39,434c.89,2.87,3.15,2.32,5.05,3.78s5.5.8,5.5.8a30.67,30.67,0,0,1-8.39-8.72c-3.25-5.44-11.94-1.95-11.94-1.95s9.05,3.79,9.77,6.09" transform="translate(-211.43 -79.96)"/><path class="cls-3" d="M223.69,373.13c.89,2.87,3.16,2.33,5.06,3.78s5.5.8,5.5.8a30.59,30.59,0,0,1-8.39-8.72c-3.25-5.44-11.94-1.94-11.94-1.94s9.06,3.79,9.77,6.08" transform="translate(-211.43 -79.96)"/><path class="cls-3" d="M244.38,403.19c.9,2.87,3.15,2.32,5.06,3.78s5.49.8,5.49.8a30.63,30.63,0,0,1-8.38-8.72c-3.25-5.45-11.94-1.95-11.94-1.95s9.06,3.79,9.77,6.08" transform="translate(-211.43 -79.96)"/><path class="cls-3" d="M284.91,460.39c1.87,2.35,3.79,1,6.09,1.69s5.42-1.24,5.42-1.24a30.68,30.68,0,0,1-11-5.1c-5-3.9-11.84,2.5-11.84,2.5s9.81.27,11.3,2.15" transform="translate(-211.43 -79.96)"/><path class="cls-3" d="M396.89,434.64c30.26-16.92,57.77-37.12,83.51-56,41-30.15,76.44-56.19,109.12-57.58l0,.51C557,322.89,521.83,349.9,480.88,380c-25.74,18.93-53.29,38.87-83.6,55.54a7.17,7.17,0,0,0-.39-.9" transform="translate(-211.43 -79.96)"/><path class="cls-3" d="M608,319.31c-3.08,4.43-6.67,2.27-10.72,3.73-4.29,1.54-9.86-1.6-9.86-1.6s10.84-3.07,19.1-10.41c8.53-7.57,21.53,3.14,21.53,3.14s-17.58,1.59-20,5.14" transform="translate(-211.43 -79.96)"/><path class="cls-3" d="M572.59,337.64c-4.47,3-7-.28-11.35-.39-4.55-.12-8.62-5.06-8.62-5.06s11.22,1.05,21.58-2.8c10.68-4,18.95,10.7,18.95,10.7s-17-4.86-20.56-2.45" transform="translate(-211.43 -79.96)"/><path class="cls-3" d="M533.36,354.73c-3.13,2.11-4.93-.2-8-.28-3.2-.08-6-3.55-6-3.55a38.68,38.68,0,0,0,15.13-2c7.49-2.79,13.28,7.5,13.28,7.5s-11.9-3.41-14.41-1.71" transform="translate(-211.43 -79.96)"/><path class="cls-3" d="M490.54,387c-3,2-4.7-.19-7.58-.26-3-.08-5.76-3.37-5.76-3.37a36.92,36.92,0,0,0,14.42-1.88c7.13-2.66,12.65,7.15,12.65,7.15s-11.33-3.25-13.72-1.63" transform="translate(-211.43 -79.96)"/><path class="cls-3" d="M461,408.62c-3,2-4.7-.19-7.58-.26-3-.08-5.75-3.38-5.75-3.38a36.87,36.87,0,0,0,14.41-1.87c7.13-2.66,12.65,7.15,12.65,7.15S463.44,407,461,408.62" transform="translate(-211.43 -79.96)"/><path class="cls-3" d="M432.26,427.06c-3,2-4.7-.19-7.58-.26-3-.07-5.76-3.37-5.76-3.37a36.8,36.8,0,0,0,14.4-1.87c7.13-2.66,12.65,7.14,12.65,7.14s-11.33-3.25-13.73-1.63" transform="translate(-211.43 -79.96)"/><path class="cls-3" d="M426.63,408.08c-3.49.9-3,3.64-4.83,5.84s-1.3,6.54-1.3,6.54a36.84,36.84,0,0,1,11-9.53c6.73-3.57,3.06-14.21,3.06-14.21s-5.1,10.63-7.89,11.35" transform="translate(-211.43 -79.96)"/><path class="cls-3" d="M481,370.11c-3.49.9-3,3.64-4.84,5.84s-1.3,6.55-1.3,6.55a36.86,36.86,0,0,1,11-9.53c6.73-3.57,3.06-14.21,3.06-14.21s-5.1,10.64-7.89,11.36" transform="translate(-211.43 -79.96)"/><path class="cls-3" d="M556.73,320.17c-3.49.9-3,3.64-4.83,5.84s-1.3,6.55-1.3,6.55a36.81,36.81,0,0,1,11-9.54c6.73-3.57,3.06-14.21,3.06-14.21s-5.09,10.63-7.89,11.35" transform="translate(-211.43 -79.96)"/><path class="cls-3" d="M519.42,343.17c-3.49.9-3,3.64-4.83,5.84s-1.3,6.55-1.3,6.55a36.78,36.78,0,0,1,11-9.54c6.72-3.57,3.05-14.2,3.05-14.2s-5.1,10.63-7.89,11.35" transform="translate(-211.43 -79.96)"/><path class="cls-3" d="M448.35,388.33c-2.93,2.1-1.46,4.47-2.4,7.19-1,2.88,1.16,6.57,1.16,6.57a36.79,36.79,0,0,1,6.79-12.85c5-5.76-2.28-14.35-2.28-14.35s-.92,11.75-3.26,13.43" transform="translate(-211.43 -79.96)"/><path class="cls-3" d="M361.35,577.3l-1.12-1c64.85-76.24,37.6-146,13.55-207.57-19.15-49-37.24-95.33-5.43-136.91a82.76,82.76,0,0,1,115.88-15.44,66.28,66.28,0,0,1,12.38,92.91c-8.63,11.28-21.13,20-35.21,21.88s-36,1.85-39.33-11.95c-.08-.36.53-1.12.9-1.17,13.69-1.82,24.55,10.54,38.24,8.71s25.85-7.4,34.24-18.36a64.81,64.81,0,0,0-12.11-90.85,81.28,81.28,0,0,0-113.82,15.16c-31.3,40.93-10.42,86.85,8.58,135.48,24.2,61.94,48.68,132.15-16.75,209.06" transform="translate(-211.43 -79.96)"/><path class="cls-3" d="M372.18,478.24l.63-.41C340.16,427.89,336.66,376,334.1,338.16c-1.93-28.6-3.32-49.26-15.63-57.34a32.74,32.74,0,0,0-45.29,9.4,26.27,26.27,0,0,0,7.54,36.33,21.07,21.07,0,0,0,29.17-6.06A16.93,16.93,0,0,0,305,297.06c-6.28-4.12-20.38-3.44-18.86,3.92a.75.75,0,0,0,.63.41c6.94-1.44,11.88-7.59,17.82-3.7a16.18,16.18,0,0,1,4.65,22.4,20.17,20.17,0,0,1-12.86,8.75l-.33.07a20.18,20.18,0,0,1-14.94-3,25.52,25.52,0,0,1-7.33-35.29,32,32,0,0,1,44.25-9.19c12,7.87,13.38,28.38,15.29,56.76,2.56,37.95,6.07,89.93,38.83,140" transform="translate(-211.43 -79.96)"/><path class="cls-3" d="M347.64,279.92a20.77,20.77,0,0,0,16.49-24.27,25.87,25.87,0,0,0-30.22-20.54,32.24,32.24,0,0,0-25.6,37.67l.74-.14a31.49,31.49,0,0,1,25-36.79,25.12,25.12,0,0,1,29.35,19.95,20,20,0,0,1-15.9,23.39,15.94,15.94,0,0,1-18.62-12.66c-1.31-6.86,6.14-9,10.07-14.81a.76.76,0,0,0-.14-.73c-6.12-4.16-12,8.42-10.66,15.68a16.69,16.69,0,0,0,19.5,13.26" transform="translate(-211.43 -79.96)"/><path class="cls-3" d="M508.33,277.57c-6.07-26.11,19.06-37.65,45.65-49.86,24.73-11.35,50.29-23.09,49.7-47.58a24.33,24.33,0,0,0-24.91-23.73,19.41,19.41,0,0,0-18.93,19.88,15.5,15.5,0,0,0,15.85,15.1,12.33,12.33,0,0,0,12-12.63,9.73,9.73,0,0,0-3-6.87c-1.9-1.81-5.11-.89-7-2.7a.51.51,0,0,1,0-.51c1.9-2,5.38.94,7.37,2.85a10.25,10.25,0,0,1,3.2,7.23,12.84,12.84,0,0,1-12.53,13.15,16,16,0,0,1-16.36-15.59,19.92,19.92,0,0,1,19.43-20.4,24.83,24.83,0,0,1,25.42,24.23c.61,24.82-25.11,36.63-50,48.05-26.4,12.12-51.34,23.58-45.37,49.28Z" transform="translate(-211.43 -79.96)"/><path class="cls-3" d="M508.44,277.7c-3.64-15.68,11.45-22.61,27.43-30,14.85-6.82,30.21-13.87,29.85-28.58a14.61,14.61,0,0,0-15-14.25,11.67,11.67,0,0,0-11.38,11.94,9.31,9.31,0,0,0,9.52,9.07,7.41,7.41,0,0,0,7.23-7.59,5.86,5.86,0,0,0-1.82-4.13c-1.14-1.09-3.07-.54-4.21-1.63a.3.3,0,0,1,0-.31c1.14-1.2,3.23.57,4.43,1.71a6.19,6.19,0,0,1,1.92,4.34,7.72,7.72,0,0,1-7.53,7.9,9.62,9.62,0,0,1-9.83-9.37,12,12,0,0,1,11.67-12.25A14.92,14.92,0,0,1,566,219.17c.36,14.91-15.09,22-30,28.86-15.86,7.28-30.84,14.16-27.25,29.61Z" transform="translate(-211.43 -79.96)"/><path class="cls-3" d="M351.23,437.55c-13.13-9.32-6.44-24.51.64-40.61,6.58-15,13.39-30.43,3.36-41.2a14.62,14.62,0,0,0-20.65-.73A11.66,11.66,0,0,0,334,371.5a9.31,9.31,0,0,0,13.14.46,7.41,7.41,0,0,0,.37-10.47,5.85,5.85,0,0,0-4.11-1.87c-1.58-.06-2.65,1.63-4.23,1.58A.32.32,0,0,1,339,361c.06-1.65,2.79-1.72,4.45-1.66a6.16,6.16,0,0,1,4.32,2,7.71,7.71,0,0,1-.39,10.9,9.61,9.61,0,0,1-13.57-.48,12,12,0,0,1,.6-16.91,14.92,14.92,0,0,1,21.09.75c10.17,10.91,3.32,26.47-3.31,41.52-7,16-13.67,31.06-.74,40.23Z" transform="translate(-211.43 -79.96)"/><path class="cls-3" d="M308.28,274.11c-13.14-9.32-6.45-24.51.64-40.6,6.58-15,13.39-30.43,3.36-41.19a14.62,14.62,0,0,0-20.65-.73,11.66,11.66,0,0,0-.58,16.48,9.31,9.31,0,0,0,13.14.47,7.41,7.41,0,0,0,.37-10.47,5.85,5.85,0,0,0-4.1-1.87c-1.57-.05-2.65,1.64-4.23,1.58a.3.3,0,0,1-.21-.22c.06-1.65,2.79-1.72,4.44-1.66a6.16,6.16,0,0,1,4.32,2,7.72,7.72,0,0,1-.39,10.9,9.62,9.62,0,0,1-13.57-.48,12,12,0,0,1,.6-16.91,14.91,14.91,0,0,1,21.08.75c10.17,10.91,3.32,26.47-3.3,41.52-7,16-13.67,31.06-.74,40.23Z" transform="translate(-211.43 -79.96)"/><path class="cls-3" d="M302.36,272.35c3.66-15.68-11.42-22.63-27.39-30-14.84-6.84-30.19-13.92-29.82-28.62a14.62,14.62,0,0,1,15-14.24,11.66,11.66,0,0,1,11.36,12,9.3,9.3,0,0,1-9.53,9.06,7.4,7.4,0,0,1-7.22-7.6,5.86,5.86,0,0,1,1.83-4.12c1.15-1.08,3.08-.53,4.21-1.62a.31.31,0,0,0,0-.31c-1.14-1.2-3.23.56-4.43,1.7a6.17,6.17,0,0,0-1.93,4.34,7.71,7.71,0,0,0,7.51,7.91,9.62,9.62,0,0,0,9.85-9.35,12,12,0,0,0-11.65-12.27,14.93,14.93,0,0,0-15.3,14.53c-.38,14.91,15.06,22,30,28.91,15.85,7.3,30.82,14.21,27.22,29.64Z" transform="translate(-211.43 -79.96)"/></g></svg>